SplineFontDB: 3.0
FontName: TheanoModern-Regular
FullName: Theano Modern Regular
FamilyName: Theano Modern
Weight: Regular
Copyright: Copyright (c) Alexey Kryukov, 2007-2008. All rights reserved.
UComments: "zones: 1460 -> 900, -390 -> -288+AAoA-vertical scale 58+AAoACgAA-ratio:+AAoA  thin: 87.5+AAoA  thick: 79.35+AAoA  counter: 64+AAoA" 
Version: 2.00
ItalicAngle: 0
UnderlinePosition: -352
UnderlineWidth: 96
Ascent: 1580
Descent: 468
LayerCount: 3
Layer: 0 0 "Back"  1
Layer: 1 0 "Fore"  0
Layer: 2 1 "TTF"  0
XUID: [1021 675 718133685 10663932]
UniqueID: 4169751
FSType: 0
OS2Version: 0
OS2_WeightWidthSlopeOnly: 0
OS2_UseTypoMetrics: 1
CreationTime: 1298973667
ModificationTime: 1316884362
PfmFamily: 17
TTFWeight: 400
TTFWidth: 5
LineGap: 560
VLineGap: 0
Panose: 2 4 5 3 6 7 5 2 2 3
OS2TypoAscent: 0
OS2TypoAOffset: 1
OS2TypoDescent: 0
OS2TypoDOffset: 1
OS2TypoLinegap: 560
OS2WinAscent: 0
OS2WinAOffset: 1
OS2WinDescent: 0
OS2WinDOffset: 1
HheadAscent: 0
HheadAOffset: 1
HheadDescent: 0
HheadDOffset: 1
OS2SubXSize: 1400
OS2SubYSize: 1300
OS2SubXOff: 0
OS2SubYOff: 280
OS2SupXSize: 1400
OS2SupYSize: 1300
OS2SupXOff: 0
OS2SupYOff: 954
OS2StrikeYSize: 100
OS2StrikeYPos: 500
OS2FamilyClass: 768
OS2Vendor: '    '
Lookup: 4 0 0 "'ccmp' Simple Glyph Composition"  {"'ccmp' Simple Glyph Composition-1"  } ['ccmp' ('cyrl' <'dflt' > 'grek' <'dflt' > 'latn' <'AZE ' 'CRT ' 'DEU ' 'MOL ' 'ROM ' 'TRK ' 'dflt' > ) ]
Lookup: 5 0 0 "'ccmp' Dotless Variants"  {"'ccmp' Dotless Variants-1"  } ['ccmp' ('cyrl' <'dflt' > 'grek' <'dflt' > 'latn' <'AZE ' 'CRT ' 'DEU ' 'MOL ' 'ROM ' 'TRK ' 'dflt' > ) ]
Lookup: 5 0 0 "'ccmp' Cyrillic Accents"  {"'ccmp' Cyrillic Accents-1"  } ['ccmp' ('cyrl' <'dflt' > 'grek' <'dflt' > 'latn' <'AZE ' 'CRT ' 'DEU ' 'MOL ' 'ROM ' 'TRK ' 'dflt' > ) ]
Lookup: 5 0 0 "'ccmp' Capital Accents"  {"'ccmp' Capital Accents-1"  } ['ccmp' ('cyrl' <'dflt' > 'grek' <'dflt' > 'latn' <'AZE ' 'CRT ' 'DEU ' 'MOL ' 'ROM ' 'TRK ' 'dflt' > ) ]

StartChar: exclam
Encoding: 1 33 1
Width: 528
VWidth: 2078
Flags: W
HStem: -24 256<166.773 361.227> 1468 20G<216 312>
VStem: 118 292<1015.81 1449.29> 136 256<6.77267 201.227>
LayerCount: 3
Fore
SplineSet
118 1329 m 0xe0
 118 1417 168 1488 264 1488 c 0
 360 1488 410 1417 410 1329 c 0
 410 1274 396 1162 378 1080 c 0
 356 978 345 898 335 801 c 10
 292 396 l 25
 236 396 l 25
 193 801 l 18
 183 898 172 978 150 1080 c 0
 132 1162 118 1274 118 1329 c 0xe0
136 104 m 0xd0
 136 176 192 232 264 232 c 0
 336 232 392 176 392 104 c 0
 392 32 336 -24 264 -24 c 0
 192 -24 136 32 136 104 c 0xd0
EndSplineSet
Validated: 19457
Layer: 2
SplineSet
118 1329 m 0,0,1
 118 1398 118 1398 156.5 1443 c 128,-1,2
 195 1488 195 1488 264 1488 c 128,-1,3
 333 1488 333 1488 371.5 1443 c 128,-1,4
 410 1398 410 1398 410 1329 c 0,5,6
 410 1226 410 1226 378 1080 c 0,7,8
 351 954 351 954 335 801 c 2,9,-1
 292 396 l 1,10,-1
 236 396 l 1,11,-1
 193 801 l 2,12,13
 177 954 177 954 150 1080 c 0,14,15
 118 1226 118 1226 118 1329 c 0,0,1
136 104 m 128,-1,17
 136 158 136 158 173 195 c 128,-1,18
 210 232 210 232 264 232 c 128,-1,19
 318 232 318 232 355 195 c 128,-1,20
 392 158 392 158 392 104 c 128,-1,21
 392 50 392 50 355 13 c 128,-1,22
 318 -24 318 -24 264 -24 c 128,-1,23
 210 -24 210 -24 173 13 c 128,-1,16
 136 50 136 50 136 104 c 128,-1,17
EndSplineSet
EndChar

StartChar: numbersign
Encoding: 3 35 3
Width: 1152
VWidth: 2078
Flags: W
HStem: 0 21G<170 262.047 592 684.047> 430 96<62 257 365 679 787 1090> 934 96<62 360 467 782 889 1090> 1468 20G<467.939 560 889.939 982>
DStem2: 170 0 258 0 0.198902 0.980019<17.5034 438.713 554.276 953.13 1068.49 1518.34> 592 0 680 0 0.198902 0.980019<17.5034 438.713 554.276 953.13 1068.49 1518.34>
LayerCount: 3
Fore
SplineSet
62 430 m 1
 62 526 l 1
 277 526 l 1
 360 934 l 1
 62 934 l 1
 62 1030 l 1
 379 1030 l 1
 472 1488 l 1
 560 1488 l 1
 467 1030 l 1
 801 1030 l 1
 894 1488 l 1
 982 1488 l 1
 889 1030 l 1
 1090 1030 l 1
 1090 934 l 1
 870 934 l 1
 787 526 l 1
 1090 526 l 1
 1090 430 l 1
 767 430 l 1
 680 0 l 1
 592 0 l 1
 679 430 l 1
 345 430 l 1
 258 0 l 1
 170 0 l 1
 257 430 l 1
 62 430 l 1
365 526 m 1
 699 526 l 1
 782 934 l 1
 448 934 l 1
 365 526 l 1
EndSplineSet
Validated: 19457
Layer: 2
SplineSet
62 430 m 1,0,-1
 62 526 l 1,1,-1
 277 526 l 1,2,-1
 360 934 l 1,3,-1
 62 934 l 1,4,-1
 62 1030 l 1,5,-1
 379 1030 l 1,6,-1
 472 1488 l 1,7,-1
 560 1488 l 1,8,-1
 467 1030 l 1,9,-1
 801 1030 l 1,10,-1
 894 1488 l 1,11,-1
 982 1488 l 1,12,-1
 889 1030 l 1,13,-1
 1090 1030 l 1,14,-1
 1090 934 l 1,15,-1
 870 934 l 1,16,-1
 787 526 l 1,17,-1
 1090 526 l 1,18,-1
 1090 430 l 1,19,-1
 767 430 l 1,20,-1
 680 0 l 1,21,-1
 592 0 l 1,22,-1
 679 430 l 1,23,-1
 345 430 l 1,24,-1
 258 0 l 1,25,-1
 170 0 l 1,26,-1
 257 430 l 1,27,-1
 62 430 l 1,0,-1
365 526 m 1,28,-1
 699 526 l 1,29,-1
 782 934 l 1,30,-1
 448 934 l 1,31,-1
 365 526 l 1,28,-1
EndSplineSet
EndChar

StartChar: dollar
Encoding: 4 36 4
Width: 1152
VWidth: 2078
Flags: W
HStem: -28 64<394.576 456 528 664> 1038 21G<859 928.5> 1424 64<528 664>
VStem: 104 124<168.592 376.5> 128 136<1042.24 1242.49> 456 72<-168 -26 49 674 934 1400 1484 1580> 664 72<-168 -23 62 588 850 1400 1484 1580> 872 144<1140 1316.43> 948 124<221.995 469.346>
LayerCount: 3
Fore
SplineSet
104 327 m 0xf680
 104 426 170 504 251 504 c 0
 311 504 352 456 352 406 c 0
 352 356 318 318 280 296 c 0
 255 282 228 260 228 230 c 0xf680
 228 133 335 74 456 49 c 1
 456 703 l 1
 280 777 128 876 128 1062 c 0
 128 1261 271 1416 456 1469 c 1
 456 1580 l 1
 528 1580 l 1
 528 1484 l 1
 550 1487 572 1488 595 1488 c 0
 619 1488 642 1487 664 1484 c 1
 664 1580 l 1
 736 1580 l 1
 736 1471 l 1
 907 1427 1016 1305 1016 1180 c 0
 1016 1100 963 1038 894 1038 c 0
 824 1038 784 1082 784 1138 c 0
 784 1176 807 1213 832 1232 c 0
 856 1252 872 1266 872 1293 c 0xef
 872 1333 814 1375 736 1400 c 1
 736 820 l 1
 940 736 1072 627 1072 395 c 0
 1072 197 919 46 736 -7 c 1
 736 -168 l 1
 664 -168 l 1
 664 -23 l 1
 639 -26 614 -28 589 -28 c 0
 569 -28 548 -27 528 -26 c 1
 528 -168 l 1
 456 -168 l 1
 456 -16 l 1
 265 20 104 134 104 327 c 0xf680
264 1158 m 0xee
 264 1052 347 986 456 934 c 1
 456 1400 l 1
 349 1360 264 1273 264 1158 c 0xee
528 39 m 1
 548 37 567 36 586 36 c 0
 612 36 639 38 664 43 c 1
 664 621 l 1
 528 674 l 1
 528 39 l 1
528 902 m 1
 664 850 l 1
 664 1418 l 1
 640 1422 615 1424 590 1424 c 0
 569 1424 548 1422 528 1419 c 1
 528 902 l 1
736 62 m 1
 857 106 948 202 948 344 c 0xe680
 948 458 866 530 736 588 c 1
 736 62 l 1
EndSplineSet
Validated: 19457
Layer: 2
SplineSet
104 327 m 0,0,1
 104 401 104 401 147 452.5 c 128,-1,2
 190 504 190 504 251 504 c 0,3,4
 295 504 295 504 323.5 474.5 c 128,-1,5
 352 445 352 445 352 406 c 0,6,7
 352 338 352 338 280 296 c 1,8,9
 228 267 228 267 228 230 c 0,10,11
 228 162 228 162 292.5 116 c 128,-1,12
 357 70 357 70 456 49 c 1,13,-1
 456 703 l 1,14,15
 383 734 383 734 329 765.5 c 128,-1,16
 275 797 275 797 227 840 c 128,-1,17
 179 883 179 883 153.5 939 c 128,-1,18
 128 995 128 995 128 1062 c 0,19,20
 128 1207 128 1207 220.5 1317.5 c 128,-1,21
 313 1428 313 1428 456 1469 c 1,22,-1
 456 1580 l 1,23,-1
 528 1580 l 1,24,-1
 528 1484 l 1,25,26
 557 1488 557 1488 595 1488 c 0,27,28
 635 1488 635 1488 664 1484 c 1,29,-1
 664 1580 l 1,30,-1
 736 1580 l 1,31,-1
 736 1471 l 1,32,33
 862 1439 862 1439 939 1357 c 128,-1,34
 1016 1275 1016 1275 1016 1180 c 0,35,36
 1016 1120 1016 1120 981 1079 c 128,-1,37
 946 1038 946 1038 894 1038 c 0,38,39
 843 1038 843 1038 813.5 1066.5 c 128,-1,40
 784 1095 784 1095 784 1138 c 0,41,42
 784 1165 784 1165 798 1191 c 128,-1,43
 812 1217 812 1217 832 1232 c 0,44,45
 847 1244 847 1244 854 1251 c 128,-1,46
 861 1258 861 1258 866.5 1269 c 128,-1,47
 872 1280 872 1280 872 1293 c 0,48,49
 872 1322 872 1322 834 1351.5 c 128,-1,50
 796 1381 796 1381 736 1400 c 1,51,-1
 736 820 l 1,52,53
 817 786 817 786 875 750 c 128,-1,54
 933 714 933 714 979.5 664 c 128,-1,55
 1026 614 1026 614 1049 547 c 128,-1,56
 1072 480 1072 480 1072 395 c 0,57,58
 1072 252 1072 252 976 143.5 c 128,-1,59
 880 35 880 35 736 -7 c 1,60,-1
 736 -168 l 1,61,-1
 664 -168 l 1,62,-1
 664 -23 l 1,63,64
 622 -28 622 -28 589 -28 c 0,65,66
 568 -28 568 -28 528 -26 c 1,67,-1
 528 -168 l 1,68,-1
 456 -168 l 1,69,-1
 456 -16 l 1,70,71
 302 13 302 13 203 101.5 c 128,-1,72
 104 190 104 190 104 327 c 0,0,1
264 1158 m 0,73,74
 264 1084 264 1084 314.5 1030.5 c 128,-1,75
 365 977 365 977 456 934 c 1,76,-1
 456 1400 l 1,77,78
 371 1368 371 1368 317.5 1304.5 c 128,-1,79
 264 1241 264 1241 264 1158 c 0,73,74
528 39 m 1,80,81
 558 36 558 36 586 36 c 0,82,83
 629 36 629 36 664 43 c 1,84,-1
 664 621 l 1,85,-1
 528 674 l 1,86,-1
 528 39 l 1,80,81
528 902 m 1,87,-1
 664 850 l 1,88,-1
 664 1418 l 1,89,90
 628 1424 628 1424 590 1424 c 0,91,92
 561 1424 561 1424 528 1419 c 1,93,-1
 528 902 l 1,87,-1
736 62 m 1,94,95
 832 97 832 97 890 169.5 c 128,-1,96
 948 242 948 242 948 344 c 0,97,98
 948 425 948 425 894 483.5 c 128,-1,99
 840 542 840 542 736 588 c 1,100,-1
 736 62 l 1,94,95
EndSplineSet
EndChar

StartChar: percent
Encoding: 5 37 5
Width: 1540
VWidth: 2078
Flags: W
HStem: -28 44<1116.59 1239.41> 644 44<1116.59 1239.41> 772 44<300.588 423.412> 1444 44<300.588 423.412>
VStem: 80 134<943.486 1316.51> 510 134<943.486 1316.51> 896 134<143.486 516.514> 1326 134<143.486 516.514>
DStem2: 279 -16 375 -16 0.510592 0.859823<49.0168 1734.22>
LayerCount: 3
Fore
SplineSet
80 1130 m 0
 80 1312 196 1488 362 1488 c 0
 528 1488 644 1312 644 1130 c 0
 644 948 528 772 362 772 c 0
 196 772 80 948 80 1130 c 0
214 1130 m 0
 214 1002 240 816 362 816 c 0
 484 816 510 1002 510 1130 c 0
 510 1258 484 1444 362 1444 c 0
 240 1444 214 1258 214 1130 c 0
279 -16 m 25
 1163 1476 l 25
 1261 1476 l 25
 375 -16 l 25
 279 -16 l 25
896 330 m 0
 896 512 1012 688 1178 688 c 0
 1344 688 1460 512 1460 330 c 0
 1460 148 1344 -28 1178 -28 c 0
 1012 -28 896 148 896 330 c 0
1030 330 m 0
 1030 202 1056 16 1178 16 c 0
 1300 16 1326 202 1326 330 c 0
 1326 458 1300 644 1178 644 c 0
 1056 644 1030 458 1030 330 c 0
EndSplineSet
Validated: 19457
Layer: 2
SplineSet
80 1130 m 128,-1,1
 80 1221 80 1221 115 1303 c 128,-1,2
 150 1385 150 1385 216 1436.5 c 128,-1,3
 282 1488 282 1488 362 1488 c 128,-1,4
 442 1488 442 1488 508 1436.5 c 128,-1,5
 574 1385 574 1385 609 1303 c 128,-1,6
 644 1221 644 1221 644 1130 c 128,-1,7
 644 1039 644 1039 609 957 c 128,-1,8
 574 875 574 875 508 823.5 c 128,-1,9
 442 772 442 772 362 772 c 128,-1,10
 282 772 282 772 216 823.5 c 128,-1,11
 150 875 150 875 115 957 c 128,-1,0
 80 1039 80 1039 80 1130 c 128,-1,1
214 1130 m 128,-1,13
 214 1076 214 1076 220.5 1026 c 128,-1,14
 227 976 227 976 242 926 c 128,-1,15
 257 876 257 876 288 846 c 128,-1,16
 319 816 319 816 362 816 c 128,-1,17
 405 816 405 816 436 846 c 128,-1,18
 467 876 467 876 482 926 c 128,-1,19
 497 976 497 976 503.5 1026 c 128,-1,20
 510 1076 510 1076 510 1130 c 128,-1,21
 510 1184 510 1184 503.5 1234 c 128,-1,22
 497 1284 497 1284 482 1334 c 128,-1,23
 467 1384 467 1384 436 1414 c 128,-1,24
 405 1444 405 1444 362 1444 c 128,-1,25
 319 1444 319 1444 288 1414 c 128,-1,26
 257 1384 257 1384 242 1334 c 128,-1,27
 227 1284 227 1284 220.5 1234 c 128,-1,12
 214 1184 214 1184 214 1130 c 128,-1,13
279 -16 m 1,28,-1
 1163 1476 l 1,29,-1
 1261 1476 l 1,30,-1
 375 -16 l 1,31,-1
 279 -16 l 1,28,-1
896 330 m 128,-1,33
 896 421 896 421 931 503 c 128,-1,34
 966 585 966 585 1032 636.5 c 128,-1,35
 1098 688 1098 688 1178 688 c 128,-1,36
 1258 688 1258 688 1324 636.5 c 128,-1,37
 1390 585 1390 585 1425 503 c 128,-1,38
 1460 421 1460 421 1460 330 c 128,-1,39
 1460 239 1460 239 1425 157 c 128,-1,40
 1390 75 1390 75 1324 23.5 c 128,-1,41
 1258 -28 1258 -28 1178 -28 c 128,-1,42
 1098 -28 1098 -28 1032 23.5 c 128,-1,43
 966 75 966 75 931 157 c 128,-1,32
 896 239 896 239 896 330 c 128,-1,33
1030 330 m 128,-1,45
 1030 276 1030 276 1036.5 226 c 128,-1,46
 1043 176 1043 176 1058 126 c 128,-1,47
 1073 76 1073 76 1104 46 c 128,-1,48
 1135 16 1135 16 1178 16 c 128,-1,49
 1221 16 1221 16 1252 46 c 128,-1,50
 1283 76 1283 76 1298 126 c 128,-1,51
 1313 176 1313 176 1319.5 226 c 128,-1,52
 1326 276 1326 276 1326 330 c 128,-1,53
 1326 384 1326 384 1319.5 434 c 128,-1,54
 1313 484 1313 484 1298 534 c 128,-1,55
 1283 584 1283 584 1252 614 c 128,-1,56
 1221 644 1221 644 1178 644 c 128,-1,57
 1135 644 1135 644 1104 614 c 128,-1,58
 1073 584 1073 584 1058 534 c 128,-1,59
 1043 484 1043 484 1036.5 434 c 128,-1,44
 1030 384 1030 384 1030 330 c 128,-1,45
EndSplineSet
EndChar

StartChar: ampersand
Encoding: 6 38 6
Width: 1540
VWidth: 2078
Flags: W
HStem: -28 112<1145.09 1306.83> -28 64<501.223 732.146> 810 64<944 1118.5 1261.32 1448> 1426 64<633.189 800.998>
VStem: 148 224<170.585 516.993> 472 118<1094.46 1364.65> 870 88<1052.59 1368.31> 1420 64<274.341 474>
DStem2: 708 937 555 841 0.453012 -0.891504<-238.087 0 84.2457 688.724>
LayerCount: 3
Fore
SplineSet
148 328 m 0x7f
 148 584 356 720 555 841 c 1
 500 957 472 1050 472 1194 c 0
 472 1370 592 1490 722 1490 c 0
 892 1490 958 1350 958 1224 c 0
 958 1059 876 978 736 882 c 1
 1020 323 l 1
 1105 449 1143 579 1143 709 c 0
 1143 757 1114 810 1046 810 c 2
 944 810 l 1
 944 874 l 1
 1448 874 l 1
 1448 810 l 1
 1342 810 l 2
 1272 810 1228 759 1216 686 c 0
 1196 562 1156 412 1051 264 c 1
 1103 170 1162 84 1226 84 c 0
 1374 84 1414 345 1420 474 c 1
 1484 474 l 1
 1472 238 1397 -28 1169 -28 c 0xbf
 1065 -28 989 45 935 138 c 1
 845 42 710 -28 560 -28 c 0
 350 -28 148 72 148 328 c 0x7f
372 372 m 0
 372 195 455 36 608 36 c 0x7f
 717 36 816 95 901 180 c 1
 585 780 l 1
 452 686 372 576 372 372 c 0
590 1302 m 0
 590 1179 642 1068 708 937 c 1
 794 1001 870 1058 870 1188 c 0
 870 1340 816 1426 712 1426 c 0
 646 1426 590 1366 590 1302 c 0
EndSplineSet
Validated: 19457
Layer: 2
SplineSet
148 328 m 0,0,1
 148 381 148 381 161 431 c 128,-1,2
 174 481 174 481 193.5 520.5 c 128,-1,3
 213 560 213 560 246.5 600 c 128,-1,4
 280 640 280 640 310.5 668.5 c 128,-1,5
 341 697 341 697 388 731.5 c 128,-1,6
 435 766 435 766 469 787.5 c 128,-1,7
 503 809 503 809 555 841 c 1,8,9
 511 933 511 933 491.5 1012 c 128,-1,10
 472 1091 472 1091 472 1194 c 0,11,12
 472 1322 472 1322 546.5 1406 c 128,-1,13
 621 1490 621 1490 722 1490 c 0,14,15
 783 1490 783 1490 830 1466.5 c 128,-1,16
 877 1443 877 1443 904 1404 c 128,-1,17
 931 1365 931 1365 944.5 1319 c 128,-1,18
 958 1273 958 1273 958 1224 c 0,19,20
 958 1144 958 1144 930 1082 c 128,-1,21
 902 1020 902 1020 858 977.5 c 128,-1,22
 814 935 814 935 736 882 c 1,23,-1
 1020 323 l 1,24,25
 1143 505 1143 505 1143 709 c 0,26,27
 1143 749 1143 749 1118 779.5 c 128,-1,28
 1093 810 1093 810 1046 810 c 2,29,-1
 944 810 l 1,30,-1
 944 874 l 1,31,-1
 1448 874 l 1,32,-1
 1448 810 l 1,33,-1
 1342 810 l 2,34,35
 1291 810 1291 810 1258 776 c 128,-1,36
 1225 742 1225 742 1216 686 c 0,37,38
 1176 441 1176 441 1051 264 c 1,39,40
 1097 181 1097 181 1139.5 132.5 c 128,-1,41
 1182 84 1182 84 1226 84 c 0,42,43
 1278 84 1278 84 1317 125 c 128,-1,44
 1356 166 1356 166 1376.5 232 c 128,-1,45
 1397 298 1397 298 1407 357 c 128,-1,46
 1417 416 1417 416 1420 474 c 1,47,-1
 1484 474 l 1,48,49
 1479 378 1479 378 1461 294.5 c 128,-1,50
 1443 211 1443 211 1408 135.5 c 128,-1,51
 1373 60 1373 60 1312 16 c 128,-1,52
 1251 -28 1251 -28 1169 -28 c 0,53,54
 1031 -28 1031 -28 935 138 c 1,55,56
 864 63 864 63 766 17.5 c 128,-1,57
 668 -28 668 -28 560 -28 c 0,58,59
 478 -28 478 -28 406.5 -8 c 128,-1,60
 335 12 335 12 276 53 c 128,-1,61
 217 94 217 94 182.5 165 c 128,-1,62
 148 236 148 236 148 328 c 0,0,1
372 372 m 0,63,64
 372 232 372 232 435 134 c 128,-1,65
 498 36 498 36 608 36 c 0,66,67
 757 36 757 36 901 180 c 1,68,-1
 585 780 l 1,69,70
 478 704 478 704 425 610.5 c 128,-1,71
 372 517 372 517 372 372 c 0,63,64
590 1302 m 0,72,73
 590 1218 590 1218 619 1137 c 128,-1,74
 648 1056 648 1056 708 937 c 1,75,76
 742 962 742 962 759 976 c 128,-1,77
 776 990 776 990 801.5 1015 c 128,-1,78
 827 1040 827 1040 839 1062.5 c 128,-1,79
 851 1085 851 1085 860.5 1117.5 c 128,-1,80
 870 1150 870 1150 870 1188 c 0,81,82
 870 1303 870 1303 829.5 1364.5 c 128,-1,83
 789 1426 789 1426 712 1426 c 0,84,85
 663 1426 663 1426 626.5 1388.5 c 128,-1,86
 590 1351 590 1351 590 1302 c 0,72,73
EndSplineSet
EndChar

StartChar: quotesingle
Encoding: 7 39 7
Width: 528
VWidth: 2078
Flags: W
HStem: 824 664<236 292>
VStem: 170 188<990.875 1474.27>
LayerCount: 3
Fore
SplineSet
170 1382 m 0
 170 1442 204 1488 264 1488 c 0
 324 1488 358 1442 358 1382 c 0
 358 1366 354 1318 348 1269 c 2
 292 824 l 1
 236 824 l 1
 180 1269 l 2
 174 1319 170 1366 170 1382 c 0
EndSplineSet
Validated: 19457
Layer: 2
SplineSet
170 1382 m 0,0,1
 170 1428 170 1428 195 1458 c 128,-1,2
 220 1488 220 1488 264 1488 c 128,-1,3
 308 1488 308 1488 333 1458 c 128,-1,4
 358 1428 358 1428 358 1382 c 0,5,6
 358 1351 358 1351 348 1269 c 2,7,-1
 292 824 l 1,8,-1
 236 824 l 1,9,-1
 180 1269 l 2,10,11
 170 1352 170 1352 170 1382 c 0,0,1
EndSplineSet
EndChar

StartChar: parenleft
Encoding: 8 40 8
Width: 780
VWidth: 2078
Flags: W
HStem: -560 21G<545 703.778> 1469 20G<545 704.605>
VStem: 144 170<138.724 789.643>
LayerCount: 3
Fore
SplineSet
144 464 m 0
 144 936 404 1259 686 1489 c 9
 726 1446 l 17
 426 1154 314 888 314 464 c 0
 314 40 426 -223 726 -515 c 9
 686 -560 l 17
 404 -330 144 -8 144 464 c 0
EndSplineSet
Validated: 19457
Layer: 2
SplineSet
144 464 m 0,0,1
 144 1047 144 1047 686 1489 c 1,2,-1
 726 1446 l 1,3,4
 501 1227 501 1227 407.5 1004.5 c 128,-1,5
 314 782 314 782 314 464 c 0,6,7
 314 147 314 147 407.5 -74.5 c 128,-1,8
 501 -296 501 -296 726 -515 c 1,9,-1
 686 -560 l 1,10,11
 596 -486 596 -486 521 -410.5 c 128,-1,12
 446 -335 446 -335 374 -236.5 c 128,-1,13
 302 -138 302 -138 253 -34 c 128,-1,14
 204 70 204 70 174 198.5 c 128,-1,15
 144 327 144 327 144 464 c 0,0,1
EndSplineSet
EndChar

StartChar: parenright
Encoding: 9 41 9
Width: 780
VWidth: 2078
Flags: W
HStem: -560 21G<75.3953 235> 1469 20G<76.2222 235>
VStem: 466 170<139.357 790.276>
LayerCount: 3
Fore
SplineSet
54 -517 m 17
 354 -225 466 41 466 465 c 0
 466 889 354 1152 54 1444 c 9
 94 1489 l 17
 376 1259 636 937 636 465 c 0
 636 -7 376 -330 94 -560 c 9
 54 -517 l 17
EndSplineSet
Validated: 19457
Layer: 2
SplineSet
54 -517 m 1,0,1
 279 -298 279 -298 372.5 -75.5 c 128,-1,2
 466 147 466 147 466 465 c 0,3,4
 466 782 466 782 372.5 1003.5 c 128,-1,5
 279 1225 279 1225 54 1444 c 1,6,-1
 94 1489 l 1,7,8
 184 1415 184 1415 259 1339.5 c 128,-1,9
 334 1264 334 1264 406 1165.5 c 128,-1,10
 478 1067 478 1067 527 963 c 128,-1,11
 576 859 576 859 606 730.5 c 128,-1,12
 636 602 636 602 636 465 c 0,13,14
 636 -118 636 -118 94 -560 c 1,15,-1
 54 -517 l 1,0,1
EndSplineSet
EndChar

StartChar: asterisk
Encoding: 10 42 10
Width: 1104
VWidth: 1606
Flags: W
HStem: 771 185<173.207 318.226 785.774 930.793> 978 118<482.139 525.996 578.004 621.861> 1118 185<173.207 318.226 785.774 930.793> 1468 20G<525.5 578.5>
VStem: 468 168<595.277 834.406 1013.01 1060.99 1239.59 1478.72> 526 52<790.126 977.996 1096 1283.87>
LayerCount: 3
Fore
SplineSet
148 852 m 0xf4
 148 920 214 945 296 956 c 0
 342 962 405 982 460 1013 c 0
 460 1013 482 1024 482 1037 c 0
 482 1050 460 1061 460 1061 c 0
 405 1092 342 1112 296 1118 c 0
 214 1129 148 1154 148 1222 c 0
 148 1259 177 1303 230 1303 c 0
 278 1303 313 1270 353 1217 c 0
 382 1180 424 1143 477 1110 c 0
 484 1105 499 1096 508 1096 c 0
 521 1096 526 1101 526 1129 c 0xf4
 526 1191 512 1255 495 1299 c 0
 479 1336 468 1376 468 1393 c 0
 468 1446 499 1488 552 1488 c 0
 605 1488 636 1446 636 1393 c 0xf8
 636 1376 625 1336 609 1299 c 0
 592 1255 578 1191 578 1129 c 0
 578 1101 583 1096 596 1096 c 0
 605 1096 620 1105 627 1110 c 0
 680 1143 722 1180 751 1217 c 0
 791 1270 826 1303 874 1303 c 0
 927 1303 956 1259 956 1222 c 0
 956 1154 890 1129 808 1118 c 0
 762 1112 699 1092 644 1061 c 0
 644 1061 622 1050 622 1037 c 0
 622 1024 644 1013 644 1013 c 0
 699 982 762 962 808 956 c 0
 890 945 956 920 956 852 c 0
 956 815 927 771 874 771 c 0
 826 771 791 804 751 857 c 0
 722 894 680 931 627 964 c 0
 620 969 605 978 596 978 c 0
 583 978 578 973 578 945 c 0xf4
 578 883 592 819 609 775 c 0
 625 738 636 698 636 681 c 0
 636 628 605 586 552 586 c 0
 499 586 468 628 468 681 c 0xf8
 468 698 479 738 495 775 c 0
 512 819 526 883 526 945 c 0
 526 973 521 978 508 978 c 0
 499 978 484 969 477 964 c 0
 424 931 382 894 353 857 c 0
 313 804 278 771 230 771 c 0
 177 771 148 815 148 852 c 0xf4
EndSplineSet
Validated: 19457
Layer: 2
SplineSet
148 852 m 0,0,1
 148 936 148 936 296 956 c 0,2,3
 378 967 378 967 460 1013 c 1,4,5
 482 1024 482 1024 482 1037 c 0,6,7
 482 1043 482 1043 476.5 1049 c 128,-1,8
 471 1055 471 1055 465.5 1058 c 2,9,-1
 460 1061 l 1,10,11
 378 1107 378 1107 296 1118 c 0,12,13
 148 1138 148 1138 148 1222 c 0,14,15
 148 1253 148 1253 170.5 1278 c 128,-1,16
 193 1303 193 1303 230 1303 c 0,17,18
 264 1303 264 1303 292 1282 c 128,-1,19
 320 1261 320 1261 353 1217 c 1,20,21
 399 1159 399 1159 477 1110 c 1,22,23
 497 1096 497 1096 508 1096 c 0,24,25
 518 1096 518 1096 522 1102.5 c 128,-1,26
 526 1109 526 1109 526 1129 c 0,27,28
 526 1219 526 1219 495 1299 c 1,29,30
 468 1361 468 1361 468 1393 c 0,31,32
 468 1434 468 1434 490.5 1461 c 128,-1,33
 513 1488 513 1488 552 1488 c 128,-1,34
 591 1488 591 1488 613.5 1461 c 128,-1,35
 636 1434 636 1434 636 1393 c 0,36,37
 636 1361 636 1361 609 1299 c 1,38,39
 578 1219 578 1219 578 1129 c 0,40,41
 578 1109 578 1109 582 1102.5 c 128,-1,42
 586 1096 586 1096 596 1096 c 0,43,44
 607 1096 607 1096 627 1110 c 1,45,46
 705 1159 705 1159 751 1217 c 1,47,48
 784 1261 784 1261 812 1282 c 128,-1,49
 840 1303 840 1303 874 1303 c 0,50,51
 911 1303 911 1303 933.5 1278 c 128,-1,52
 956 1253 956 1253 956 1222 c 0,53,54
 956 1138 956 1138 808 1118 c 0,55,56
 726 1107 726 1107 644 1061 c 1,57,58
 622 1050 622 1050 622 1037 c 0,59,60
 622 1031 622 1031 627.5 1025 c 128,-1,61
 633 1019 633 1019 638.5 1016 c 2,62,-1
 644 1013 l 1,63,64
 726 967 726 967 808 956 c 0,65,66
 956 936 956 936 956 852 c 0,67,68
 956 821 956 821 933.5 796 c 128,-1,69
 911 771 911 771 874 771 c 0,70,71
 840 771 840 771 812 792 c 128,-1,72
 784 813 784 813 751 857 c 1,73,74
 705 915 705 915 627 964 c 1,75,76
 607 978 607 978 596 978 c 0,77,78
 586 978 586 978 582 971.5 c 128,-1,79
 578 965 578 965 578 945 c 0,80,81
 578 855 578 855 609 775 c 1,82,83
 636 713 636 713 636 681 c 0,84,85
 636 640 636 640 613.5 613 c 128,-1,86
 591 586 591 586 552 586 c 128,-1,87
 513 586 513 586 490.5 613 c 128,-1,88
 468 640 468 640 468 681 c 0,89,90
 468 713 468 713 495 775 c 1,91,92
 526 855 526 855 526 945 c 0,93,94
 526 965 526 965 522 971.5 c 128,-1,95
 518 978 518 978 508 978 c 0,96,97
 497 978 497 978 477 964 c 1,98,99
 399 915 399 915 353 857 c 1,100,101
 320 813 320 813 292 792 c 128,-1,102
 264 771 264 771 230 771 c 0,103,104
 193 771 193 771 170.5 796 c 128,-1,105
 148 821 148 821 148 852 c 0,0,1
EndSplineSet
EndChar

StartChar: plus
Encoding: 11 43 11
Width: 1152
VWidth: 2078
Flags: W
HStem: 0 21G<522 630> 466 96<62 522 630 1090> 1008 20G<522 630>
VStem: 522 108<0 466 562 1028>
LayerCount: 3
Fore
SplineSet
62 466 m 1
 62 562 l 1
 522 562 l 1
 522 1028 l 1
 630 1028 l 1
 630 562 l 1
 1090 562 l 1
 1090 466 l 1
 630 466 l 1
 630 0 l 1
 522 0 l 1
 522 466 l 1
 62 466 l 1
EndSplineSet
Validated: 19457
Layer: 2
SplineSet
62 466 m 1,0,-1
 62 562 l 1,1,-1
 522 562 l 1,2,-1
 522 1028 l 1,3,-1
 630 1028 l 1,4,-1
 630 562 l 1,5,-1
 1090 562 l 1,6,-1
 1090 466 l 1,7,-1
 630 466 l 1,8,-1
 630 0 l 1,9,-1
 522 0 l 1,10,-1
 522 466 l 1,11,-1
 62 466 l 1,0,-1
EndSplineSet
EndChar

StartChar: comma
Encoding: 12 44 12
Width: 528
VWidth: 2078
Flags: W
HStem: 38 208<203.443 345.812>
VStem: 346 68<-144.183 37.9628>
LayerCount: 3
Fore
SplineSet
104 -383 m 1
 180 -338 346 -232 346 -1 c 0
 346 26 335 38 314 38 c 0
 302 38 294 35 282 27 c 0
 273 22 260 16 248 16 c 0
 197 16 133 41 133 132 c 0
 133 199 192 246 252 246 c 0
 300 246 341 227 373 185 c 0
 414 131 414 62 414 18 c 0
 414 -62 374 -292 129 -424 c 1
 104 -383 l 1
EndSplineSet
Validated: 19457
Layer: 2
SplineSet
104 -383 m 5,0,1
 135 -364 135 -364 159 -347.5 c 128,-1,2
 183 -331 183 -331 221 -295.5 c 128,-1,3
 259 -260 259 -260 283.5 -222 c 128,-1,4
 308 -184 308 -184 327 -125.5 c 128,-1,5
 346 -67 346 -67 346 -1 c 0,6,7
 346 38 346 38 314 38 c 0,8,9
 298 38 298 38 282 27 c 1,10,11
 262 16 262 16 248 16 c 0,12,13
 202 16 202 16 167.5 43 c 128,-1,14
 133 70 133 70 133 132 c 0,15,16
 133 181 133 181 169 213.5 c 128,-1,17
 205 246 205 246 252 246 c 0,18,19
 327 246 327 246 373 185 c 0,20,21
 414 131 414 131 414 18 c 0,22,23
 414 -11 414 -11 408.5 -46.5 c 128,-1,24
 403 -82 403 -82 384 -134 c 128,-1,25
 365 -186 365 -186 335.5 -234.5 c 128,-1,26
 306 -283 306 -283 252.5 -335 c 128,-1,27
 199 -387 199 -387 129 -424 c 1,28,-1
 104 -383 l 5,0,1
EndSplineSet
EndChar

StartChar: hyphen
Encoding: 13 45 13
Width: 900
VWidth: 2078
Flags: W
HStem: 346 132<136 764>
VStem: 136 628<346 478>
LayerCount: 3
Fore
SplineSet
136 346 m 1
 136 478 l 1
 764 478 l 1
 764 346 l 1
 136 346 l 1
EndSplineSet
Validated: 19457
Layer: 2
SplineSet
136 346 m 1,0,-1
 136 478 l 1,1,-1
 764 478 l 1,2,-1
 764 346 l 1,3,-1
 136 346 l 1,0,-1
EndSplineSet
EndChar

StartChar: period
Encoding: 14 46 14
Width: 528
VWidth: 2078
Flags: W
HStem: -24 256<166.773 361.227>
VStem: 136 256<6.77267 201.227>
LayerCount: 3
Fore
SplineSet
136 104 m 0
 136 176 192 232 264 232 c 0
 336 232 392 176 392 104 c 0
 392 32 336 -24 264 -24 c 0
 192 -24 136 32 136 104 c 0
EndSplineSet
Validated: 19457
Layer: 2
SplineSet
136 104 m 128,-1,1
 136 158 136 158 173 195 c 128,-1,2
 210 232 210 232 264 232 c 128,-1,3
 318 232 318 232 355 195 c 128,-1,4
 392 158 392 158 392 104 c 128,-1,5
 392 50 392 50 355 13 c 128,-1,6
 318 -24 318 -24 264 -24 c 128,-1,7
 210 -24 210 -24 173 13 c 128,-1,0
 136 50 136 50 136 104 c 128,-1,1
EndSplineSet
EndChar

StartChar: slash
Encoding: 15 47 15
Width: 722
VWidth: 2078
Flags: W
HStem: -468 21G<88 194.606> 1440 20G<527.394 634>
VStem: 88 546
DStem2: 88 -468 190 -468 0.224417 0.974493<22.8905 1978.46>
LayerCount: 3
Fore
SplineSet
88 -468 m 1
 532 1460 l 1
 634 1460 l 1
 190 -468 l 1
 88 -468 l 1
EndSplineSet
Validated: 19457
Layer: 2
SplineSet
88 -468 m 1,0,-1
 532 1460 l 1,1,-1
 634 1460 l 1,2,-1
 190 -468 l 1,3,-1
 88 -468 l 1,0,-1
EndSplineSet
Substitution2: "'frac' Diagonal Fractions-1" fraction
EndChar

StartChar: zero
Encoding: 16 48 16
Width: 1176
VWidth: 2078
Flags: W
HStem: -28 64<477.91 674.09> 1424 64<477.91 674.09>
VStem: 84 204<434.382 1025.62> 864 204<434.382 1025.62>
LayerCount: 3
Fore
SplineSet
84 730 m 0
 84 1070 260 1488 576 1488 c 0
 892 1488 1068 1070 1068 730 c 0
 1068 390 892 -28 576 -28 c 0
 260 -28 84 390 84 730 c 0
288 730 m 0
 288 390 364 36 576 36 c 0
 788 36 864 390 864 730 c 0
 864 1070 788 1424 576 1424 c 0
 364 1424 288 1070 288 730 c 0
EndSplineSet
Validated: 19457
Layer: 2
SplineSet
84 730 m 128,-1,1
 84 860 84 860 117.5 992 c 128,-1,2
 151 1124 151 1124 211 1236 c 128,-1,3
 271 1348 271 1348 367 1418 c 128,-1,4
 463 1488 463 1488 576 1488 c 128,-1,5
 689 1488 689 1488 785 1418 c 128,-1,6
 881 1348 881 1348 941 1236 c 128,-1,7
 1001 1124 1001 1124 1034.5 992 c 128,-1,8
 1068 860 1068 860 1068 730 c 128,-1,9
 1068 600 1068 600 1034.5 468 c 128,-1,10
 1001 336 1001 336 941 224 c 128,-1,11
 881 112 881 112 785 42 c 128,-1,12
 689 -28 689 -28 576 -28 c 128,-1,13
 463 -28 463 -28 367 42 c 128,-1,14
 271 112 271 112 211 224 c 128,-1,15
 151 336 151 336 117.5 468 c 128,-1,0
 84 600 84 600 84 730 c 128,-1,1
288 730 m 128,-1,17
 288 624 288 624 297.5 527 c 128,-1,18
 307 430 307 430 328.5 339 c 128,-1,19
 350 248 350 248 382.5 182 c 128,-1,20
 415 116 415 116 464.5 76 c 128,-1,21
 514 36 514 36 576 36 c 128,-1,22
 638 36 638 36 687.5 76 c 128,-1,23
 737 116 737 116 769.5 182 c 128,-1,24
 802 248 802 248 823.5 339 c 128,-1,25
 845 430 845 430 854.5 527 c 128,-1,26
 864 624 864 624 864 730 c 128,-1,27
 864 836 864 836 854.5 933 c 128,-1,28
 845 1030 845 1030 823.5 1121 c 128,-1,29
 802 1212 802 1212 769.5 1278 c 128,-1,30
 737 1344 737 1344 687.5 1384 c 128,-1,31
 638 1424 638 1424 576 1424 c 128,-1,32
 514 1424 514 1424 464.5 1384 c 128,-1,33
 415 1344 415 1344 382.5 1278 c 128,-1,34
 350 1212 350 1212 328.5 1121 c 128,-1,35
 307 1030 307 1030 297.5 933 c 128,-1,16
 288 836 288 836 288 730 c 128,-1,17
EndSplineSet
Substitution2: "'onum' Oldstyle Figures-1" zerooldstyle
Substitution2: "'dnom' Denominators-1" zero.dnom
Substitution2: "'subs' Subscript Forms-1" zeroinferior
Substitution2: "'sups' Superscript Forms-1" zerosuperior
AlternateSubs2: "'aalt' Access All Alternates-1" zerooldstyle
EndChar

StartChar: one
Encoding: 17 49 17
Width: 1176
VWidth: 2078
Flags: W
HStem: 0 64<210 473.031 678.969 942> 1336 64<210 471.922> 1440 20G<568 668>
VStem: 484 184<69.1875 1330.81>
LayerCount: 3
Fore
SplineSet
210 0 m 1
 210 64 l 1
 406 64 l 2
 458 64 484 92 484 144 c 2
 484 1256 l 2
 484 1308 458 1336 406 1336 c 2
 210 1336 l 1
 210 1400 l 1
 342 1406 512 1428 624 1460 c 1
 668 1460 l 1
 668 144 l 2
 668 92 694 64 746 64 c 2
 942 64 l 1
 942 0 l 1
 210 0 l 1
EndSplineSet
Validated: 19457
Layer: 2
SplineSet
210 0 m 1,0,-1
 210 64 l 1,1,-1
 406 64 l 2,2,3
 484 64 484 64 484 144 c 2,4,-1
 484 1256 l 2,5,6
 484 1336 484 1336 406 1336 c 2,7,-1
 210 1336 l 1,8,-1
 210 1400 l 1,9,10
 453 1411 453 1411 624 1460 c 1,11,-1
 668 1460 l 1,12,-1
 668 144 l 2,13,14
 668 64 668 64 746 64 c 2,15,-1
 942 64 l 1,16,-1
 942 0 l 1,17,-1
 210 0 l 1,0,-1
EndSplineSet
Substitution2: "'onum' Oldstyle Figures-1" oneoldstyle
Substitution2: "'dnom' Denominators-1" one.dnom
Substitution2: "'subs' Subscript Forms-1" oneinferior
Substitution2: "'sups' Superscript Forms-1" onesuperior
AlternateSubs2: "'aalt' Access All Alternates-1" onesuperior oneoldstyle
EndChar

StartChar: two
Encoding: 18 50 18
Width: 1176
VWidth: 2078
Flags: W
HStem: 0 176<310 888.12> 880 213<232.647 383.353> 1424 64<389.82 644.324>
VStem: 136 96<1036.51 1276.02> 780 204<918.367 1286.49>
DStem2: 903 260 1018 464 0.190417 0.981703<-80.2347 208.455>
LayerCount: 3
Fore
SplineSet
136 1090 m 0
 136 1294 276 1488 552 1488 c 0
 808 1488 984 1332 984 1107 c 0
 984 876 774 670 569 478 c 0
 441 358 350 270 305 192 c 9
 310 176 l 25
 787 176 l 18
 859 176 892 205 903 260 c 10
 946 464 l 25
 1018 464 l 25
 928 0 l 25
 142 0 l 25
 142 48 l 17
 206 175 296 281 442 448 c 0
 624 656 780 848 780 1095 c 0
 780 1293 684 1424 528 1424 c 0
 325 1424 232 1267 232 1138 c 0
 232 1114 247 1093 268 1093 c 0
 283 1093 289 1094 304 1100 c 0
 320 1107 331 1111 347 1111 c 0
 415 1111 450 1061 450 1008 c 0
 450 930 393 880 317 880 c 0
 205 880 136 980 136 1090 c 0
EndSplineSet
Validated: 19457
Layer: 2
SplineSet
136 1090 m 0,0,1
 136 1168 136 1168 163 1238.5 c 128,-1,2
 190 1309 190 1309 240 1365 c 128,-1,3
 290 1421 290 1421 371 1454.5 c 128,-1,4
 452 1488 452 1488 552 1488 c 0,5,6
 744 1488 744 1488 864 1382 c 128,-1,7
 984 1276 984 1276 984 1107 c 0,8,9
 984 1040 984 1040 959 970 c 128,-1,10
 934 900 934 900 899 842.5 c 128,-1,11
 864 785 864 785 802 714 c 128,-1,12
 740 643 740 643 692.5 596 c 128,-1,13
 645 549 645 549 569 478 c 0,14,15
 456 372 456 372 396 308.5 c 128,-1,16
 336 245 336 245 305 192 c 1,17,-1
 310 176 l 1,18,-1
 787 176 l 2,19,20
 840 176 840 176 867.5 197 c 128,-1,21
 895 218 895 218 903 260 c 2,22,-1
 946 464 l 1,23,-1
 1018 464 l 1,24,-1
 928 0 l 1,25,-1
 142 0 l 1,26,-1
 142 48 l 1,27,28
 186 135 186 135 250.5 219 c 128,-1,29
 315 303 315 303 442 448 c 0,30,31
 525 542 525 542 574 605 c 128,-1,32
 623 668 623 668 676.5 753 c 128,-1,33
 730 838 730 838 755 922 c 128,-1,34
 780 1006 780 1006 780 1095 c 0,35,36
 780 1245 780 1245 712 1334.5 c 128,-1,37
 644 1424 644 1424 528 1424 c 0,38,39
 455 1424 455 1424 396.5 1398 c 128,-1,40
 338 1372 338 1372 303.5 1329.5 c 128,-1,41
 269 1287 269 1287 250.5 1237.5 c 128,-1,42
 232 1188 232 1188 232 1138 c 0,43,44
 232 1120 232 1120 242.5 1106.5 c 128,-1,45
 253 1093 253 1093 268 1093 c 0,46,47
 286 1093 286 1093 304 1100 c 0,48,49
 329 1111 329 1111 347 1111 c 0,50,51
 395 1111 395 1111 422.5 1081 c 128,-1,52
 450 1051 450 1051 450 1008 c 0,53,54
 450 950 450 950 412.5 915 c 128,-1,55
 375 880 375 880 317 880 c 0,56,57
 236 880 236 880 186 942 c 128,-1,58
 136 1004 136 1004 136 1090 c 0,0,1
EndSplineSet
Substitution2: "'onum' Oldstyle Figures-1" twooldstyle
Substitution2: "'dnom' Denominators-1" two.dnom
Substitution2: "'subs' Subscript Forms-1" twoinferior
Substitution2: "'sups' Superscript Forms-1" twosuperior
AlternateSubs2: "'aalt' Access All Alternates-1" twosuperior twooldstyle
EndChar

StartChar: three
Encoding: 19 51 19
Width: 1176
VWidth: 2078
Flags: W
HStem: -28 64<389.96 676.432> 282 224<258.252 386.931> 718 98<339.24 588.321> 740 64<409.041 685.979> 1424 64<400.154 672.642>
VStem: 128 124<157.117 358> 170 124<1111 1315.31> 820 180<964.051 1289.76> 836 204<201.989 563.143>
LayerCount: 3
Fore
SplineSet
128 300 m 0xdc80
 128 416 199 506 292 506 c 0
 362 506 406 462 406 400 c 0
 406 335 380 298 321 282 c 0
 289 273 252 259 252 218 c 0
 252 128 389 36 548 36 c 0
 740 36 836 196 836 376 c 0
 836 572 770 740 590 740 c 0xdc80
 554 740 532 738 499 730 c 0
 466 722 430 718 408 718 c 0
 376 718 339 731 339 767 c 0
 339 803 376 816 408 816 c 0xec80
 430 816 466 814 498 809 c 0
 530 805 554 804 590 804 c 0
 701 804 820 929 820 1106 c 0
 820 1292 714 1424 546 1424 c 0
 411 1424 294 1352 294 1262 c 0
 294 1216 325 1200 365 1183 c 0
 404 1166 449 1136 449 1073 c 0
 449 1009 404 972 347 972 c 0
 248 972 170 1056 170 1166 c 0
 170 1337 330 1488 573 1488 c 0
 821 1488 1000 1337 1000 1113 c 0xdb
 1000 932 830 822 712 782 c 9
 712 767 l 17
 898 722 1040 591 1040 387 c 0
 1040 122 809 -28 556 -28 c 0
 342 -28 128 104 128 300 c 0xdc80
EndSplineSet
Validated: 19457
Layer: 2
SplineSet
128 300 m 0,0,1
 128 387 128 387 175 446.5 c 128,-1,2
 222 506 222 506 292 506 c 0,3,4
 344 506 344 506 375 476.5 c 128,-1,5
 406 447 406 447 406 400 c 0,6,7
 406 305 406 305 321 282 c 0,8,9
 252 263 252 263 252 218 c 0,10,11
 252 149 252 149 341.5 92.5 c 128,-1,12
 431 36 431 36 548 36 c 0,13,14
 685 36 685 36 760.5 134 c 128,-1,15
 836 232 836 232 836 376 c 0,16,17
 836 452 836 452 822.5 516 c 128,-1,18
 809 580 809 580 781 631 c 128,-1,19
 753 682 753 682 704 711 c 128,-1,20
 655 740 655 740 590 740 c 0,21,22
 540 740 540 740 499 730 c 0,23,24
 450 718 450 718 408 718 c 0,25,26
 380 718 380 718 359.5 730 c 128,-1,27
 339 742 339 742 339 767 c 128,-1,28
 339 792 339 792 359.5 804 c 128,-1,29
 380 816 380 816 408 816 c 0,30,31
 453 816 453 816 498 809 c 1,32,33
 538 804 538 804 590 804 c 0,34,35
 677 804 677 804 748.5 891 c 128,-1,36
 820 978 820 978 820 1106 c 0,37,38
 820 1247 820 1247 745.5 1335.5 c 128,-1,39
 671 1424 671 1424 546 1424 c 0,40,41
 444 1424 444 1424 369 1376.5 c 128,-1,42
 294 1329 294 1329 294 1262 c 0,43,44
 294 1231 294 1231 311.5 1214.5 c 128,-1,45
 329 1198 329 1198 365 1183 c 0,46,47
 449 1146 449 1146 449 1073 c 0,48,49
 449 1026 449 1026 420 999 c 128,-1,50
 391 972 391 972 347 972 c 0,51,52
 273 972 273 972 221.5 1028 c 128,-1,53
 170 1084 170 1084 170 1166 c 0,54,55
 170 1298 170 1298 283 1393 c 128,-1,56
 396 1488 396 1488 573 1488 c 0,57,58
 760 1488 760 1488 880 1384 c 128,-1,59
 1000 1280 1000 1280 1000 1113 c 0,60,61
 1000 1049 1000 1049 972.5 991.5 c 128,-1,62
 945 934 945 934 899.5 894 c 128,-1,63
 854 854 854 854 807 826 c 128,-1,64
 760 798 760 798 712 782 c 1,65,-1
 712 767 l 1,66,67
 858 732 858 732 949 633 c 128,-1,68
 1040 534 1040 534 1040 387 c 0,69,70
 1040 259 1040 259 971 163 c 128,-1,71
 902 67 902 67 793.5 19.5 c 128,-1,72
 685 -28 685 -28 556 -28 c 0,73,74
 448 -28 448 -28 350.5 12.5 c 128,-1,75
 253 53 253 53 190.5 129.5 c 128,-1,76
 128 206 128 206 128 300 c 0,0,1
EndSplineSet
Substitution2: "'onum' Oldstyle Figures-1" threeoldstyle
Substitution2: "'dnom' Denominators-1" three.dnom
Substitution2: "'subs' Subscript Forms-1" threeinferior
Substitution2: "'sups' Superscript Forms-1" threesuperior
AlternateSubs2: "'aalt' Access All Alternates-1" threesuperior threeoldstyle
EndChar

StartChar: four
Encoding: 20 52 20
Width: 1176
VWidth: 2078
Flags: W
HStem: 0 64<326 589.031 794.969 1058> 416 64<186 600 784 1058> 1440 20G<707.368 784>
VStem: 600 184<69.1875 416 480 1138>
DStem2: 96 472 186 480 0.533993 0.845489<54.8233 832.228>
LayerCount: 3
Fore
SplineSet
96 416 m 1
 96 472 l 1
 720 1460 l 1
 784 1460 l 1
 784 480 l 1
 1058 480 l 1
 1058 416 l 1
 784 416 l 1
 784 144 l 2
 784 92 810 64 862 64 c 2
 1058 64 l 1
 1058 0 l 1
 326 0 l 1
 326 64 l 1
 522 64 l 2
 574 64 600 92 600 144 c 2
 600 416 l 1
 96 416 l 1
186 480 m 1
 600 480 l 1
 600 1138 l 1
 186 480 l 1
EndSplineSet
Validated: 19457
Layer: 2
SplineSet
96 416 m 1,0,-1
 96 472 l 1,1,-1
 720 1460 l 1,2,-1
 784 1460 l 1,3,-1
 784 480 l 1,4,-1
 1058 480 l 1,5,-1
 1058 416 l 1,6,-1
 784 416 l 1,7,-1
 784 144 l 2,8,9
 784 64 784 64 862 64 c 2,10,-1
 1058 64 l 1,11,-1
 1058 0 l 1,12,-1
 326 0 l 1,13,-1
 326 64 l 1,14,-1
 522 64 l 2,15,16
 600 64 600 64 600 144 c 2,17,-1
 600 416 l 1,18,-1
 96 416 l 1,0,-1
186 480 m 1,19,-1
 600 480 l 1,20,-1
 600 1138 l 1,21,-1
 186 480 l 1,19,-1
EndSplineSet
Substitution2: "'onum' Oldstyle Figures-1" fouroldstyle
Substitution2: "'dnom' Denominators-1" four.dnom
Substitution2: "'subs' Subscript Forms-1" fourinferior
Substitution2: "'sups' Superscript Forms-1" foursuperior
AlternateSubs2: "'aalt' Access All Alternates-1" foursuperior fouroldstyle
EndChar

StartChar: five
Encoding: 21 53 21
Width: 1176
VWidth: 2078
Flags: W
HStem: -28 64<359.976 642.556> 268 220<227.169 369.26> 862 64<409.834 660.107> 1210 176<343.466 739.92> 1444 20G<235.091 326>
VStem: 130 96<125.841 333> 230 72<858 1251> 826 204<258.77 690.487>
LayerCount: 3
Fore
SplineSet
130 268 m 0
 130 398 212 488 309 488 c 0
 397 488 440 426 440 364 c 0
 440 296 395 252 328 252 c 0
 308 252 300 254 284 261 c 0
 270 267 266 268 257 268 c 0
 240 268 226 261 226 234 c 0
 226 112 367 36 516 36 c 0
 717 36 826 232 826 459 c 0
 826 678 732 862 543 862 c 0
 424 862 340 800 274 697 c 9
 230 697 l 25
 230 1442 l 25
 286 1464 l 17
 366 1406 458 1386 590 1386 c 0
 726 1386 861 1431 945 1492 c 9
 981 1458 l 17
 864 1281 683 1210 534 1210 c 0
 452 1210 363 1224 302 1251 c 9
 302 858 l 25
 317 846 l 17
 392 900 478 926 574 926 c 0
 846 926 1030 771 1030 473 c 0
 1030 174 814 -28 506 -28 c 0
 302 -28 130 88 130 268 c 0
EndSplineSet
Validated: 19457
Layer: 2
SplineSet
130 268 m 0,0,1
 130 364 130 364 182.5 426 c 128,-1,2
 235 488 235 488 309 488 c 0,3,4
 371 488 371 488 405.5 451.5 c 128,-1,5
 440 415 440 415 440 364 c 128,-1,6
 440 313 440 313 409 282.5 c 128,-1,7
 378 252 378 252 328 252 c 0,8,9
 305 252 305 252 284 261 c 0,10,11
 268 268 268 268 257 268 c 0,12,13
 226 268 226 268 226 234 c 0,14,15
 226 146 226 146 312.5 91 c 128,-1,16
 399 36 399 36 516 36 c 0,17,18
 613 36 613 36 684.5 95 c 128,-1,19
 756 154 756 154 791 248.5 c 128,-1,20
 826 343 826 343 826 459 c 0,21,22
 826 571 826 571 795.5 660.5 c 128,-1,23
 765 750 765 750 699.5 806 c 128,-1,24
 634 862 634 862 543 862 c 0,25,26
 380 862 380 862 274 697 c 1,27,-1
 230 697 l 1,28,-1
 230 1442 l 1,29,-1
 286 1464 l 1,30,31
 345 1422 345 1422 416.5 1404 c 128,-1,32
 488 1386 488 1386 590 1386 c 0,33,34
 689 1386 689 1386 784.5 1415.5 c 128,-1,35
 880 1445 880 1445 945 1492 c 1,36,-1
 981 1458 l 1,37,38
 898 1333 898 1333 777 1271.5 c 128,-1,39
 656 1210 656 1210 534 1210 c 0,40,41
 395 1210 395 1210 302 1251 c 1,42,-1
 302 858 l 1,43,-1
 317 846 l 1,44,45
 428 926 428 926 574 926 c 0,46,47
 783 926 783 926 906.5 809 c 128,-1,48
 1030 692 1030 692 1030 473 c 0,49,50
 1030 250 1030 250 884 111 c 128,-1,51
 738 -28 738 -28 506 -28 c 0,52,53
 349 -28 349 -28 239.5 54 c 128,-1,54
 130 136 130 136 130 268 c 0,0,1
EndSplineSet
Substitution2: "'onum' Oldstyle Figures-1" fiveoldstyle
Substitution2: "'dnom' Denominators-1" five.dnom
Substitution2: "'subs' Subscript Forms-1" fiveinferior
Substitution2: "'sups' Superscript Forms-1" fivesuperior
AlternateSubs2: "'aalt' Access All Alternates-1" fiveoldstyle
EndChar

StartChar: six
Encoding: 22 54 22
Width: 1176
VWidth: 2078
Flags: W
HStem: -28 64<495.263 710.428> 832 64<495.353 706.955> 1424 64<559.27 771.12>
VStem: 130 190<736 1003.69> 800 158<1203 1379.75> 842 180<241.717 679.77>
LayerCount: 3
Fore
SplineSet
130 692 m 0xf4
 130 1136 362 1488 670 1488 c 0
 886 1488 958 1342 958 1244 c 0
 958 1162 902 1087 818 1087 c 0
 753 1087 720 1140 720 1182 c 0
 720 1221 735 1258 765 1283 c 0
 788 1302 800 1314 800 1343 c 0xf8
 800 1393 730 1424 679 1424 c 0
 536 1424 422 1304 370 1156 c 0
 324 1026 320 834 320 736 c 9
 338 728 l 17
 380 810 502 896 621 896 c 0
 817 896 1022 758 1022 473 c 0
 1022 218 878 -28 602 -28 c 0
 338 -28 130 212 130 692 c 0xf4
335 437 m 0
 335 207 446 36 606 36 c 0
 753 36 842 189 842 454 c 0xf4
 842 681 753 832 606 832 c 0
 444 832 335 669 335 437 c 0
EndSplineSet
Validated: 19457
Layer: 2
SplineSet
130 692 m 0,0,1
 130 911 130 911 200 1093.5 c 128,-1,2
 270 1276 270 1276 394.5 1382 c 128,-1,3
 519 1488 519 1488 670 1488 c 0,4,5
 747 1488 747 1488 805.5 1464 c 128,-1,6
 864 1440 864 1440 895.5 1402 c 128,-1,7
 927 1364 927 1364 942.5 1324 c 128,-1,8
 958 1284 958 1284 958 1244 c 0,9,10
 958 1180 958 1180 918.5 1133.5 c 128,-1,11
 879 1087 879 1087 818 1087 c 0,12,13
 773 1087 773 1087 746.5 1117 c 128,-1,14
 720 1147 720 1147 720 1182 c 0,15,16
 720 1246 720 1246 765 1283 c 0,17,18
 785 1299 785 1299 792.5 1311 c 128,-1,19
 800 1323 800 1323 800 1343 c 0,20,21
 800 1378 800 1378 761 1401 c 128,-1,22
 722 1424 722 1424 679 1424 c 0,23,24
 576 1424 576 1424 493.5 1348.5 c 128,-1,25
 411 1273 411 1273 370 1156 c 0,26,27
 320 1015 320 1015 320 736 c 1,28,-1
 338 728 l 1,29,30
 371 793 371 793 453.5 844.5 c 128,-1,31
 536 896 536 896 621 896 c 0,32,33
 696 896 696 896 766.5 869.5 c 128,-1,34
 837 843 837 843 894.5 792 c 128,-1,35
 952 741 952 741 987 658.5 c 128,-1,36
 1022 576 1022 576 1022 473 c 0,37,38
 1022 376 1022 376 994.5 287 c 128,-1,39
 967 198 967 198 916 127 c 128,-1,40
 865 56 865 56 783.5 14 c 128,-1,41
 702 -28 702 -28 602 -28 c 0,42,43
 522 -28 522 -28 451.5 0.5 c 128,-1,44
 381 29 381 29 322 87.5 c 128,-1,45
 263 146 263 146 220 230.5 c 128,-1,46
 177 315 177 315 153.5 433 c 128,-1,47
 130 551 130 551 130 692 c 0,0,1
335 437 m 0,48,49
 335 263 335 263 411 149.5 c 128,-1,50
 487 36 487 36 606 36 c 0,51,52
 717 36 717 36 779.5 146 c 128,-1,53
 842 256 842 256 842 454 c 0,54,55
 842 626 842 626 778.5 729 c 128,-1,56
 715 832 715 832 606 832 c 0,57,58
 485 832 485 832 410 722 c 128,-1,59
 335 612 335 612 335 437 c 0,48,49
EndSplineSet
Substitution2: "'onum' Oldstyle Figures-1" sixoldstyle
Substitution2: "'dnom' Denominators-1" six.dnom
Substitution2: "'subs' Subscript Forms-1" sixinferior
Substitution2: "'sups' Superscript Forms-1" sixsuperior
AlternateSubs2: "'aalt' Access All Alternates-1" sixoldstyle
EndChar

StartChar: seven
Encoding: 23 55 23
Width: 1176
Flags: W
HStem: -28 21G<511 587.5> 1284 176<346.167 939>
VStem: 416 256<5.82148 348.668>
DStem2: 168 980 240 980 0.192532 0.981291<13.8623 321.902 552.919 644.05> 692 848 800 884 0.479458 0.877565<-171.457 501.044>
LayerCount: 3
Fore
SplineSet
168 980 m 25
 292 1612 l 25
 364 1612 l 17
 353 1558 346 1519 346 1508 c 0
 346 1471 363 1460 410 1460 c 10
 1077 1460 l 17
 1077 1391 l 1
 800 884 l 2
 674 654 672 352 672 184 c 0
 672 30 626 -28 549 -28 c 0
 473 -28 416 16 416 120 c 0
 416 340 586 661 692 848 c 2
 939 1284 l 1
 385 1284 l 2
 339 1284 299 1273 286 1207 c 10
 240 980 l 25
 168 980 l 25
EndSplineSet
Validated: 19457
Layer: 2
SplineSet
168 980 m 1,0,-1
 292 1612 l 1,1,-1
 364 1612 l 1,2,3
 346 1524 346 1524 346 1508 c 0,4,5
 346 1481 346 1481 360 1470.5 c 128,-1,6
 374 1460 374 1460 410 1460 c 2,7,-1
 1077 1460 l 1,8,-1
 1077 1391 l 1,9,-1
 800 884 l 2,10,11
 756 803 756 803 727.5 706.5 c 128,-1,12
 699 610 699 610 688.5 505.5 c 128,-1,13
 678 401 678 401 675 337 c 128,-1,14
 672 273 672 273 672 184 c 0,15,16
 672 -28 672 -28 549 -28 c 0,17,18
 489 -28 489 -28 452.5 8.5 c 128,-1,19
 416 45 416 45 416 120 c 0,20,21
 416 361 416 361 692 848 c 2,22,-1
 939 1284 l 1,23,-1
 385 1284 l 2,24,25
 345 1284 345 1284 320 1268 c 128,-1,26
 295 1252 295 1252 286 1207 c 2,27,-1
 240 980 l 1,28,-1
 168 980 l 1,0,-1
EndSplineSet
Substitution2: "'onum' Oldstyle Figures-1" sevenoldstyle
Substitution2: "'dnom' Denominators-1" seven.dnom
Substitution2: "'subs' Subscript Forms-1" seveninferior
Substitution2: "'sups' Superscript Forms-1" sevensuperior
AlternateSubs2: "'aalt' Access All Alternates-1" sevenoldstyle
EndChar

StartChar: eight
Encoding: 24 56 24
Width: 1176
VWidth: 2078
Flags: W
HStem: -28 64<453.505 757.495> 1424 64<430.192 684.401>
VStem: 112 132<218.089 538.084> 154 102<1007.93 1251.05> 858 132<971.126 1277.86> 937 116<207.689 466.401>
LayerCount: 3
Fore
SplineSet
112 365 m 0xe4
 112 521 218 664 356 735 c 1
 356 747 l 1
 240 815 154 913 154 1082 c 0
 154 1307 363 1488 582 1488 c 0
 806 1488 990 1344 990 1131 c 0xd8
 990 981 870 849 768 778 c 1
 768 768 l 1
 920 708 1053 600 1053 393 c 0
 1053 132 832 -28 592 -28 c 0
 347 -28 112 120 112 365 c 0xe4
244 377 m 0xe4
 244 179 414 36 600 36 c 0
 801 36 937 165 937 330 c 0
 937 486 807 564 573 650 c 0
 521 669 463 691 414 715 c 1
 315 646 244 541 244 377 c 0xe4
256 1134 m 0xd8
 256 981 403 897 708 792 c 1
 810 878 858 987 858 1122 c 0
 858 1304 701 1424 560 1424 c 0
 392 1424 256 1278 256 1134 c 0xd8
EndSplineSet
Validated: 19457
Layer: 2
SplineSet
112 365 m 0,0,1
 112 479 112 479 180.5 579.5 c 128,-1,2
 249 680 249 680 356 735 c 1,3,-1
 356 747 l 1,4,5
 154 865 154 865 154 1082 c 0,6,7
 154 1191 154 1191 215 1285.5 c 128,-1,8
 276 1380 276 1380 374.5 1434 c 128,-1,9
 473 1488 473 1488 582 1488 c 0,10,11
 753 1488 753 1488 871.5 1388 c 128,-1,12
 990 1288 990 1288 990 1131 c 0,13,14
 990 1028 990 1028 924 934 c 128,-1,15
 858 840 858 840 768 778 c 1,16,-1
 768 768 l 1,17,18
 1053 656 1053 656 1053 393 c 0,19,20
 1053 298 1053 298 1015 217.5 c 128,-1,21
 977 137 977 137 912.5 84 c 128,-1,22
 848 31 848 31 765 1.5 c 128,-1,23
 682 -28 682 -28 592 -28 c 0,24,25
 467 -28 467 -28 359 18 c 128,-1,26
 251 64 251 64 181.5 155.5 c 128,-1,27
 112 247 112 247 112 365 c 0,0,1
244 377 m 0,28,29
 244 232 244 232 350.5 134 c 128,-1,30
 457 36 457 36 600 36 c 0,31,32
 749 36 749 36 843 120 c 128,-1,33
 937 204 937 204 937 330 c 0,34,35
 937 440 937 440 850.5 510 c 128,-1,36
 764 580 764 580 573 650 c 0,37,38
 469 688 469 688 414 715 c 1,39,40
 244 597 244 597 244 377 c 0,28,29
256 1134 m 0,41,42
 256 1024 256 1024 360.5 950 c 128,-1,43
 465 876 465 876 708 792 c 1,44,45
 858 918 858 918 858 1122 c 0,46,47
 858 1252 858 1252 765.5 1338 c 128,-1,48
 673 1424 673 1424 560 1424 c 0,49,50
 437 1424 437 1424 346.5 1334.5 c 128,-1,51
 256 1245 256 1245 256 1134 c 0,41,42
EndSplineSet
Substitution2: "'onum' Oldstyle Figures-1" eightoldstyle
Substitution2: "'dnom' Denominators-1" eight.dnom
Substitution2: "'subs' Subscript Forms-1" eightinferior
Substitution2: "'sups' Superscript Forms-1" eightsuperior
AlternateSubs2: "'aalt' Access All Alternates-1" eightoldstyle
EndChar

StartChar: nine
Encoding: 25 57 25
Width: 1176
VWidth: 2078
Flags: W
HStem: -28 64<380.88 592.73> 564 64<445.045 656.647> 1424 64<441.572 656.737>
VStem: 130 180<780.23 1218.28> 194 158<80.2473 257> 832 190<456.312 724>
LayerCount: 3
Fore
SplineSet
130 987 m 0xf4
 130 1242 274 1488 550 1488 c 0
 814 1488 1022 1248 1022 768 c 0
 1022 324 790 -28 482 -28 c 0
 266 -28 194 118 194 216 c 0
 194 298 250 373 334 373 c 0
 399 373 432 320 432 278 c 0
 432 239 417 202 387 177 c 0
 364 158 352 146 352 117 c 0xec
 352 67 422 36 473 36 c 0
 616 36 730 156 782 304 c 0
 828 434 832 626 832 724 c 9
 814 732 l 17
 772 650 650 564 531 564 c 0
 335 564 130 702 130 987 c 0xf4
310 1006 m 0xf4
 310 779 399 628 546 628 c 0
 708 628 817 791 817 1023 c 0
 817 1253 706 1424 546 1424 c 0
 399 1424 310 1271 310 1006 c 0xf4
EndSplineSet
Validated: 19457
Layer: 2
SplineSet
130 987 m 0,0,1
 130 1084 130 1084 157.5 1173 c 128,-1,2
 185 1262 185 1262 236 1333 c 128,-1,3
 287 1404 287 1404 368.5 1446 c 128,-1,4
 450 1488 450 1488 550 1488 c 0,5,6
 630 1488 630 1488 700.5 1459.5 c 128,-1,7
 771 1431 771 1431 830 1372.5 c 128,-1,8
 889 1314 889 1314 932 1229.5 c 128,-1,9
 975 1145 975 1145 998.5 1027 c 128,-1,10
 1022 909 1022 909 1022 768 c 0,11,12
 1022 549 1022 549 952 366.5 c 128,-1,13
 882 184 882 184 757.5 78 c 128,-1,14
 633 -28 633 -28 482 -28 c 0,15,16
 405 -28 405 -28 346.5 -4 c 128,-1,17
 288 20 288 20 256.5 58 c 128,-1,18
 225 96 225 96 209.5 136 c 128,-1,19
 194 176 194 176 194 216 c 0,20,21
 194 280 194 280 233.5 326.5 c 128,-1,22
 273 373 273 373 334 373 c 0,23,24
 379 373 379 373 405.5 343 c 128,-1,25
 432 313 432 313 432 278 c 0,26,27
 432 215 432 215 387 177 c 0,28,29
 367 161 367 161 359.5 149 c 128,-1,30
 352 137 352 137 352 117 c 0,31,32
 352 82 352 82 391 59 c 128,-1,33
 430 36 430 36 473 36 c 0,34,35
 576 36 576 36 658.5 111.5 c 128,-1,36
 741 187 741 187 782 304 c 0,37,38
 832 445 832 445 832 724 c 1,39,-1
 814 732 l 1,40,41
 781 667 781 667 698.5 615.5 c 128,-1,42
 616 564 616 564 531 564 c 0,43,44
 456 564 456 564 385.5 590.5 c 128,-1,45
 315 617 315 617 257.5 668 c 128,-1,46
 200 719 200 719 165 801.5 c 128,-1,47
 130 884 130 884 130 987 c 0,0,1
310 1006 m 0,48,49
 310 834 310 834 373.5 731 c 128,-1,50
 437 628 437 628 546 628 c 0,51,52
 667 628 667 628 742 738 c 128,-1,53
 817 848 817 848 817 1023 c 0,54,55
 817 1197 817 1197 741 1310.5 c 128,-1,56
 665 1424 665 1424 546 1424 c 0,57,58
 435 1424 435 1424 372.5 1314 c 128,-1,59
 310 1204 310 1204 310 1006 c 0,48,49
EndSplineSet
Substitution2: "'onum' Oldstyle Figures-1" nineoldstyle
Substitution2: "'dnom' Denominators-1" nine.dnom
Substitution2: "'subs' Subscript Forms-1" nineinferior
Substitution2: "'sups' Superscript Forms-1" ninesuperior
AlternateSubs2: "'aalt' Access All Alternates-1" nineoldstyle
EndChar

StartChar: less
Encoding: 28 60 28
Width: 1152
VWidth: 1882
Flags: W
HStem: -24 21G<985.633 1034> 1032 20G<985.633 1034>
VStem: 84 115<408.5 619.5>
DStem2: 84 562 199 514 0.886753 0.462244<79.7889 1058.39> 199 514 84 466 0.886753 -0.462244<0 978.598>
LayerCount: 3
Fore
SplineSet
84 466 m 1
 84 562 l 1
 1024 1052 l 1
 1068 964 l 1
 199 514 l 1
 1068 64 l 1
 1024 -24 l 1
 84 466 l 1
EndSplineSet
Validated: 19457
Layer: 2
SplineSet
84 466 m 1,0,-1
 84 562 l 1,1,-1
 1024 1052 l 1,2,-1
 1068 964 l 1,3,-1
 199 514 l 1,4,-1
 1068 64 l 1,5,-1
 1024 -24 l 1,6,-1
 84 466 l 1,0,-1
EndSplineSet
EndChar

StartChar: equal
Encoding: 29 61 29
Width: 1152
VWidth: 2078
Flags: W
HStem: 310 96<62 1090> 622 96<62 1090>
LayerCount: 3
Fore
SplineSet
62 310 m 1
 62 406 l 1
 1090 406 l 1
 1090 310 l 1
 62 310 l 1
62 622 m 1
 62 718 l 1
 1090 718 l 1
 1090 622 l 1
 62 622 l 1
EndSplineSet
Validated: 19457
Layer: 2
SplineSet
62 310 m 1,0,-1
 62 406 l 1,1,-1
 1090 406 l 1,2,-1
 1090 310 l 1,3,-1
 62 310 l 1,0,-1
62 622 m 1,4,-1
 62 718 l 1,5,-1
 1090 718 l 1,6,-1
 1090 622 l 1,7,-1
 62 622 l 1,4,-1
EndSplineSet
EndChar

StartChar: greater
Encoding: 30 62 30
Width: 1152
VWidth: 1882
Flags: W
HStem: -24 21G<118 166.367> 1032 20G<118 166.367>
VStem: 953 115<408.5 619.5>
DStem2: 128 1052 84 964 0.886753 -0.462244<1.66031 980.258> 84 64 128 -24 0.886753 0.462244<0 978.598>
LayerCount: 3
Fore
SplineSet
84 64 m 1
 953 514 l 1
 84 964 l 1
 128 1052 l 1
 1068 562 l 1
 1068 466 l 1
 128 -24 l 1
 84 64 l 1
EndSplineSet
Validated: 19457
Layer: 2
SplineSet
84 64 m 1,0,-1
 953 514 l 1,1,-1
 84 964 l 1,2,-1
 128 1052 l 1,3,-1
 1068 562 l 1,4,-1
 1068 466 l 1,5,-1
 128 -24 l 1,6,-1
 84 64 l 1,0,-1
EndSplineSet
EndChar

StartChar: question
Encoding: 31 63 31
Width: 852
VWidth: 2078
Flags: W
HStem: -24 256<198.773 393.227> 1424 64<266.668 523.036>
VStem: 88 152<1191 1361.56> 168 256<6.77267 201.227> 268 72<339 625.582> 700 80<950.035 1254.04>
LayerCount: 3
Fore
SplineSet
88 1231 m 0xec
 88 1375 230 1488 406 1488 c 0
 622 1488 780 1310 780 1086 c 0
 780 794 626 682 429 651 c 0
 378 643 340 602 340 538 c 10
 340 339 l 25
 268 339 l 25
 268 796 l 17
 320 793 360 793 378 793 c 0
 568 793 700 924 700 1095 c 0
 700 1270 571 1424 399 1424 c 0
 331 1424 240 1406 240 1348 c 0
 240 1322 249 1303 269 1286 c 0
 305 1255 321 1234 321 1197 c 0
 321 1136 276 1086 210 1086 c 0
 136 1086 88 1151 88 1231 c 0xec
168 104 m 0xd4
 168 176 224 232 296 232 c 0
 368 232 424 176 424 104 c 0
 424 32 368 -24 296 -24 c 0
 224 -24 168 32 168 104 c 0xd4
EndSplineSet
Validated: 19457
Layer: 2
SplineSet
88 1231 m 0,0,1
 88 1339 88 1339 181 1413.5 c 128,-1,2
 274 1488 274 1488 406 1488 c 0,3,4
 567 1488 567 1488 673.5 1371.5 c 128,-1,5
 780 1255 780 1255 780 1086 c 0,6,7
 780 706 780 706 429 651 c 0,8,9
 390 645 390 645 365 615 c 128,-1,10
 340 585 340 585 340 538 c 2,11,-1
 340 339 l 1,12,-1
 268 339 l 1,13,-1
 268 796 l 1,14,15
 320 793 320 793 378 793 c 0,16,17
 519 793 519 793 609.5 879 c 128,-1,18
 700 965 700 965 700 1095 c 0,19,20
 700 1229 700 1229 613 1326.5 c 128,-1,21
 526 1424 526 1424 399 1424 c 0,22,23
 337 1424 337 1424 288.5 1405.5 c 128,-1,24
 240 1387 240 1387 240 1348 c 0,25,26
 240 1311 240 1311 269 1286 c 128,-1,27
 298 1261 298 1261 309.5 1242.5 c 128,-1,28
 321 1224 321 1224 321 1197 c 0,29,30
 321 1150 321 1150 290 1118 c 128,-1,31
 259 1086 259 1086 210 1086 c 0,32,33
 156 1086 156 1086 122 1128 c 128,-1,34
 88 1170 88 1170 88 1231 c 0,0,1
168 104 m 128,-1,36
 168 158 168 158 205 195 c 128,-1,37
 242 232 242 232 296 232 c 128,-1,38
 350 232 350 232 387 195 c 128,-1,39
 424 158 424 158 424 104 c 128,-1,40
 424 50 424 50 387 13 c 128,-1,41
 350 -24 350 -24 296 -24 c 128,-1,42
 242 -24 242 -24 205 13 c 128,-1,35
 168 50 168 50 168 104 c 128,-1,36
EndSplineSet
EndChar

StartChar: at
Encoding: 32 64 32
Width: 1716
Flags: W
HStem: -400 72<677.87 1119.95> -12 64<1143.39 1337.44> -12 49<658.255 805.27> 759 79<789.275 989.609> 1204 64<752.579 1143.9>
VStem: 60 144<124.908 655.583> 456 146<109.154 508.63> 1008 116<61.6784 195> 1564 96<336.935 807.943>
LayerCount: 3
Fore
SplineSet
60 371 m 0xdf80
 60 977 549 1268 983 1268 c 0
 1360 1268 1660 968 1660 616 c 0
 1660 248 1464 -12 1212 -12 c 0xdf80
 1064 -12 1012 95 1008 195 c 9
 998 198 l 17
 957 106 849 -12 719 -12 c 0xbf80
 568 -12 456 99 456 288 c 0
 456 570 631 838 917 838 c 0
 1011 838 1077 744 1090 652 c 9
 1109 656 l 25
 1156 826 l 25
 1296 826 l 25
 1153 324 l 18
 1137 270 1124 215 1124 162 c 0
 1124 101 1139 52 1219 52 c 0
 1412 52 1564 270 1564 570 c 0
 1564 936 1289 1204 958 1204 c 0
 580 1204 204 907 204 387 c 0
 204 -85 546 -328 908 -328 c 0
 1164 -328 1365 -186 1467 -78 c 9
 1515 -141 l 17
 1410 -249 1196 -400 904 -400 c 0
 508 -400 60 -108 60 371 c 0xdf80
602 247 m 0
 602 147 629 37 723 37 c 0xbf80
 905 37 1037 365 1037 545 c 0
 1037 670 1001 759 899 759 c 0
 793 759 701 655 653 531 c 0
 614 429 602 362 602 247 c 0
EndSplineSet
Validated: 19457
Layer: 2
SplineSet
60 371 m 0,0,1
 60 547 60 547 114.5 696.5 c 128,-1,2
 169 846 169 846 260 949.5 c 128,-1,3
 351 1053 351 1053 470.5 1126 c 128,-1,4
 590 1199 590 1199 720 1233.5 c 128,-1,5
 850 1268 850 1268 983 1268 c 0,6,7
 1121 1268 1121 1268 1247 1215.5 c 128,-1,8
 1373 1163 1373 1163 1463 1074.5 c 128,-1,9
 1553 986 1553 986 1606.5 866 c 128,-1,10
 1660 746 1660 746 1660 616 c 0,11,12
 1660 343 1660 343 1531.5 165.5 c 128,-1,13
 1403 -12 1403 -12 1212 -12 c 0,14,15
 1110 -12 1110 -12 1060.5 48.5 c 128,-1,16
 1011 109 1011 109 1008 195 c 1,17,-1
 998 198 l 1,18,19
 963 118 963 118 886 53 c 128,-1,20
 809 -12 809 -12 719 -12 c 0,21,22
 603 -12 603 -12 529.5 68.5 c 128,-1,23
 456 149 456 149 456 288 c 0,24,25
 456 431 456 431 510.5 555 c 128,-1,26
 565 679 565 679 672 758.5 c 128,-1,27
 779 838 779 838 917 838 c 0,28,29
 984 838 984 838 1032 782 c 128,-1,30
 1080 726 1080 726 1090 652 c 1,31,-1
 1109 656 l 1,32,-1
 1156 826 l 1,33,-1
 1296 826 l 1,34,-1
 1153 324 l 1,35,36
 1124 226 1124 226 1124 162 c 0,37,38
 1124 109 1124 109 1144 80.5 c 128,-1,39
 1164 52 1164 52 1219 52 c 0,40,41
 1365 52 1365 52 1464.5 199.5 c 128,-1,42
 1564 347 1564 347 1564 570 c 0,43,44
 1564 704 1564 704 1515.5 823 c 128,-1,45
 1467 942 1467 942 1385 1025 c 128,-1,46
 1303 1108 1303 1108 1192 1156 c 128,-1,47
 1081 1204 1081 1204 958 1204 c 0,48,49
 815 1204 815 1204 680.5 1148.5 c 128,-1,50
 546 1093 546 1093 439.5 991.5 c 128,-1,51
 333 890 333 890 268.5 732.5 c 128,-1,52
 204 575 204 575 204 387 c 0,53,54
 204 249 204 249 242.5 131.5 c 128,-1,55
 281 14 281 14 347.5 -69.5 c 128,-1,56
 414 -153 414 -153 503.5 -212 c 128,-1,57
 593 -271 593 -271 695.5 -299.5 c 128,-1,58
 798 -328 798 -328 908 -328 c 0,59,60
 999 -328 999 -328 1087.5 -305 c 128,-1,61
 1176 -282 1176 -282 1246.5 -243 c 128,-1,62
 1317 -204 1317 -204 1371 -163.5 c 128,-1,63
 1425 -123 1425 -123 1467 -78 c 1,64,-1
 1515 -141 l 1,65,66
 1471 -186 1471 -186 1414.5 -227.5 c 128,-1,67
 1358 -269 1358 -269 1281.5 -310 c 128,-1,68
 1205 -351 1205 -351 1106.5 -375.5 c 128,-1,69
 1008 -400 1008 -400 904 -400 c 0,70,71
 785 -400 785 -400 664.5 -366.5 c 128,-1,72
 544 -333 544 -333 435.5 -266 c 128,-1,73
 327 -199 327 -199 243 -108 c 128,-1,74
 159 -17 159 -17 109.5 107.5 c 128,-1,75
 60 232 60 232 60 371 c 0,0,1
602 247 m 0,76,77
 602 207 602 207 608 171.5 c 128,-1,78
 614 136 614 136 627 105 c 128,-1,79
 640 74 640 74 664.5 55.5 c 128,-1,80
 689 37 689 37 723 37 c 0,81,82
 788 37 788 37 848.5 91 c 128,-1,83
 909 145 909 145 949 224 c 128,-1,84
 989 303 989 303 1013 389.5 c 128,-1,85
 1037 476 1037 476 1037 545 c 0,86,87
 1037 759 1037 759 899 759 c 0,88,89
 823 759 823 759 757 694 c 128,-1,90
 691 629 691 629 653 531 c 0,91,92
 624 455 624 455 613 394 c 128,-1,93
 602 333 602 333 602 247 c 0,76,77
EndSplineSet
EndChar

StartChar: A
Encoding: 33 65 33
Width: 1496
VWidth: 2078
Flags: W
HStem: 0 64<36 217.391 472.526 686 810 1040.74 1315.05 1482> 512 64<541 929> 1468 20G<766.846 842.329>
DStem2: 334 258 455 327 0.336821 0.941569<-20.9136 301.47 369.141 990.821> 836 1488 743 1164 0.3017 -0.953403<280.844 897.562 964.613 1344.08>
AnchorPoint: "DotBelow" 736 -20 basechar 0
AnchorPoint: "Bottom" 736 0 basechar 0
AnchorPoint: "TopCap" 802 1580 basechar 0
LayerCount: 3
Fore
SplineSet
36 0 m 1
 36 64 l 1
 110 64 l 2
 212 64 288 129 334 258 c 2
 774 1488 l 1
 836 1488 l 1
 1217 284 l 2
 1257 158 1308 64 1388 64 c 2
 1482 64 l 1
 1482 0 l 1
 810 0 l 1
 810 64 l 1
 976 64 l 2
 1018 64 1058 96 1058 148 c 0
 1058 158 1055 178 1052 188 c 2
 949 512 l 1
 519 512 l 1
 455 327 l 2
 444 295 428 225 428 201 c 0
 428 145 444 64 594 64 c 2
 686 64 l 1
 686 0 l 1
 36 0 l 1
541 576 m 1
 929 576 l 1
 743 1164 l 1
 541 576 l 1
EndSplineSet
Validated: 19457
Layer: 2
SplineSet
36 0 m 1,0,-1
 36 64 l 1,1,-1
 110 64 l 2,2,3
 265 64 265 64 334 258 c 2,4,-1
 774 1488 l 1,5,-1
 836 1488 l 1,6,-1
 1217 284 l 2,7,8
 1250 180 1250 180 1291 122 c 128,-1,9
 1332 64 1332 64 1388 64 c 2,10,-1
 1482 64 l 1,11,-1
 1482 0 l 1,12,-1
 810 0 l 1,13,-1
 810 64 l 1,14,-1
 976 64 l 2,15,16
 1009 64 1009 64 1033.5 87.5 c 128,-1,17
 1058 111 1058 111 1058 148 c 0,18,19
 1058 168 1058 168 1052 188 c 2,20,-1
 949 512 l 1,21,-1
 519 512 l 1,22,-1
 455 327 l 2,23,24
 446 302 446 302 437 260 c 128,-1,25
 428 218 428 218 428 201 c 0,26,27
 428 175 428 175 433.5 155 c 128,-1,28
 439 135 439 135 454.5 112.5 c 128,-1,29
 470 90 470 90 505.5 77 c 128,-1,30
 541 64 541 64 594 64 c 2,31,-1
 686 64 l 1,32,-1
 686 0 l 1,33,-1
 36 0 l 1,0,-1
541 576 m 1,34,-1
 929 576 l 1,35,-1
 743 1164 l 1,36,-1
 541 576 l 1,34,-1
EndSplineSet
EndChar

StartChar: B
Encoding: 34 66 34
Width: 1442
VWidth: 2078
Flags: W
HStem: 0 64<80 319.031 514 969.125> 736 64<514 938.048> 1396 64<80 319.031 514 961.572>
VStem: 330 184<68.875 736 800 1390.81> 1098 204<969.093 1267.47> 1126 216<212.834 561.659>
AnchorPoint: "TopCap" 616 1580 basechar 0
AnchorPoint: "Bottom" 616 0 basechar 0
AnchorPoint: "DotBelow" 616 -20 basechar 0
LayerCount: 3
Fore
SplineSet
80 0 m 1xf4
 80 64 l 1
 252 64 l 2
 304 64 330 90 330 142 c 2
 330 1316 l 2
 330 1368 304 1396 252 1396 c 2
 80 1396 l 1
 80 1460 l 1
 848 1460 l 2
 949 1460 1052 1442 1140 1386 c 0
 1264 1307 1302 1194 1302 1116 c 0xf8
 1302 954 1152 822 958 781 c 1
 958 775 l 1
 1042 753 1124 728 1202 669 c 0
 1292 601 1342 506 1342 394 c 0
 1342 270 1290 170 1200 98 c 0
 1118 34 1004 0 890 0 c 2
 80 0 l 1xf4
514 64 m 1
 844 64 l 2
 932 64 1015 105 1068 182 c 0
 1108 240 1126 310 1126 382 c 0xf4
 1126 548 1058 628 1030 658 c 0
 972 724 890 736 802 736 c 2
 514 736 l 1
 514 64 l 1
514 800 m 1
 810 800 l 2
 892 800 972 836 1028 902 c 0
 1078 961 1098 1030 1098 1116 c 0xf8
 1098 1184 1072 1264 1024 1316 c 0
 973 1372 905 1396 821 1396 c 2
 514 1396 l 1
 514 800 l 1
EndSplineSet
Validated: 19457
Layer: 2
SplineSet
80 0 m 1,0,-1
 80 64 l 1,1,-1
 252 64 l 2,2,3
 330 64 330 64 330 142 c 2,4,-1
 330 1316 l 2,5,6
 330 1396 330 1396 252 1396 c 2,7,-1
 80 1396 l 1,8,-1
 80 1460 l 1,9,-1
 848 1460 l 2,10,11
 1024 1460 1024 1460 1140 1386 c 0,12,13
 1225 1332 1225 1332 1263.5 1258.5 c 128,-1,14
 1302 1185 1302 1185 1302 1116 c 0,15,16
 1302 997 1302 997 1204.5 904.5 c 128,-1,17
 1107 812 1107 812 958 781 c 1,18,-1
 958 775 l 1,19,20
 1035 755 1035 755 1092 732 c 128,-1,21
 1149 709 1149 709 1202 669 c 0,22,23
 1342 563 1342 563 1342 394 c 0,24,25
 1342 212 1342 212 1200 98 c 1,26,27
 1074 0 1074 0 890 0 c 2,28,-1
 80 0 l 1,0,-1
514 64 m 1,29,-1
 844 64 l 2,30,31
 911 64 911 64 970 94.5 c 128,-1,32
 1029 125 1029 125 1068 182 c 0,33,34
 1126 266 1126 266 1126 382 c 0,35,36
 1126 555 1126 555 1030 658 c 1,37,38
 990 704 990 704 934 720 c 128,-1,39
 878 736 878 736 802 736 c 2,40,-1
 514 736 l 1,41,-1
 514 64 l 1,29,-1
514 800 m 1,42,-1
 810 800 l 2,43,44
 941 800 941 800 1028 902 c 0,45,46
 1098 985 1098 985 1098 1116 c 0,47,48
 1098 1169 1098 1169 1078.5 1223.5 c 128,-1,49
 1059 1278 1059 1278 1024 1316 c 0,50,51
 951 1396 951 1396 821 1396 c 2,52,-1
 514 1396 l 1,53,-1
 514 800 l 1,42,-1
EndSplineSet
EndChar

StartChar: C
Encoding: 35 67 35
Width: 1500
Flags: W
HStem: -28 64<628.954 923.117> 840 21G<1250 1308> 1424 64<633.362 915.237>
VStem: 148 224<434.568 1005.75> 1260 48<468.381 571 840 949.757>
AnchorPoint: "DotBelow" 748 -20 basechar 0
AnchorPoint: "Bottom" 748 0 basechar 0
AnchorPoint: "TopCap" 748 1580 basechar 0
LayerCount: 3
Fore
SplineSet
148 723 m 0
 148 1159 436 1488 734 1488 c 0
 820 1488 917 1473 990 1430 c 0
 1057 1390 1116 1338 1151 1294 c 1
 1162 1294 l 1
 1264 1480 l 9
 1308 1480 l 25
 1308 840 l 25
 1260 840 l 17
 1240 956 1204 1077 1135 1188 c 0
 1047 1330 919 1424 768 1424 c 0
 465 1424 372 1048 372 730 c 0
 372 355 497 36 758 36 c 0
 953 36 1221 156 1252 571 c 9
 1316 571 l 17
 1295 108 977 -28 758 -28 c 0
 412 -28 148 281 148 723 c 0
EndSplineSet
Validated: 19457
Layer: 2
SplineSet
148 723 m 0,0,1
 148 882 148 882 198 1025.5 c 128,-1,2
 248 1169 248 1169 329.5 1269.5 c 128,-1,3
 411 1370 411 1370 517 1429 c 128,-1,4
 623 1488 623 1488 734 1488 c 0,5,6
 892 1488 892 1488 990 1430 c 0,7,8
 1091 1370 1091 1370 1151 1294 c 1,9,-1
 1162 1294 l 1,10,-1
 1264 1480 l 1,11,-1
 1308 1480 l 1,12,-1
 1308 840 l 1,13,-1
 1260 840 l 1,14,15
 1225 1043 1225 1043 1135 1188 c 0,16,17
 1067 1298 1067 1298 972.5 1361 c 128,-1,18
 878 1424 878 1424 768 1424 c 0,19,20
 680 1424 680 1424 610.5 1382 c 128,-1,21
 541 1340 541 1340 497.5 1272 c 128,-1,22
 454 1204 454 1204 424.5 1111.5 c 128,-1,23
 395 1019 395 1019 383.5 925 c 128,-1,24
 372 831 372 831 372 730 c 0,25,26
 372 587 372 587 396 463 c 128,-1,27
 420 339 420 339 466.5 243 c 128,-1,28
 513 147 513 147 588 91.5 c 128,-1,29
 663 36 663 36 758 36 c 0,30,31
 820 36 820 36 881.5 51.5 c 128,-1,32
 943 67 943 67 1007 105.5 c 128,-1,33
 1071 144 1071 144 1121 203 c 128,-1,34
 1171 262 1171 262 1207 357 c 128,-1,35
 1243 452 1243 452 1252 571 c 1,36,-1
 1316 571 l 1,37,38
 1310 438 1310 438 1270.5 331.5 c 128,-1,39
 1231 225 1231 225 1174 159.5 c 128,-1,40
 1117 94 1117 94 1043 50 c 128,-1,41
 969 6 969 6 898.5 -11 c 128,-1,42
 828 -28 828 -28 758 -28 c 0,43,44
 630 -28 630 -28 517 27.5 c 128,-1,45
 404 83 404 83 323 181 c 128,-1,46
 242 279 242 279 195 419.5 c 128,-1,47
 148 560 148 560 148 723 c 0,0,1
EndSplineSet
EndChar

StartChar: D
Encoding: 36 68 36
Width: 1568
VWidth: 2078
Flags: W
HStem: 0 64<80 319.031 524.969 980.29> 1396 64<80 319.031 524.969 980.29>
VStem: 330 184<69.1875 1390.81> 1240 224<444.891 1015.11>
AnchorPoint: "DotBelow" 664 -20 basechar 0
AnchorPoint: "Bottom" 664 0 basechar 0
AnchorPoint: "TopCap" 664 1580 basechar 0
LayerCount: 3
Fore
SplineSet
80 0 m 1
 80 64 l 1
 252 64 l 2
 304 64 330 92 330 144 c 2
 330 1316 l 2
 330 1368 304 1396 252 1396 c 2
 80 1396 l 1
 80 1460 l 1
 848 1460 l 2
 1228 1460 1464 1136 1464 730 c 0
 1464 324 1228 0 848 0 c 2
 80 0 l 1
514 144 m 2
 514 92 540 64 592 64 c 2
 836 64 l 2
 1008 64 1240 178 1240 730 c 0
 1240 1282 1008 1396 836 1396 c 2
 592 1396 l 2
 540 1396 514 1368 514 1316 c 2
 514 144 l 2
EndSplineSet
Validated: 19457
Layer: 2
SplineSet
80 0 m 1,0,-1
 80 64 l 1,1,-1
 252 64 l 2,2,3
 330 64 330 64 330 144 c 2,4,-1
 330 1316 l 2,5,6
 330 1396 330 1396 252 1396 c 2,7,-1
 80 1396 l 1,8,-1
 80 1460 l 1,9,-1
 848 1460 l 2,10,11
 987 1460 987 1460 1104 1403 c 128,-1,12
 1221 1346 1221 1346 1299 1247.5 c 128,-1,13
 1377 1149 1377 1149 1420.5 1015.5 c 128,-1,14
 1464 882 1464 882 1464 730 c 128,-1,15
 1464 578 1464 578 1420.5 444.5 c 128,-1,16
 1377 311 1377 311 1299 212.5 c 128,-1,17
 1221 114 1221 114 1104 57 c 128,-1,18
 987 0 987 0 848 0 c 2,19,-1
 80 0 l 1,0,-1
514 144 m 2,20,21
 514 64 514 64 592 64 c 2,22,-1
 836 64 l 2,23,24
 893 64 893 64 944.5 79.5 c 128,-1,25
 996 95 996 95 1052 140 c 128,-1,26
 1108 185 1108 185 1148 256.5 c 128,-1,27
 1188 328 1188 328 1214 449.5 c 128,-1,28
 1240 571 1240 571 1240 730 c 128,-1,29
 1240 889 1240 889 1214 1010.5 c 128,-1,30
 1188 1132 1188 1132 1148 1203.5 c 128,-1,31
 1108 1275 1108 1275 1052 1320 c 128,-1,32
 996 1365 996 1365 944.5 1380.5 c 128,-1,33
 893 1396 893 1396 836 1396 c 2,34,-1
 592 1396 l 2,35,36
 514 1396 514 1396 514 1316 c 2,37,-1
 514 144 l 2,20,21
EndSplineSet
EndChar

StartChar: E
Encoding: 37 69 37
Width: 1424
VWidth: 2078
Flags: W
HStem: 0 64<80 319.031 514 1004.61> 726 64<514 759.876> 1396 64<80 319.031 514 1009.01>
VStem: 330 184<69.1875 726 790 1390.81> 860 58<402 575.806 940.194 1114> 1236 56<888 1052.67> 1260 60<415.621 578>
AnchorPoint: "DotBelow" 724 -20 basechar 0
AnchorPoint: "Bottom" 724 0 basechar 0
AnchorPoint: "TopCap" 724 1580 basechar 0
LayerCount: 3
Fore
SplineSet
80 0 m 1xfa
 80 64 l 1
 252 64 l 2
 304 64 330 92 330 144 c 2
 330 1316 l 2
 330 1368 304 1396 252 1396 c 2
 80 1396 l 1
 80 1460 l 1
 1274 1460 l 1
 1292 888 l 1
 1236 888 l 1xfc
 1229 987 1193 1172 1118 1268 c 0
 1051 1353 984 1396 878 1396 c 2
 514 1396 l 1
 514 790 l 1
 696 790 l 2
 770 790 860 922 860 1114 c 1
 918 1114 l 1
 918 402 l 1
 860 402 l 1
 860 594 770 726 696 726 c 2
 514 726 l 1
 514 64 l 1
 838 64 l 2
 966 64 1065 103 1144 212 c 0
 1207 299 1233 392 1260 578 c 1
 1320 578 l 1
 1312 0 l 1
 80 0 l 1xfa
EndSplineSet
Validated: 19457
Layer: 2
SplineSet
80 0 m 1,0,-1
 80 64 l 1,1,-1
 252 64 l 2,2,3
 330 64 330 64 330 144 c 2,4,-1
 330 1316 l 2,5,6
 330 1396 330 1396 252 1396 c 2,7,-1
 80 1396 l 1,8,-1
 80 1460 l 1,9,-1
 1274 1460 l 1,10,-1
 1292 888 l 1,11,-1
 1236 888 l 1,12,13
 1229 980 1229 980 1199 1091.5 c 128,-1,14
 1169 1203 1169 1203 1118 1268 c 0,15,16
 1066 1334 1066 1334 1010.5 1365 c 128,-1,17
 955 1396 955 1396 878 1396 c 2,18,-1
 514 1396 l 1,19,-1
 514 790 l 1,20,-1
 696 790 l 2,21,22
 756 790 756 790 808 883.5 c 128,-1,23
 860 977 860 977 860 1114 c 1,24,-1
 918 1114 l 1,25,-1
 918 402 l 1,26,-1
 860 402 l 1,27,28
 860 539 860 539 808 632.5 c 128,-1,29
 756 726 756 726 696 726 c 2,30,-1
 514 726 l 1,31,-1
 514 64 l 1,32,-1
 838 64 l 2,33,34
 938 64 938 64 1012.5 98.5 c 128,-1,35
 1087 133 1087 133 1144 212 c 0,36,37
 1190 276 1190 276 1214.5 355 c 128,-1,38
 1239 434 1239 434 1260 578 c 1,39,-1
 1320 578 l 1,40,-1
 1312 0 l 1,41,-1
 80 0 l 1,0,-1
EndSplineSet
EndChar

StartChar: F
Encoding: 38 70 38
Width: 1370
VWidth: 2078
Flags: W
HStem: 0 64<80 319.031 524.969 764> 726 64<514 759.876> 1396 64<80 319.031 514 1009.01>
VStem: 330 184<69.1875 726 790 1390.81> 860 58<402 575.806 940.194 1114> 1236 56<888 1052.67>
AnchorPoint: "DotBelow" 422 -20 basechar 0
AnchorPoint: "Bottom" 422 0 basechar 0
AnchorPoint: "TopCap" 724 1580 basechar 0
LayerCount: 3
Fore
SplineSet
80 0 m 1
 80 64 l 1
 252 64 l 2
 304 64 330 92 330 144 c 2
 330 1316 l 2
 330 1368 304 1396 252 1396 c 2
 80 1396 l 1
 80 1460 l 1
 1274 1460 l 1
 1292 888 l 1
 1236 888 l 1
 1229 987 1193 1172 1118 1268 c 0
 1051 1353 984 1396 878 1396 c 2
 514 1396 l 1
 514 790 l 1
 696 790 l 2
 770 790 860 922 860 1114 c 1
 918 1114 l 1
 918 402 l 1
 860 402 l 1
 860 594 770 726 696 726 c 2
 514 726 l 1
 514 144 l 2
 514 92 540 64 592 64 c 2
 764 64 l 1
 764 0 l 1
 80 0 l 1
EndSplineSet
Validated: 19457
Layer: 2
SplineSet
80 0 m 1,0,-1
 80 64 l 1,1,-1
 252 64 l 2,2,3
 330 64 330 64 330 144 c 2,4,-1
 330 1316 l 2,5,6
 330 1396 330 1396 252 1396 c 2,7,-1
 80 1396 l 1,8,-1
 80 1460 l 1,9,-1
 1274 1460 l 1,10,-1
 1292 888 l 1,11,-1
 1236 888 l 1,12,13
 1229 980 1229 980 1199 1091.5 c 128,-1,14
 1169 1203 1169 1203 1118 1268 c 0,15,16
 1066 1334 1066 1334 1010.5 1365 c 128,-1,17
 955 1396 955 1396 878 1396 c 2,18,-1
 514 1396 l 1,19,-1
 514 790 l 1,20,-1
 696 790 l 2,21,22
 756 790 756 790 808 883.5 c 128,-1,23
 860 977 860 977 860 1114 c 1,24,-1
 918 1114 l 1,25,-1
 918 402 l 1,26,-1
 860 402 l 1,27,28
 860 539 860 539 808 632.5 c 128,-1,29
 756 726 756 726 696 726 c 2,30,-1
 514 726 l 1,31,-1
 514 144 l 2,32,33
 514 64 514 64 592 64 c 2,34,-1
 764 64 l 1,35,-1
 764 0 l 1,36,-1
 80 0 l 1,0,-1
EndSplineSet
EndChar

StartChar: G
Encoding: 39 71 39
Width: 1472
Flags: W
HStem: -28 64<628.954 905.151> 628 64<790 1081.03 1286.97 1478> 840 21G<1250 1308> 1424 64<633.362 915.237>
VStem: 148 224<434.568 1005.75> 1092 184<249.661 622.812> 1228 48<-28 49.9878> 1260 48<840 949.757>
AnchorPoint: "TopCap" 748 1580 basechar 0
AnchorPoint: "Bottom" 748 0 basechar 0
AnchorPoint: "DotBelow" 748 -20 basechar 0
LayerCount: 3
Fore
SplineSet
148 723 m 0xfa
 148 1159 436 1488 734 1488 c 0
 820 1488 917 1473 990 1430 c 0
 1057 1390 1116 1338 1151 1294 c 1
 1162 1294 l 1
 1264 1480 l 9
 1308 1480 l 25
 1308 840 l 25
 1260 840 l 17xf9
 1240 956 1204 1077 1135 1188 c 0
 1047 1330 919 1424 768 1424 c 0
 465 1424 372 1048 372 730 c 0
 372 355 497 36 758 36 c 0
 964 36 1092 198 1092 348 c 2
 1092 548 l 2
 1092 600 1066 628 1014 628 c 2
 790 628 l 1
 790 692 l 1
 1478 692 l 1
 1478 628 l 1
 1354 628 l 2
 1302 628 1276 600 1276 548 c 2xfc
 1276 -28 l 1
 1228 -28 l 17
 1178 244 l 9
 1159 244 l 17
 1109 125 976 -28 758 -28 c 0
 412 -28 148 281 148 723 c 0xfa
EndSplineSet
Validated: 19457
Layer: 2
SplineSet
148 723 m 0,0,1
 148 882 148 882 198 1025.5 c 128,-1,2
 248 1169 248 1169 329.5 1269.5 c 128,-1,3
 411 1370 411 1370 517 1429 c 128,-1,4
 623 1488 623 1488 734 1488 c 0,5,6
 892 1488 892 1488 990 1430 c 0,7,8
 1091 1370 1091 1370 1151 1294 c 1,9,-1
 1162 1294 l 1,10,-1
 1264 1480 l 1,11,-1
 1308 1480 l 1,12,-1
 1308 840 l 1,13,-1
 1260 840 l 1,14,15
 1225 1043 1225 1043 1135 1188 c 0,16,17
 1067 1298 1067 1298 972.5 1361 c 128,-1,18
 878 1424 878 1424 768 1424 c 0,19,20
 680 1424 680 1424 610.5 1382 c 128,-1,21
 541 1340 541 1340 497.5 1272 c 128,-1,22
 454 1204 454 1204 424.5 1111.5 c 128,-1,23
 395 1019 395 1019 383.5 925 c 128,-1,24
 372 831 372 831 372 730 c 0,25,26
 372 587 372 587 396 463 c 128,-1,27
 420 339 420 339 466.5 243 c 128,-1,28
 513 147 513 147 588 91.5 c 128,-1,29
 663 36 663 36 758 36 c 0,30,31
 905 36 905 36 998.5 132 c 128,-1,32
 1092 228 1092 228 1092 348 c 2,33,-1
 1092 548 l 2,34,35
 1092 628 1092 628 1014 628 c 2,36,-1
 790 628 l 1,37,-1
 790 692 l 1,38,-1
 1478 692 l 1,39,-1
 1478 628 l 1,40,-1
 1354 628 l 2,41,42
 1276 628 1276 628 1276 548 c 2,43,-1
 1276 -28 l 1,44,-1
 1228 -28 l 1,45,-1
 1178 244 l 1,46,-1
 1159 244 l 1,47,48
 1139 196 1139 196 1105 151 c 128,-1,49
 1071 106 1071 106 1022.5 64 c 128,-1,50
 974 22 974 22 905 -3 c 128,-1,51
 836 -28 836 -28 758 -28 c 0,52,53
 630 -28 630 -28 517 27.5 c 128,-1,54
 404 83 404 83 323 181 c 128,-1,55
 242 279 242 279 195 419.5 c 128,-1,56
 148 560 148 560 148 723 c 0,0,1
EndSplineSet
EndChar

StartChar: H
Encoding: 40 72 40
Width: 1656
VWidth: 2078
Flags: W
HStem: 0 64<80 319.031 524.969 764 932 1171.03 1376.97 1616> 724 64<514 1182> 1396 64<80 319.031 524.969 764 932 1171.03 1376.97 1616>
VStem: 330 184<69.1875 724 788 1390.81> 1182 184<69.1875 724 788 1390.81>
AnchorPoint: "DotBelow" 848 -20 basechar 0
AnchorPoint: "Bottom" 848 0 basechar 0
AnchorPoint: "TopCap" 848 1580 basechar 0
LayerCount: 3
Fore
SplineSet
80 0 m 1
 80 64 l 1
 252 64 l 2
 304 64 330 92 330 144 c 2
 330 1316 l 2
 330 1368 304 1396 252 1396 c 2
 80 1396 l 1
 80 1460 l 1
 764 1460 l 1
 764 1396 l 1
 592 1396 l 2
 540 1396 514 1368 514 1316 c 2
 514 788 l 1
 1182 788 l 1
 1182 1316 l 2
 1182 1368 1156 1396 1104 1396 c 2
 932 1396 l 1
 932 1460 l 1
 1616 1460 l 1
 1616 1396 l 1
 1444 1396 l 2
 1392 1396 1366 1368 1366 1316 c 2
 1366 144 l 2
 1366 92 1392 64 1444 64 c 2
 1616 64 l 1
 1616 0 l 1
 932 0 l 1
 932 64 l 1
 1104 64 l 2
 1156 64 1182 92 1182 144 c 2
 1182 724 l 1
 514 724 l 1
 514 144 l 2
 514 92 540 64 592 64 c 2
 764 64 l 1
 764 0 l 1
 80 0 l 1
EndSplineSet
Validated: 19457
Layer: 2
SplineSet
80 0 m 1,0,-1
 80 64 l 1,1,-1
 252 64 l 2,2,3
 330 64 330 64 330 144 c 2,4,-1
 330 1316 l 2,5,6
 330 1396 330 1396 252 1396 c 2,7,-1
 80 1396 l 1,8,-1
 80 1460 l 1,9,-1
 764 1460 l 1,10,-1
 764 1396 l 1,11,-1
 592 1396 l 2,12,13
 514 1396 514 1396 514 1316 c 2,14,-1
 514 788 l 1,15,-1
 1182 788 l 1,16,-1
 1182 1316 l 2,17,18
 1182 1396 1182 1396 1104 1396 c 2,19,-1
 932 1396 l 1,20,-1
 932 1460 l 1,21,-1
 1616 1460 l 1,22,-1
 1616 1396 l 1,23,-1
 1444 1396 l 2,24,25
 1366 1396 1366 1396 1366 1316 c 2,26,-1
 1366 144 l 2,27,28
 1366 64 1366 64 1444 64 c 2,29,-1
 1616 64 l 1,30,-1
 1616 0 l 1,31,-1
 932 0 l 1,32,-1
 932 64 l 1,33,-1
 1104 64 l 2,34,35
 1182 64 1182 64 1182 144 c 2,36,-1
 1182 724 l 1,37,-1
 514 724 l 1,38,-1
 514 144 l 2,39,40
 514 64 514 64 592 64 c 2,41,-1
 764 64 l 1,42,-1
 764 0 l 1,43,-1
 80 0 l 1,0,-1
EndSplineSet
EndChar

StartChar: I
Encoding: 41 73 41
Width: 804
VWidth: 2078
Flags: W
HStem: 0 64<80 319.031 524.969 764> 1396 64<80 319.031 524.969 764>
VStem: 330 184<69.1875 1390.81>
AnchorPoint: "DotBelow" 422 -20 basechar 0
AnchorPoint: "Bottom" 422 0 basechar 0
AnchorPoint: "TopCap" 422 1580 basechar 0
LayerCount: 3
Fore
SplineSet
80 0 m 1
 80 64 l 1
 252 64 l 2
 304 64 330 92 330 144 c 2
 330 1316 l 2
 330 1368 304 1396 252 1396 c 2
 80 1396 l 1
 80 1460 l 1
 764 1460 l 1
 764 1396 l 1
 592 1396 l 2
 540 1396 514 1368 514 1316 c 2
 514 144 l 2
 514 92 540 64 592 64 c 2
 764 64 l 1
 764 0 l 1
 80 0 l 1
EndSplineSet
Layer: 2
SplineSet
80 0 m 1,0,-1
 80 64 l 1,1,-1
 252 64 l 2,2,3
 330 64 330 64 330 144 c 2,4,-1
 330 1316 l 2,5,6
 330 1396 330 1396 252 1396 c 2,7,-1
 80 1396 l 1,8,-1
 80 1460 l 1,9,-1
 764 1460 l 1,10,-1
 764 1396 l 1,11,-1
 592 1396 l 2,12,13
 514 1396 514 1396 514 1316 c 2,14,-1
 514 144 l 2,15,16
 514 64 514 64 592 64 c 2,17,-1
 764 64 l 1,18,-1
 764 0 l 1,19,-1
 80 0 l 1,0,-1
EndSplineSet
EndChar

StartChar: J
Encoding: 42 74 42
Width: 1180
VWidth: 2078
Flags: W
HStem: -28 64<309.299 568.996> 238 264<205.869 416.949> 1396 64<464 703.031 908.969 1148>
VStem: 108 96<109.885 340> 714 184<223.974 1390.81>
AnchorPoint: "DotBelow" 468 -20 basechar 0
AnchorPoint: "Bottom" 468 0 basechar 0
AnchorPoint: "TopCap" 806 1580 basechar 0
LayerCount: 3
Fore
SplineSet
108 271 m 0
 108 409 204 502 310 502 c 0
 397 502 454 436 454 366 c 0
 454 293 392 238 327 238 c 0
 312 238 294 240 282 243 c 0
 270 247 254 248 244 248 c 0
 222 248 204 237 204 208 c 0
 204 100 324 36 455 36 c 0
 630 36 714 204 714 384 c 2
 714 1316 l 2
 714 1368 688 1396 636 1396 c 2
 464 1396 l 1
 464 1460 l 1
 1148 1460 l 1
 1148 1396 l 1
 976 1396 l 2
 924 1396 898 1368 898 1316 c 2
 898 441 l 2
 898 174 723 -28 447 -28 c 0
 249 -28 108 79 108 271 c 0
EndSplineSet
Validated: 19457
Layer: 2
SplineSet
108 271 m 0,0,1
 108 372 108 372 168 437 c 128,-1,2
 228 502 228 502 310 502 c 0,3,4
 373 502 373 502 413.5 461.5 c 128,-1,5
 454 421 454 421 454 366 c 0,6,7
 454 313 454 313 415.5 275.5 c 128,-1,8
 377 238 377 238 327 238 c 0,9,10
 302 238 302 238 282 243 c 1,11,12
 267 248 267 248 244 248 c 0,13,14
 204 248 204 248 204 208 c 0,15,16
 204 130 204 130 278 83 c 128,-1,17
 352 36 352 36 455 36 c 0,18,19
 579 36 579 36 646.5 137.5 c 128,-1,20
 714 239 714 239 714 384 c 2,21,-1
 714 1316 l 2,22,23
 714 1396 714 1396 636 1396 c 2,24,-1
 464 1396 l 1,25,-1
 464 1460 l 1,26,-1
 1148 1460 l 1,27,-1
 1148 1396 l 1,28,-1
 976 1396 l 2,29,30
 898 1396 898 1396 898 1316 c 2,31,-1
 898 441 l 2,32,33
 898 237 898 237 774.5 104.5 c 128,-1,34
 651 -28 651 -28 447 -28 c 0,35,36
 295 -28 295 -28 201.5 51 c 128,-1,37
 108 130 108 130 108 271 c 0,0,1
EndSplineSet
EndChar

StartChar: K
Encoding: 43 75 43
Width: 1604
VWidth: 2078
Flags: W
HStem: 0 64<80 319.031 524.969 764 918 1126.14 1431.5 1570> 1396 64<80 319.031 524.969 764 932 1095.33 1396.33 1560>
VStem: 330 184<69.1875 585 688 1390.81>
DStem2: 514 688 514 585 0.736757 0.676158<0 162.498 346.48 865.608> 820 867 685 742 0.602044 -0.798463<18.532 788.312>
AnchorPoint: "DotBelow" 812 -20 basechar 0
AnchorPoint: "Bottom" 812 0 basechar 0
AnchorPoint: "TopCap" 812 1580 basechar 0
LayerCount: 3
Fore
SplineSet
80 0 m 1
 80 64 l 1
 252 64 l 2
 304 64 330 92 330 144 c 2
 330 1316 l 2
 330 1368 304 1396 252 1396 c 2
 80 1396 l 1
 80 1460 l 1
 764 1460 l 1
 764 1396 l 1
 592 1396 l 2
 540 1396 514 1368 514 1316 c 2
 514 688 l 1
 1002 1136 l 2
 1076 1202 1130 1257 1130 1299 c 0
 1130 1333 1125 1352 1096 1375 c 0
 1082 1386 1048 1396 1028 1396 c 2
 932 1396 l 1
 932 1460 l 1
 1560 1460 l 1
 1560 1396 l 1
 1512 1396 1450 1394 1384 1358 c 0
 1315 1321 1260 1271 1207 1221 c 2
 820 867 l 1
 1338 180 l 2
 1392 108 1456 64 1570 64 c 1
 1570 0 l 1
 918 0 l 1
 918 64 l 1
 1018 64 l 2
 1106 64 1130 84 1130 112 c 0
 1130 143 1118 166 1063 240 c 2
 685 742 l 1
 514 585 l 1
 514 144 l 2
 514 92 540 64 592 64 c 2
 764 64 l 1
 764 0 l 1
 80 0 l 1
EndSplineSet
Validated: 19457
Layer: 2
SplineSet
80 0 m 1,0,-1
 80 64 l 1,1,-1
 252 64 l 2,2,3
 330 64 330 64 330 144 c 2,4,-1
 330 1316 l 2,5,6
 330 1396 330 1396 252 1396 c 2,7,-1
 80 1396 l 1,8,-1
 80 1460 l 1,9,-1
 764 1460 l 1,10,-1
 764 1396 l 1,11,-1
 592 1396 l 2,12,13
 514 1396 514 1396 514 1316 c 2,14,-1
 514 688 l 1,15,-1
 1002 1136 l 2,16,17
 1065 1193 1065 1193 1097.5 1231.5 c 128,-1,18
 1130 1270 1130 1270 1130 1299 c 0,19,20
 1130 1326 1130 1326 1123.5 1342.5 c 128,-1,21
 1117 1359 1117 1359 1096 1375 c 0,22,23
 1086 1383 1086 1383 1064.5 1389.5 c 128,-1,24
 1043 1396 1043 1396 1028 1396 c 2,25,-1
 932 1396 l 1,26,-1
 932 1460 l 1,27,-1
 1560 1460 l 1,28,-1
 1560 1396 l 1,29,30
 1454 1396 1454 1396 1384 1358 c 0,31,32
 1310 1319 1310 1319 1207 1221 c 1,33,-1
 820 867 l 1,34,-1
 1338 180 l 2,35,36
 1381 122 1381 122 1435 93 c 128,-1,37
 1489 64 1489 64 1570 64 c 1,38,-1
 1570 0 l 1,39,-1
 918 0 l 1,40,-1
 918 64 l 1,41,-1
 1018 64 l 2,42,43
 1130 64 1130 64 1130 112 c 0,44,45
 1130 135 1130 135 1117 160 c 128,-1,46
 1104 185 1104 185 1063 240 c 2,47,-1
 685 742 l 1,48,-1
 514 585 l 1,49,-1
 514 144 l 2,50,51
 514 64 514 64 592 64 c 2,52,-1
 764 64 l 1,53,-1
 764 0 l 1,54,-1
 80 0 l 1,0,-1
EndSplineSet
EndChar

StartChar: L
Encoding: 44 76 44
Width: 1424
VWidth: 2078
Flags: W
HStem: 0 64<80 319.031 524.969 989.231> 1396 64<80 319.031 524.969 764>
VStem: 330 184<69.1875 1390.81> 1256 60<443.077 628>
AnchorPoint: "Bottom" 724 0 basechar 0
AnchorPoint: "DotBelow" 724 -20 basechar 0
AnchorPoint: "TopCap" 422 1580 basechar 0
LayerCount: 3
Fore
SplineSet
80 0 m 1
 80 64 l 1
 252 64 l 2
 304 64 330 92 330 144 c 2
 330 1316 l 2
 330 1368 304 1396 252 1396 c 2
 80 1396 l 1
 80 1460 l 1
 764 1460 l 1
 764 1396 l 1
 592 1396 l 2
 540 1396 514 1368 514 1316 c 2
 514 144 l 2
 514 92 540 64 592 64 c 2
 826 64 l 2
 954 64 1044 102 1131 216 c 0
 1209 318 1239 474 1256 628 c 1
 1316 628 l 1
 1288 0 l 1
 80 0 l 1
EndSplineSet
Validated: 19457
Layer: 2
SplineSet
80 0 m 1,0,-1
 80 64 l 1,1,-1
 252 64 l 2,2,3
 330 64 330 64 330 144 c 2,4,-1
 330 1316 l 2,5,6
 330 1396 330 1396 252 1396 c 2,7,-1
 80 1396 l 1,8,-1
 80 1460 l 1,9,-1
 764 1460 l 1,10,-1
 764 1396 l 1,11,-1
 592 1396 l 2,12,13
 514 1396 514 1396 514 1316 c 2,14,-1
 514 144 l 2,15,16
 514 64 514 64 592 64 c 2,17,-1
 826 64 l 2,18,19
 925 64 925 64 996 98.5 c 128,-1,20
 1067 133 1067 133 1131 216 c 0,21,22
 1224 338 1224 338 1256 628 c 1,23,-1
 1316 628 l 1,24,-1
 1288 0 l 1,25,-1
 80 0 l 1,0,-1
EndSplineSet
EndChar

StartChar: M
Encoding: 45 77 45
Width: 1954
VWidth: 2078
Flags: W
HStem: 0 64<80 309.545 438.455 668 1230 1469.03 1674.97 1914> 1396 64<80 319.031 1674.97 1914>
VStem: 330 88<76.2152 1272> 1480 184<69.1875 1272>
DStem2: 556 1460 430 1272 0.361078 -0.932536<129.821 1205.24> 991 336 954 22 0.368825 0.929499<0 1039.3>
AnchorPoint: "DotBelow" 956 -20 basechar 0
AnchorPoint: "Bottom" 956 0 basechar 0
AnchorPoint: "TopCap" 956 1580 basechar 0
LayerCount: 3
Fore
SplineSet
80 0 m 1
 80 64 l 1
 226 64 l 2
 298 64 330 98 330 170 c 2
 330 1316 l 2
 330 1368 304 1396 252 1396 c 2
 80 1396 l 1
 80 1460 l 1
 556 1460 l 1
 991 336 l 1
 1432 1460 l 1
 1914 1460 l 1
 1914 1396 l 1
 1742 1396 l 2
 1690 1396 1664 1368 1664 1316 c 2
 1664 144 l 2
 1664 92 1690 64 1742 64 c 2
 1914 64 l 1
 1914 0 l 1
 1230 0 l 1
 1230 64 l 1
 1402 64 l 2
 1454 64 1480 92 1480 144 c 2
 1480 1272 l 1
 1450 1272 l 1
 954 22 l 1
 914 22 l 1
 430 1272 l 1
 418 1272 l 1
 418 170 l 2
 418 98 450 64 522 64 c 2
 668 64 l 1
 668 0 l 1
 80 0 l 1
EndSplineSet
Validated: 19457
Layer: 2
SplineSet
80 0 m 1,0,-1
 80 64 l 1,1,-1
 226 64 l 2,2,3
 280 64 280 64 305 90 c 128,-1,4
 330 116 330 116 330 170 c 2,5,-1
 330 1316 l 2,6,7
 330 1396 330 1396 252 1396 c 2,8,-1
 80 1396 l 1,9,-1
 80 1460 l 1,10,-1
 556 1460 l 1,11,-1
 991 336 l 1,12,-1
 1432 1460 l 1,13,-1
 1914 1460 l 1,14,-1
 1914 1396 l 1,15,-1
 1742 1396 l 2,16,17
 1664 1396 1664 1396 1664 1316 c 2,18,-1
 1664 144 l 2,19,20
 1664 64 1664 64 1742 64 c 2,21,-1
 1914 64 l 1,22,-1
 1914 0 l 1,23,-1
 1230 0 l 1,24,-1
 1230 64 l 1,25,-1
 1402 64 l 2,26,27
 1480 64 1480 64 1480 144 c 2,28,-1
 1480 1272 l 1,29,-1
 1450 1272 l 1,30,-1
 954 22 l 1,31,-1
 914 22 l 1,32,-1
 430 1272 l 1,33,-1
 418 1272 l 1,34,-1
 418 170 l 2,35,36
 418 116 418 116 443 90 c 128,-1,37
 468 64 468 64 522 64 c 2,38,-1
 668 64 l 1,39,-1
 668 0 l 1,40,-1
 80 0 l 1,0,-1
EndSplineSet
EndChar

StartChar: N
Encoding: 46 78 46
Width: 1570
VWidth: 2078
Flags: W
HStem: -24 21G<1293.28 1342> 0 64<80 277.015 470.985 668> 1396 64<80 258.672 1004 1240.12 1356.65 1544>
VStem: 330 88<105.09 1185> 1254 88<362 1389.1>
DStem2: 450 1460 418 1185 0.592835 -0.805324<202.493 1360.89>
AnchorPoint: "DotBelow" 836 -20 basechar 0
AnchorPoint: "Bottom" 836 0 basechar 0
AnchorPoint: "TopCap" 836 1580 basechar 0
LayerCount: 3
Fore
SplineSet
80 0 m 1
 80 64 l 1
 192 64 l 2
 280 64 330 144 330 216 c 2
 330 1233 l 2
 330 1253 318 1302 284 1341 c 0
 249 1381 208 1396 182 1396 c 2
 80 1396 l 1
 80 1460 l 1
 450 1460 l 1
 1254 362 l 1
 1254 1310 l 2
 1254 1362 1228 1396 1176 1396 c 2
 1004 1396 l 1
 1004 1460 l 1
 1544 1460 l 1
 1544 1396 l 1
 1422 1396 l 2
 1370 1396 1342 1362 1342 1310 c 2
 1342 -24 l 1
 1308 -24 l 1
 418 1185 l 1
 418 216 l 2
 418 144 468 64 556 64 c 2
 668 64 l 1
 668 0 l 1
 80 0 l 1
EndSplineSet
Validated: 19457
Layer: 2
SplineSet
80 0 m 1,0,-1
 80 64 l 1,1,-1
 192 64 l 2,2,3
 254 64 254 64 292 110.5 c 128,-1,4
 330 157 330 157 330 216 c 2,5,-1
 330 1233 l 2,6,7
 330 1252 330 1252 318.5 1283.5 c 128,-1,8
 307 1315 307 1315 284 1341 c 0,9,10
 236 1396 236 1396 182 1396 c 2,11,-1
 80 1396 l 1,12,-1
 80 1460 l 1,13,-1
 450 1460 l 1,14,-1
 1254 362 l 1,15,-1
 1254 1310 l 2,16,17
 1254 1350 1254 1350 1234 1373 c 128,-1,18
 1214 1396 1214 1396 1176 1396 c 2,19,-1
 1004 1396 l 1,20,-1
 1004 1460 l 1,21,-1
 1544 1460 l 1,22,-1
 1544 1396 l 1,23,-1
 1422 1396 l 2,24,25
 1384 1396 1384 1396 1363 1373 c 128,-1,26
 1342 1350 1342 1350 1342 1310 c 2,27,-1
 1342 -24 l 1,28,-1
 1308 -24 l 1,29,-1
 418 1185 l 1,30,-1
 418 216 l 2,31,32
 418 157 418 157 456 110.5 c 128,-1,33
 494 64 494 64 556 64 c 2,34,-1
 668 64 l 1,35,-1
 668 0 l 1,36,-1
 80 0 l 1,0,-1
EndSplineSet
EndChar

StartChar: O
Encoding: 47 79 47
Width: 1552
VWidth: 2078
Flags: W
HStem: -28 64<638.204 953.796> 1424 64<638.204 953.796>
VStem: 144 224<440.415 1018.96> 1224 224<440.415 1018.96>
AnchorPoint: "DotBelow" 796 -20 basechar 0
AnchorPoint: "Bottom" 796 0 basechar 0
AnchorPoint: "TopCap" 796 1580 basechar 0
LayerCount: 3
Fore
SplineSet
144 730 m 0
 144 969 218 1162 370 1314 c 0
 474 1418 630 1488 796 1488 c 0
 962 1488 1118 1418 1222 1314 c 0
 1374 1162 1448 969 1448 730 c 0
 1448 488 1374 298 1222 146 c 0
 1118 42 962 -28 796 -28 c 0
 630 -28 474 42 370 146 c 0
 218 298 144 488 144 730 c 0
368 730 m 0
 368 526 394 320 506 179 c 0
 598 63 684 36 796 36 c 0
 908 36 994 63 1086 179 c 0
 1198 320 1224 526 1224 730 c 0
 1224 934 1198 1140 1086 1281 c 0
 994 1397 908 1424 796 1424 c 0
 684 1424 598 1397 506 1281 c 0
 394 1140 368 934 368 730 c 0
EndSplineSet
Validated: 19457
Layer: 2
SplineSet
144 730 m 128,-1,1
 144 1088 144 1088 370 1314 c 0,2,3
 450 1394 450 1394 562 1441 c 128,-1,4
 674 1488 674 1488 796 1488 c 128,-1,5
 918 1488 918 1488 1030 1441 c 128,-1,6
 1142 1394 1142 1394 1222 1314 c 0,7,8
 1448 1088 1448 1088 1448 730 c 128,-1,9
 1448 372 1448 372 1222 146 c 0,10,11
 1142 66 1142 66 1030 19 c 128,-1,12
 918 -28 918 -28 796 -28 c 128,-1,13
 674 -28 674 -28 562 19 c 128,-1,14
 450 66 450 66 370 146 c 0,15,0
 144 372 144 372 144 730 c 128,-1,1
368 730 m 128,-1,17
 368 353 368 353 506 179 c 0,18,19
 571 97 571 97 638 66.5 c 128,-1,20
 705 36 705 36 796 36 c 128,-1,21
 887 36 887 36 954 66.5 c 128,-1,22
 1021 97 1021 97 1086 179 c 0,23,24
 1224 353 1224 353 1224 730 c 128,-1,25
 1224 1107 1224 1107 1086 1281 c 0,26,27
 1021 1363 1021 1363 954 1393.5 c 128,-1,28
 887 1424 887 1424 796 1424 c 128,-1,29
 705 1424 705 1424 638 1393.5 c 128,-1,30
 571 1363 571 1363 506 1281 c 0,31,16
 368 1107 368 1107 368 730 c 128,-1,17
EndSplineSet
EndChar

StartChar: P
Encoding: 48 80 48
Width: 1370
VWidth: 2078
Flags: W
HStem: 0 64<80 319.031 525.602 766> 676 64<514 960.465> 1396 64<80 319.031 514 945.945>
VStem: 330 184<69.8518 676 740 1390.81> 1106 204<888.593 1238.86>
AnchorPoint: "TopCap" 626 1580 basechar 0
AnchorPoint: "Bottom" 422 0 basechar 0
AnchorPoint: "DotBelow" 422 -20 basechar 0
LayerCount: 3
Fore
SplineSet
80 0 m 1
 80 64 l 1
 252 64 l 2
 304 64 330 92 330 144 c 2
 330 1316 l 2
 330 1368 304 1396 252 1396 c 2
 80 1396 l 1
 80 1460 l 1
 836 1460 l 2
 1148 1460 1310 1265 1310 1072 c 0
 1310 962 1271 828 1127 745 c 0
 1032 690 894 676 788 676 c 2
 514 676 l 1
 514 144 l 2
 514 92 542 64 594 64 c 2
 766 64 l 1
 766 0 l 1
 80 0 l 1
514 740 m 1
 814 740 l 2
 1006 740 1106 850 1106 1072 c 0
 1106 1294 980 1396 788 1396 c 2
 514 1396 l 1
 514 740 l 1
EndSplineSet
Validated: 19457
Layer: 2
SplineSet
80 0 m 1,0,-1
 80 64 l 1,1,-1
 252 64 l 2,2,3
 330 64 330 64 330 144 c 2,4,-1
 330 1316 l 2,5,6
 330 1396 330 1396 252 1396 c 2,7,-1
 80 1396 l 1,8,-1
 80 1460 l 1,9,-1
 836 1460 l 2,10,11
 949 1460 949 1460 1041 1426.5 c 128,-1,12
 1133 1393 1133 1393 1190.5 1338 c 128,-1,13
 1248 1283 1248 1283 1279 1214.5 c 128,-1,14
 1310 1146 1310 1146 1310 1072 c 0,15,16
 1310 976 1310 976 1268 889 c 128,-1,17
 1226 802 1226 802 1127 745 c 0,18,19
 1008 676 1008 676 788 676 c 2,20,-1
 514 676 l 1,21,-1
 514 144 l 2,22,23
 514 64 514 64 594 64 c 2,24,-1
 766 64 l 1,25,-1
 766 0 l 1,26,-1
 80 0 l 1,0,-1
514 740 m 1,27,-1
 814 740 l 2,28,29
 1106 740 1106 740 1106 1072 c 0,30,31
 1106 1234 1106 1234 1021.5 1315 c 128,-1,32
 937 1396 937 1396 788 1396 c 2,33,-1
 514 1396 l 1,34,-1
 514 740 l 1,27,-1
EndSplineSet
EndChar

StartChar: Q
Encoding: 49 81 49
Width: 1552
VWidth: 2078
Flags: W
HStem: -440 128<1083.43 1297.63> -28 64<673.673 877.239> 267 56<666.37 827.842> 1424 64<638.204 953.796>
VStem: 144 224<440.415 1018.96> 586 48<84.2469 229.828> 1224 224<440.415 1018.96> 1400 56<-215.746 8.9026>
AnchorPoint: "TopCap" 796 1580 basechar 0
LayerCount: 3
Fore
SplineSet
144 730 m 0xfd
 144 969 218 1162 370 1314 c 0
 474 1418 630 1488 796 1488 c 0
 962 1488 1118 1418 1222 1314 c 0
 1374 1162 1448 969 1448 730 c 0xfe
 1448 488 1374 298 1222 146 c 0
 1163 87 1086 38 1001 8 c 1
 1005 -22 1008 -52 1010 -78 c 0
 1027 -272 1118 -312 1206 -312 c 0
 1330 -312 1400 -216 1400 -113 c 0
 1400 -71 1397 -34 1382 0 c 1
 1429 21 l 1
 1446 -13 1456 -54 1456 -93 c 0
 1456 -359 1262 -440 1130 -440 c 0
 930 -440 860 -288 860 -172 c 0
 860 -146 870 -61 878 -22 c 1
 851 -26 824 -28 796 -28 c 0
 630 -28 474 42 370 146 c 0
 218 298 144 488 144 730 c 0xfd
368 730 m 0
 368 526 394 320 506 179 c 0
 538 139 577 99 604 82 c 1
 607 85 l 1
 593 105 586 130 586 158 c 0
 586 256 659 323 748 323 c 0
 841 323 882 297 926 246 c 0
 957 210 976 150 989 86 c 1
 1021 108 1053 138 1086 179 c 0
 1198 320 1224 526 1224 730 c 0
 1224 934 1198 1140 1086 1281 c 0
 994 1397 908 1424 796 1424 c 0
 684 1424 598 1397 506 1281 c 0
 394 1140 368 934 368 730 c 0
634 160 m 0
 634 119 647 87 672 66 c 0
 700 43 730 36 796 36 c 0
 829 36 859 38 889 45 c 1
 891 66 892 87 892 104 c 0
 892 191 840 267 736 267 c 0
 674 267 634 221 634 160 c 0
EndSplineSet
Validated: 19457
Layer: 2
SplineSet
144 730 m 128,-1,1
 144 1088 144 1088 370 1314 c 0,2,3
 450 1394 450 1394 562 1441 c 128,-1,4
 674 1488 674 1488 796 1488 c 128,-1,5
 918 1488 918 1488 1030 1441 c 128,-1,6
 1142 1394 1142 1394 1222 1314 c 0,7,8
 1448 1088 1448 1088 1448 730 c 128,-1,9
 1448 372 1448 372 1222 146 c 0,10,11
 1129 53 1129 53 1001 8 c 1,12,13
 1007 -34 1007 -34 1010 -78 c 0,14,15
 1022 -211 1022 -211 1075 -261.5 c 128,-1,16
 1128 -312 1128 -312 1206 -312 c 0,17,18
 1295 -312 1295 -312 1347.5 -253.5 c 128,-1,19
 1400 -195 1400 -195 1400 -113 c 0,20,21
 1400 -41 1400 -41 1382 0 c 1,22,-1
 1429 21 l 1,23,24
 1456 -33 1456 -33 1456 -93 c 0,25,26
 1456 -169 1456 -169 1434.5 -230.5 c 128,-1,27
 1413 -292 1413 -292 1379.5 -330.5 c 128,-1,28
 1346 -369 1346 -369 1301.5 -394.5 c 128,-1,29
 1257 -420 1257 -420 1214.5 -430 c 128,-1,30
 1172 -440 1172 -440 1130 -440 c 0,31,32
 1072 -440 1072 -440 1025 -423 c 128,-1,33
 978 -406 978 -406 948 -379 c 128,-1,34
 918 -352 918 -352 897.5 -316.5 c 128,-1,35
 877 -281 877 -281 868.5 -245 c 128,-1,36
 860 -209 860 -209 860 -172 c 0,37,38
 860 -110 860 -110 878 -22 c 1,39,40
 838 -28 838 -28 796 -28 c 0,41,42
 674 -28 674 -28 562 19 c 128,-1,43
 450 66 450 66 370 146 c 0,44,0
 144 372 144 372 144 730 c 128,-1,1
368 730 m 128,-1,46
 368 353 368 353 506 179 c 0,47,48
 563 108 563 108 604 82 c 1,49,-1
 607 85 l 1,50,51
 586 115 586 115 586 158 c 0,52,53
 586 230 586 230 633 276.5 c 128,-1,54
 680 323 680 323 748 323 c 0,55,56
 814 323 814 323 852.5 305 c 128,-1,57
 891 287 891 287 926 246 c 0,58,59
 966 200 966 200 989 86 c 1,60,61
 1039 120 1039 120 1086 179 c 0,62,63
 1224 353 1224 353 1224 730 c 128,-1,64
 1224 1107 1224 1107 1086 1281 c 0,65,66
 1021 1363 1021 1363 954 1393.5 c 128,-1,67
 887 1424 887 1424 796 1424 c 128,-1,68
 705 1424 705 1424 638 1393.5 c 128,-1,69
 571 1363 571 1363 506 1281 c 0,70,45
 368 1107 368 1107 368 730 c 128,-1,46
634 160 m 0,71,72
 634 98 634 98 672 66 c 0,73,74
 693 49 693 49 719.5 42.5 c 128,-1,75
 746 36 746 36 796 36 c 0,76,77
 850 36 850 36 889 45 c 1,78,79
 892 76 892 76 892 104 c 0,80,81
 892 173 892 173 851 220 c 128,-1,82
 810 267 810 267 736 267 c 0,83,84
 690 267 690 267 662 236.5 c 128,-1,85
 634 206 634 206 634 160 c 0,71,72
EndSplineSet
EndChar

StartChar: R
Encoding: 50 82 50
Width: 1532
VWidth: 2078
Flags: W
HStem: -28 104<1269.7 1402.99> 0 64<80 319.031 525.602 766> 694 64<514 912.244> 1396 64<80 319.031 514 945.945>
VStem: 330 184<69.8518 694 758 1390.81> 1106 204<903.078 1238.86> 1460 44<207.457 369>
AnchorPoint: "DotBelow" 816 -20 basechar 0
AnchorPoint: "Bottom" 816 0 basechar 0
AnchorPoint: "TopCap" 716 1580 basechar 0
LayerCount: 3
Fore
SplineSet
80 0 m 1x7e
 80 64 l 1
 252 64 l 2x7e
 304 64 330 92 330 144 c 2
 330 1316 l 2
 330 1368 304 1396 252 1396 c 2
 80 1396 l 1
 80 1460 l 1
 836 1460 l 2
 1148 1460 1310 1265 1310 1072 c 0
 1310 962 1262 844 1127 774 c 0
 1083 751 1013 730 956 720 c 1
 956 707 l 1
 1024 687 1059 671 1107 616 c 0
 1186 526 1206 406 1224 280 c 0
 1236 195 1259 76 1331 76 c 0
 1434 76 1456 262 1460 369 c 1
 1504 369 l 1
 1504 174 1458 -28 1286 -28 c 0xbe
 1204 -28 1130 -16 1079 74 c 0
 1033 155 1016 270 1008 372 c 0
 1000 474 987 578 936 640 c 0
 892 694 856 694 796 694 c 2
 514 694 l 1
 514 144 l 2
 514 92 542 64 594 64 c 2
 766 64 l 1
 766 0 l 1
 80 0 l 1x7e
514 758 m 1
 814 758 l 2
 1006 758 1106 855 1106 1072 c 0
 1106 1294 980 1396 788 1396 c 2
 514 1396 l 1
 514 758 l 1
EndSplineSet
Validated: 19457
Layer: 2
SplineSet
80 0 m 1,0,-1
 80 64 l 1,1,-1
 252 64 l 2,2,3
 330 64 330 64 330 144 c 2,4,-1
 330 1316 l 2,5,6
 330 1396 330 1396 252 1396 c 2,7,-1
 80 1396 l 1,8,-1
 80 1460 l 1,9,-1
 836 1460 l 2,10,11
 949 1460 949 1460 1041 1426.5 c 128,-1,12
 1133 1393 1133 1393 1190.5 1338 c 128,-1,13
 1248 1283 1248 1283 1279 1214.5 c 128,-1,14
 1310 1146 1310 1146 1310 1072 c 0,15,16
 1310 982 1310 982 1266 902.5 c 128,-1,17
 1222 823 1222 823 1127 774 c 0,18,19
 1058 738 1058 738 956 720 c 1,20,-1
 956 707 l 1,21,22
 1011 691 1011 691 1042 673 c 128,-1,23
 1073 655 1073 655 1107 616 c 0,24,25
 1160 555 1160 555 1183.5 477.5 c 128,-1,26
 1207 400 1207 400 1224 280 c 0,27,28
 1230 241 1230 241 1236.5 211 c 128,-1,29
 1243 181 1243 181 1255 147 c 128,-1,30
 1267 113 1267 113 1286 94.5 c 128,-1,31
 1305 76 1305 76 1331 76 c 0,32,33
 1367 76 1367 76 1393.5 105.5 c 128,-1,34
 1420 135 1420 135 1433 184 c 128,-1,35
 1446 233 1446 233 1452 277 c 128,-1,36
 1458 321 1458 321 1460 369 c 1,37,-1
 1504 369 l 1,38,39
 1504 307 1504 307 1498 252.5 c 128,-1,40
 1492 198 1492 198 1476.5 145.5 c 128,-1,41
 1461 93 1461 93 1437 55.5 c 128,-1,42
 1413 18 1413 18 1374.5 -5 c 128,-1,43
 1336 -28 1336 -28 1286 -28 c 0,44,45
 1213 -28 1213 -28 1163.5 -8 c 128,-1,46
 1114 12 1114 12 1079 74 c 0,47,48
 1024 171 1024 171 1008 372 c 0,49,50
 1001 466 1001 466 986 532 c 128,-1,51
 971 598 971 598 936 640 c 0,52,53
 915 666 915 666 891.5 678 c 128,-1,54
 868 690 868 690 850.5 692 c 128,-1,55
 833 694 833 694 796 694 c 2,56,-1
 514 694 l 1,57,-1
 514 144 l 2,58,59
 514 64 514 64 594 64 c 2,60,-1
 766 64 l 1,61,-1
 766 0 l 1,62,-1
 80 0 l 1,0,-1
514 758 m 1,63,-1
 814 758 l 2,64,65
 960 758 960 758 1033 834.5 c 128,-1,66
 1106 911 1106 911 1106 1072 c 0,67,68
 1106 1234 1106 1234 1021.5 1315 c 128,-1,69
 937 1396 937 1396 788 1396 c 2,70,-1
 514 1396 l 1,71,-1
 514 758 l 1,63,-1
EndSplineSet
EndChar

StartChar: S
Encoding: 51 83 51
Width: 1332
Flags: W
HStem: -28 64<585.281 935.5> 911 21G<1084 1144> 1424 64<447.966 770.378>
VStem: 148 54<558.656 671> 180 130<1047.61 1278.35> 1096 48<912 1015.22> 1114 96<179.239 433.805>
AnchorPoint: "DotBelow" 658 -20 basechar 0
AnchorPoint: "Bottom" 658 0 basechar 0
AnchorPoint: "TopCap" 658 1580 basechar 0
LayerCount: 3
Fore
SplineSet
148 -28 m 25xf2
 148 671 l 25
 202 671 l 17
 238 510 268 399 355 276 c 0
 458 130 550 36 778 36 c 0
 958 36 1114 148 1114 299 c 0xf2
 1114 500 901 582 670 657 c 0
 412 741 180 833 180 1095 c 0
 180 1323 355 1488 583 1488 c 0
 763 1488 880 1436 990 1356 c 9
 1018 1356 l 25
 1102 1488 l 25
 1144 1488 l 25
 1144 912 l 25
 1096 911 l 17
 1072 1029 1042 1173 946 1275 c 0
 856 1371 739 1424 584 1424 c 0
 438 1424 310 1331 310 1184 c 0xec
 310 984 540 900 745 837 c 0
 1005 757 1210 656 1210 396 c 0
 1210 92 1027 -28 766 -28 c 0
 638 -28 536 0 436 74 c 0
 399 101 358 134 326 166 c 9
 307 166 l 25
 196 -28 l 25
 148 -28 l 25xf2
EndSplineSet
Validated: 19457
Layer: 2
SplineSet
148 -28 m 1,0,-1
 148 671 l 1,1,-1
 202 671 l 1,2,3
 233 532 233 532 264 446.5 c 128,-1,4
 295 361 295 361 355 276 c 0,5,6
 399 214 399 214 434 175.5 c 128,-1,7
 469 137 469 137 518.5 102.5 c 128,-1,8
 568 68 568 68 631.5 52 c 128,-1,9
 695 36 695 36 778 36 c 0,10,11
 915 36 915 36 1014.5 111.5 c 128,-1,12
 1114 187 1114 187 1114 299 c 0,13,14
 1114 341 1114 341 1101 378.5 c 128,-1,15
 1088 416 1088 416 1067 445 c 128,-1,16
 1046 474 1046 474 1011 501 c 128,-1,17
 976 528 976 528 942 547.5 c 128,-1,18
 908 567 908 567 858 588.5 c 128,-1,19
 808 610 808 610 768 624 c 128,-1,20
 728 638 728 638 670 657 c 0,21,22
 606 678 606 678 561 694 c 128,-1,23
 516 710 516 710 460.5 734.5 c 128,-1,24
 405 759 405 759 368 782.5 c 128,-1,25
 331 806 331 806 292.5 839 c 128,-1,26
 254 872 254 872 231.5 908.5 c 128,-1,27
 209 945 209 945 194.5 992.5 c 128,-1,28
 180 1040 180 1040 180 1095 c 0,29,30
 180 1265 180 1265 295.5 1376.5 c 128,-1,31
 411 1488 411 1488 583 1488 c 0,32,33
 710 1488 710 1488 805 1454.5 c 128,-1,34
 900 1421 900 1421 990 1356 c 1,35,-1
 1018 1356 l 1,36,-1
 1102 1488 l 1,37,-1
 1144 1488 l 1,38,-1
 1144 912 l 1,39,-1
 1096 911 l 1,40,41
 1080 991 1080 991 1067.5 1039 c 128,-1,42
 1055 1087 1055 1087 1023 1157.5 c 128,-1,43
 991 1228 991 1228 946 1275 c 0,44,45
 806 1424 806 1424 584 1424 c 0,46,47
 471 1424 471 1424 390.5 1357.5 c 128,-1,48
 310 1291 310 1291 310 1184 c 0,49,50
 310 1142 310 1142 324 1105 c 128,-1,51
 338 1068 338 1068 360 1039 c 128,-1,52
 382 1010 382 1010 417.5 983 c 128,-1,53
 453 956 453 956 487 937 c 128,-1,54
 521 918 521 918 569.5 898.5 c 128,-1,55
 618 879 618 879 656 866 c 128,-1,56
 694 853 694 853 745 837 c 0,57,58
 831 810 831 810 894 785 c 128,-1,59
 957 760 957 760 1020 722 c 128,-1,60
 1083 684 1083 684 1122 640 c 128,-1,61
 1161 596 1161 596 1185.5 534 c 128,-1,62
 1210 472 1210 472 1210 396 c 0,63,64
 1210 178 1210 178 1091.5 75 c 128,-1,65
 973 -28 973 -28 766 -28 c 0,66,67
 574 -28 574 -28 436 74 c 0,68,69
 369 123 369 123 326 166 c 1,70,-1
 307 166 l 1,71,-1
 196 -28 l 1,72,-1
 148 -28 l 1,0,-1
EndSplineSet
EndChar

StartChar: T
Encoding: 52 84 52
Width: 1444
VWidth: 2078
Flags: W
HStem: 0 64<394 637.133 847.5 1092> 1396 64<403.764 650 834 1080.24>
VStem: 116 56<844 1043.62> 650 184<71.2987 1396> 1312 56<844 1043.62>
CounterMasks: 1 38
AnchorPoint: "DotBelow" 742 -20 basechar 0
AnchorPoint: "Bottom" 742 0 basechar 0
AnchorPoint: "TopCap" 742 1580 basechar 0
LayerCount: 3
Fore
SplineSet
116 844 m 1
 122 1460 l 1
 1362 1460 l 1
 1368 844 l 1
 1312 844 l 1
 1304 988 1265 1168 1199 1264 c 0
 1157 1326 1064 1396 947 1396 c 2
 834 1396 l 1
 834 144 l 2
 834 92 868 64 920 64 c 2
 1092 64 l 1
 1092 0 l 1
 476 0 1010 0 394 0 c 1
 394 64 l 1
 566 64 l 2
 618 64 650 92 650 144 c 2
 650 1396 l 1
 537 1396 l 2
 420 1396 327 1326 285 1264 c 0
 219 1168 180 988 172 844 c 1
 116 844 l 1
EndSplineSet
Validated: 19457
Layer: 2
SplineSet
116 844 m 1,0,-1
 122 1460 l 1,1,-1
 1362 1460 l 1,2,-1
 1368 844 l 1,3,-1
 1312 844 l 1,4,5
 1306 960 1306 960 1276 1078 c 128,-1,6
 1246 1196 1246 1196 1199 1264 c 0,7,8
 1163 1317 1163 1317 1095.5 1356.5 c 128,-1,9
 1028 1396 1028 1396 947 1396 c 2,10,-1
 834 1396 l 1,11,-1
 834 144 l 2,12,13
 834 106 834 106 857 85 c 128,-1,14
 880 64 880 64 920 64 c 2,15,-1
 1092 64 l 1,16,-1
 1092 0 l 1,17,-1
 394 0 l 1,18,-1
 394 64 l 1,19,-1
 566 64 l 2,20,21
 605 64 605 64 627.5 84.5 c 128,-1,22
 650 105 650 105 650 144 c 2,23,-1
 650 1396 l 1,24,-1
 537 1396 l 2,25,26
 456 1396 456 1396 388.5 1356.5 c 128,-1,27
 321 1317 321 1317 285 1264 c 0,28,29
 238 1196 238 1196 208 1078 c 128,-1,30
 178 960 178 960 172 844 c 1,31,-1
 116 844 l 1,0,-1
EndSplineSet
EndChar

StartChar: U
Encoding: 53 85 53
Width: 1630
VWidth: 2078
Flags: W
HStem: -28 64<686.587 1045.71> 1396 64<80 319.031 524.969 764 1016 1213.01 1406.99 1604>
VStem: 330 184<202.113 1390.81> 1266 88<207.667 1354.91>
AnchorPoint: "DotBelow" 872 -20 basechar 0
AnchorPoint: "Bottom" 872 0 basechar 0
AnchorPoint: "TopCap" 872 1580 basechar 0
LayerCount: 3
Fore
SplineSet
80 1396 m 1
 80 1460 l 1
 764 1460 l 1
 764 1396 l 1
 592 1396 l 2
 540 1396 514 1368 514 1316 c 2
 514 372 l 2
 514 148 616 36 868 36 c 0
 1149 36 1266 216 1266 357 c 2
 1266 1244 l 2
 1266 1316 1216 1396 1128 1396 c 2
 1016 1396 l 1
 1016 1460 l 1
 1604 1460 l 1
 1604 1396 l 1
 1492 1396 l 2
 1404 1396 1354 1316 1354 1244 c 2
 1354 386 l 2
 1354 160 1185 -28 868 -28 c 0
 444 -28 330 180 330 420 c 2
 330 1316 l 2
 330 1368 304 1396 252 1396 c 2
 80 1396 l 1
EndSplineSet
Validated: 19457
Layer: 2
SplineSet
80 1396 m 1,0,-1
 80 1460 l 1,1,-1
 764 1460 l 1,2,-1
 764 1396 l 1,3,-1
 592 1396 l 2,4,5
 514 1396 514 1396 514 1316 c 2,6,-1
 514 372 l 2,7,8
 514 201 514 201 598 118.5 c 128,-1,9
 682 36 682 36 868 36 c 0,10,11
 968 36 968 36 1047.5 66 c 128,-1,12
 1127 96 1127 96 1173 144 c 128,-1,13
 1219 192 1219 192 1242.5 247 c 128,-1,14
 1266 302 1266 302 1266 357 c 2,15,-1
 1266 1244 l 2,16,17
 1266 1303 1266 1303 1228 1349.5 c 128,-1,18
 1190 1396 1190 1396 1128 1396 c 2,19,-1
 1016 1396 l 1,20,-1
 1016 1460 l 1,21,-1
 1604 1460 l 1,22,-1
 1604 1396 l 1,23,-1
 1492 1396 l 2,24,25
 1430 1396 1430 1396 1392 1349.5 c 128,-1,26
 1354 1303 1354 1303 1354 1244 c 2,27,-1
 1354 386 l 2,28,29
 1354 300 1354 300 1322 225.5 c 128,-1,30
 1290 151 1290 151 1230.5 94.5 c 128,-1,31
 1171 38 1171 38 1077.5 5 c 128,-1,32
 984 -28 984 -28 868 -28 c 0,33,34
 330 -28 330 -28 330 420 c 2,35,-1
 330 1316 l 2,36,37
 330 1396 330 1396 252 1396 c 2,38,-1
 80 1396 l 1,0,-1
EndSplineSet
EndChar

StartChar: V
Encoding: 54 86 54
Width: 1496
VWidth: 2078
Flags: W
HStem: -26 21G<675.671 750.959> 1396 64<36 202.951 476.046 708 832 1045.47 1284.83 1482>
DStem2: 775 298 682 -26 0.3017 -0.953403<-1063.24 0> 775 298 744 -26 0.32864 0.944455<0 1011.93>
AnchorPoint: "DotBelow" 708 -20 basechar 0
AnchorPoint: "Bottom" 708 0 basechar 0
AnchorPoint: "TopCap" 736 1580 basechar 0
LayerCount: 3
Fore
SplineSet
36 1396 m 1
 36 1460 l 1
 708 1460 l 1
 708 1396 l 1
 542 1396 l 2
 500 1396 460 1366 460 1314 c 0
 460 1304 463 1284 466 1274 c 2
 775 298 l 1
 1063 1135 l 2
 1074 1167 1090 1237 1090 1261 c 0
 1090 1317 1074 1396 924 1396 c 2
 832 1396 l 1
 832 1460 l 1
 1482 1460 l 1
 1482 1396 l 1
 1396 1396 l 2
 1294 1396 1218 1333 1172 1204 c 2
 744 -26 l 1
 682 -26 l 1
 301 1178 l 2
 261 1304 210 1396 130 1396 c 2
 36 1396 l 1
EndSplineSet
Validated: 19457
Layer: 2
SplineSet
36 1396 m 1,0,-1
 36 1460 l 1,1,-1
 708 1460 l 1,2,-1
 708 1396 l 1,3,-1
 542 1396 l 2,4,5
 509 1396 509 1396 484.5 1373.5 c 128,-1,6
 460 1351 460 1351 460 1314 c 0,7,8
 460 1294 460 1294 466 1274 c 2,9,-1
 775 298 l 1,10,-1
 1063 1135 l 2,11,12
 1072 1160 1072 1160 1081 1202 c 128,-1,13
 1090 1244 1090 1244 1090 1261 c 0,14,15
 1090 1286 1090 1286 1084.5 1306 c 128,-1,16
 1079 1326 1079 1326 1063.5 1348.5 c 128,-1,17
 1048 1371 1048 1371 1012.5 1383.5 c 128,-1,18
 977 1396 977 1396 924 1396 c 2,19,-1
 832 1396 l 1,20,-1
 832 1460 l 1,21,-1
 1482 1460 l 1,22,-1
 1482 1396 l 1,23,-1
 1396 1396 l 2,24,25
 1240 1396 1240 1396 1172 1204 c 1,26,-1
 744 -26 l 1,27,-1
 682 -26 l 1,28,-1
 301 1178 l 2,29,30
 268 1282 268 1282 227 1339 c 128,-1,31
 186 1396 186 1396 130 1396 c 2,32,-1
 36 1396 l 1,0,-1
EndSplineSet
EndChar

StartChar: W
Encoding: 55 87 55
Width: 2200
VWidth: 2078
Flags: W
HStem: -26 21G<642.236 716.474 1403.24 1477.47> 1396 64<8 202.951 476.046 680 770 980.474 1235.87 1442 1536 1741.47 1993.97 2186>
VStem: 1025 196<1138.16 1365.09>
DStem2: 741 308 648 -26 0.276934 -0.960889<-1044.01 0> 741 308 710 -26 0.307975 0.951394<0 872.717> 1227 1274 1080 1117 0.276608 -0.960983<110.213 1004.38> 1502 308 1471 -26 0.307861 0.951431<0 993.041>
AnchorPoint: "DotBelow" 1102 -20 basechar 0
AnchorPoint: "Bottom" 1102 0 basechar 0
AnchorPoint: "TopCap" 1102 1580 basechar 0
LayerCount: 3
Fore
SplineSet
8 1396 m 1
 8 1460 l 1
 680 1460 l 1
 680 1396 l 1
 542 1396 l 2
 500 1396 460 1366 460 1314 c 0
 460 1304 463 1284 466 1274 c 2
 741 308 l 1
 998 1135 l 2
 1009 1167 1025 1237 1025 1261 c 0
 1025 1317 1009 1396 859 1396 c 2
 770 1396 l 1
 770 1460 l 1
 1442 1460 l 1
 1442 1396 l 1
 1303 1396 l 2
 1261 1396 1221 1369 1221 1318 c 0
 1221 1308 1224 1284 1227 1274 c 2
 1502 308 l 1
 1759 1135 l 2
 1770 1167 1786 1237 1786 1261 c 0
 1786 1317 1770 1396 1620 1396 c 2
 1536 1396 l 1
 1536 1460 l 1
 2186 1460 l 1
 2186 1396 l 1
 2112 1396 l 2
 2010 1396 1915 1333 1869 1204 c 2
 1471 -26 l 1
 1409 -26 l 1
 1080 1117 l 1
 710 -26 l 1
 648 -26 l 1
 301 1178 l 2
 261 1304 210 1396 130 1396 c 2
 8 1396 l 1
EndSplineSet
Validated: 19457
Layer: 2
SplineSet
8 1396 m 1,0,-1
 8 1460 l 1,1,-1
 680 1460 l 1,2,-1
 680 1396 l 1,3,-1
 542 1396 l 2,4,5
 509 1396 509 1396 484.5 1373.5 c 128,-1,6
 460 1351 460 1351 460 1314 c 0,7,8
 460 1294 460 1294 466 1274 c 2,9,-1
 741 308 l 1,10,-1
 998 1135 l 1,11,12
 1007 1160 1007 1160 1016 1202 c 128,-1,13
 1025 1244 1025 1244 1025 1261 c 0,14,15
 1025 1286 1025 1286 1019.5 1306 c 128,-1,16
 1014 1326 1014 1326 998.5 1348.5 c 128,-1,17
 983 1371 983 1371 947.5 1383.5 c 128,-1,18
 912 1396 912 1396 859 1396 c 2,19,-1
 770 1396 l 1,20,-1
 770 1460 l 1,21,-1
 1442 1460 l 1,22,-1
 1442 1396 l 1,23,-1
 1303 1396 l 2,24,25
 1269 1396 1269 1396 1245 1375 c 128,-1,26
 1221 1354 1221 1354 1221 1318 c 0,27,28
 1221 1294 1221 1294 1227 1274 c 2,29,-1
 1502 308 l 1,30,-1
 1759 1135 l 1,31,32
 1768 1160 1768 1160 1777 1202 c 128,-1,33
 1786 1244 1786 1244 1786 1261 c 0,34,35
 1786 1286 1786 1286 1780.5 1306 c 128,-1,36
 1775 1326 1775 1326 1759.5 1348.5 c 128,-1,37
 1744 1371 1744 1371 1708.5 1383.5 c 128,-1,38
 1673 1396 1673 1396 1620 1396 c 2,39,-1
 1536 1396 l 1,40,-1
 1536 1460 l 1,41,-1
 2186 1460 l 1,42,-1
 2186 1396 l 1,43,-1
 2112 1396 l 2,44,45
 2033 1396 2033 1396 1967.5 1347 c 128,-1,46
 1902 1298 1902 1298 1869 1204 c 1,47,-1
 1471 -26 l 1,48,-1
 1409 -26 l 1,49,-1
 1080 1117 l 1,50,-1
 710 -26 l 1,51,-1
 648 -26 l 1,52,-1
 301 1178 l 1,53,54
 268 1282 268 1282 227 1339 c 128,-1,55
 186 1396 186 1396 130 1396 c 2,56,-1
 8 1396 l 1,0,-1
EndSplineSet
EndChar

StartChar: X
Encoding: 56 88 56
Width: 1592
VWidth: 2078
Flags: W
HStem: 0 64<80 234.15 527.426 716 898 1093.89 1415.75 1586> 1396 64<136 320.229 627.82 800 944 1119.36 1364.73 1580>
DStem2: 368 198 546 300 0.593581 0.804774<58.5494 628.364 856.029 1386.83> 876 887 760 729 0.539496 -0.841988<-508.128 0 158.116 750.674>
AnchorPoint: "DotBelow" 812 -20 basechar 0
AnchorPoint: "Bottom" 812 0 basechar 0
AnchorPoint: "TopCap" 848 1580 basechar 0
LayerCount: 3
Fore
SplineSet
80 0 m 1
 80 64 l 1
 206 68 306 114 368 198 c 2
 760 729 l 1
 408 1278 l 2
 392 1304 366 1330 338 1352 c 0
 302 1382 252 1396 222 1396 c 2
 136 1396 l 1
 136 1460 l 1
 800 1460 l 1
 800 1396 l 1
 702 1396 l 2
 654 1396 612 1366 612 1322 c 0
 612 1308 621 1282 630 1268 c 2
 876 887 l 1
 1110 1204 l 2
 1153 1263 1166 1306 1166 1334 c 0
 1166 1360 1156 1384 1120 1390 c 0
 1107 1393 1055 1396 1004 1396 c 2
 1004 1396 962 1396 944 1396 c 1
 944 1460 l 1
 1580 1460 l 1
 1580 1396 l 1
 1403 1396 1327 1361 1282 1300 c 2
 924 814 l 1
 1326 192 l 2
 1348 158 1374 130 1402 106 c 0
 1436 80 1458 64 1512 64 c 2
 1586 64 l 1
 1586 0 l 1
 898 0 l 1
 898 64 l 1
 1026 64 l 2
 1070 64 1112 98 1112 146 c 0
 1112 160 1109 184 1100 198 c 2
 807 655 l 1
 546 300 l 2
 502 240 498 192 498 174 c 0
 498 134 526 64 598 64 c 2
 716 64 l 1
 716 0 l 1
 80 0 l 1
EndSplineSet
Validated: 19457
Layer: 2
SplineSet
80 0 m 1,0,-1
 80 64 l 1,1,2
 274 70 274 70 368 198 c 2,3,-1
 760 729 l 1,4,-1
 408 1278 l 2,5,6
 385 1315 385 1315 338 1352 c 1,7,8
 285 1396 285 1396 222 1396 c 2,9,-1
 136 1396 l 1,10,-1
 136 1460 l 1,11,-1
 800 1460 l 1,12,-1
 800 1396 l 1,13,-1
 702 1396 l 2,14,15
 665 1396 665 1396 638.5 1375 c 128,-1,16
 612 1354 612 1354 612 1322 c 0,17,18
 612 1296 612 1296 630 1268 c 2,19,-1
 876 887 l 1,20,-1
 1110 1204 l 2,21,22
 1166 1281 1166 1281 1166 1334 c 0,23,24
 1166 1382 1166 1382 1120 1390 c 1,25,26
 1094 1396 1094 1396 1004 1396 c 2,27,-1
 944 1396 l 1,28,-1
 944 1460 l 1,29,-1
 1580 1460 l 1,30,-1
 1580 1396 l 1,31,32
 1453 1396 1453 1396 1385.5 1372.5 c 128,-1,33
 1318 1349 1318 1349 1282 1300 c 2,34,-1
 924 814 l 1,35,-1
 1326 192 l 2,36,37
 1356 145 1356 145 1402 106 c 1,38,39
 1432 83 1432 83 1453.5 73.5 c 128,-1,40
 1475 64 1475 64 1512 64 c 2,41,-1
 1586 64 l 1,42,-1
 1586 0 l 1,43,-1
 898 0 l 1,44,-1
 898 64 l 1,45,-1
 1026 64 l 2,46,47
 1060 64 1060 64 1086 87.5 c 128,-1,48
 1112 111 1112 111 1112 146 c 0,49,50
 1112 179 1112 179 1100 198 c 2,51,-1
 807 655 l 1,52,-1
 546 300 l 2,53,54
 498 235 498 235 498 174 c 0,55,56
 498 136 498 136 523.5 100 c 128,-1,57
 549 64 549 64 598 64 c 2,58,-1
 716 64 l 1,59,-1
 716 0 l 1,60,-1
 80 0 l 1,0,-1
EndSplineSet
EndChar

StartChar: Y
Encoding: 57 89 57
Width: 1660
VWidth: 2078
Flags: W
HStem: 0 64<496 735.031 940.969 1180> 1396 64<88 274.569 575.074 783 976 1187.36 1416.07 1612>
VStem: 746 184<69.1875 664>
DStem2: 893 755 746 664 0.532228 -0.846601<-654.559 -1.19682> 893 755 930 674 0.555313 0.831641<0 669.779>
AnchorPoint: "DotBelow" 838 -20 basechar 0
AnchorPoint: "Bottom" 838 0 basechar 0
AnchorPoint: "TopCap" 856 1580 basechar 0
LayerCount: 3
Fore
SplineSet
88 1396 m 1
 88 1460 l 1
 783 1460 l 1
 783 1396 l 1
 639 1396 l 2
 591 1396 564 1366 564 1322 c 0
 564 1308 573 1282 582 1268 c 2
 893 755 l 1
 1186 1204 l 2
 1226 1265 1234 1306 1234 1334 c 0
 1234 1360 1224 1384 1188 1390 c 0
 1175 1393 1123 1396 1072 1396 c 2
 1072 1396 994 1396 976 1396 c 1
 976 1460 l 1
 1612 1460 l 1
 1612 1396 l 1
 1435 1396 1391 1363 1348 1300 c 2
 930 674 l 9
 930 144 l 2
 930 92 956 64 1008 64 c 2
 1180 64 l 1
 1180 0 l 1
 496 0 l 1
 496 64 l 1
 668 64 l 2
 720 64 746 92 746 144 c 2
 746 664 l 17
 360 1278 l 2
 346 1300 316 1334 287 1356 c 0
 250 1384 204 1396 174 1396 c 2
 88 1396 l 1
EndSplineSet
Validated: 19457
Layer: 2
SplineSet
88 1396 m 1,0,-1
 88 1460 l 1,1,-1
 783 1460 l 1,2,-1
 783 1396 l 1,3,-1
 639 1396 l 2,4,5
 604 1396 604 1396 584 1376 c 128,-1,6
 564 1356 564 1356 564 1322 c 0,7,8
 564 1296 564 1296 582 1268 c 2,9,-1
 893 755 l 1,10,-1
 1186 1204 l 2,11,12
 1234 1277 1234 1277 1234 1334 c 0,13,14
 1234 1382 1234 1382 1188 1390 c 1,15,16
 1162 1396 1162 1396 1072 1396 c 2,17,-1
 976 1396 l 1,18,-1
 976 1460 l 1,19,-1
 1612 1460 l 1,20,-1
 1612 1396 l 1,21,22
 1526 1396 1526 1396 1474 1384 c 128,-1,23
 1422 1372 1422 1372 1397 1353.5 c 128,-1,24
 1372 1335 1372 1335 1348 1300 c 2,25,-1
 930 674 l 1,26,-1
 930 144 l 2,27,28
 930 64 930 64 1008 64 c 2,29,-1
 1180 64 l 1,30,-1
 1180 0 l 1,31,-1
 496 0 l 1,32,-1
 496 64 l 1,33,-1
 668 64 l 2,34,35
 746 64 746 64 746 144 c 2,36,-1
 746 664 l 1,37,-1
 360 1278 l 2,38,39
 332 1322 332 1322 287 1356 c 0,40,41
 234 1396 234 1396 174 1396 c 2,42,-1
 88 1396 l 1,0,-1
EndSplineSet
EndChar

StartChar: Z
Encoding: 58 90 58
Width: 1412
VWidth: 2078
Flags: W
HStem: 0 72<353 1002.59> 1396 64<528 1070>
VStem: 224 52<844 978.259> 1242 60<617.45 628>
DStem2: 102 48 353 72 0.583288 0.812265<165.9 1659.56>
AnchorPoint: "DotBelow" 692 -20 basechar 0
AnchorPoint: "Bottom" 692 0 basechar 0
AnchorPoint: "TopCap" 776 1580 basechar 0
LayerCount: 3
Fore
SplineSet
102 0 m 1
 102 48 l 1
 1070 1396 l 1
 696 1396 l 2
 556 1396 481 1357 417 1268 c 0
 346 1170 304 1020 276 844 c 1
 224 844 l 1
 236 1460 l 1
 1316 1460 l 1
 1316 1416 l 1
 353 72 l 1
 843 72 l 2
 954 72 1056 117 1113 195 c 0
 1201 315 1227 474 1242 628 c 1
 1302 628 l 1
 1282 0 l 1
 102 0 l 1
EndSplineSet
Validated: 19457
Layer: 2
SplineSet
102 0 m 1,0,-1
 102 48 l 1,1,-1
 1070 1396 l 1,2,-1
 696 1396 l 2,3,4
 593 1396 593 1396 529.5 1366 c 128,-1,5
 466 1336 466 1336 417 1268 c 0,6,7
 323 1138 323 1138 276 844 c 1,8,-1
 224 844 l 1,9,-1
 236 1460 l 1,10,-1
 1316 1460 l 1,11,-1
 1316 1416 l 1,12,-1
 353 72 l 1,13,-1
 843 72 l 2,14,15
 927 72 927 72 999 104.5 c 128,-1,16
 1071 137 1071 137 1113 195 c 0,17,18
 1173 277 1173 277 1200.5 383 c 128,-1,19
 1228 489 1228 489 1242 628 c 1,20,-1
 1302 628 l 1,21,-1
 1282 0 l 1,22,-1
 102 0 l 1,0,-1
EndSplineSet
EndChar

StartChar: bracketleft
Encoding: 59 91 59
Width: 780
VWidth: 2078
Flags: W
HStem: -536 56<394.156 684> 1404 56<392.978 684>
VStem: 232 146<-473 1397.77>
LayerCount: 3
Fore
SplineSet
232 -536 m 1
 232 1460 l 1
 684 1460 l 1
 684 1404 l 1
 472 1404 l 2
 400 1404 378 1380 378 1308 c 2
 378 -380 l 2
 378 -452 400 -480 472 -480 c 2
 684 -480 l 1
 684 -536 l 1
 232 -536 l 1
EndSplineSet
Validated: 19457
Layer: 2
SplineSet
232 -536 m 1,0,-1
 232 1460 l 1,1,-1
 684 1460 l 1,2,-1
 684 1404 l 1,3,-1
 472 1404 l 2,4,5
 418 1404 418 1404 398 1383 c 128,-1,6
 378 1362 378 1362 378 1308 c 2,7,-1
 378 -380 l 2,8,9
 378 -435 378 -435 398.5 -457.5 c 128,-1,10
 419 -480 419 -480 472 -480 c 2,11,-1
 684 -480 l 1,12,-1
 684 -536 l 1,13,-1
 232 -536 l 1,0,-1
EndSplineSet
EndChar

StartChar: backslash
Encoding: 60 92 60
Width: 722
VWidth: 2078
Flags: W
HStem: -468 21G<527.394 634> 1440 20G<88 194.606>
VStem: 88 546
DStem2: 190 1460 88 1460 0.224417 -0.974493<0 1955.57>
LayerCount: 3
Fore
SplineSet
88 1460 m 1
 190 1460 l 1
 634 -468 l 1
 532 -468 l 1
 88 1460 l 1
EndSplineSet
Validated: 19457
Layer: 2
SplineSet
88 1460 m 1,0,-1
 190 1460 l 1,1,-1
 634 -468 l 1,2,-1
 532 -468 l 1,3,-1
 88 1460 l 1,0,-1
EndSplineSet
EndChar

StartChar: bracketright
Encoding: 61 93 61
Width: 780
VWidth: 2078
Flags: W
HStem: -536 56<96 387.022> 1404 56<96 385.844>
VStem: 402 146<-473.771 1397>
LayerCount: 3
Fore
SplineSet
96 -480 m 1
 308 -480 l 2
 380 -480 402 -456 402 -384 c 2
 402 1304 l 2
 402 1376 380 1404 308 1404 c 2
 96 1404 l 1
 96 1460 l 1
 548 1460 l 1
 548 -536 l 1
 96 -536 l 1
 96 -480 l 1
EndSplineSet
Validated: 19457
Layer: 2
SplineSet
96 -480 m 1,0,-1
 308 -480 l 2,1,2
 362 -480 362 -480 382 -459 c 128,-1,3
 402 -438 402 -438 402 -384 c 2,4,-1
 402 1304 l 2,5,6
 402 1359 402 1359 381.5 1381.5 c 128,-1,7
 361 1404 361 1404 308 1404 c 2,8,-1
 96 1404 l 1,9,-1
 96 1460 l 1,10,-1
 548 1460 l 1,11,-1
 548 -536 l 1,12,-1
 96 -536 l 1,13,-1
 96 -480 l 1,0,-1
EndSplineSet
EndChar

StartChar: asciicircum
Encoding: 62 94 62
Width: 1152
VWidth: 1882
Flags: W
HStem: 1360 104<476 676>
DStem2: 42 738 127 684 0.556284 0.830992<2.41056 813.933> 624 1464 576 1360 0.556284 -0.830992<59.7215 871.244>
LayerCount: 3
Fore
SplineSet
42 738 m 1
 528 1464 l 1
 624 1464 l 1
 1110 738 l 1
 1025 684 l 1
 576 1360 l 1
 127 684 l 1
 42 738 l 1
EndSplineSet
Validated: 19457
Layer: 2
SplineSet
42 738 m 1,0,-1
 528 1464 l 1,1,-1
 624 1464 l 1,2,-1
 1110 738 l 1,3,-1
 1025 684 l 1,4,-1
 576 1360 l 1,5,-1
 127 684 l 1,6,-1
 42 738 l 1,0,-1
EndSplineSet
EndChar

StartChar: underscore
Encoding: 63 95 63
Width: 1024
VWidth: 2078
Flags: W
HStem: -352 96<0 1024>
LayerCount: 3
Fore
SplineSet
0 -256 m 1
 1024 -256 l 1
 1024 -352 l 1
 0 -352 l 1
 0 -256 l 1
EndSplineSet
Validated: 19457
Layer: 2
SplineSet
0 -256 m 1,0,-1
 1024 -256 l 1,1,-1
 1024 -352 l 1,2,-1
 0 -352 l 1,3,-1
 0 -256 l 1,0,-1
EndSplineSet
EndChar

StartChar: grave
Encoding: 64 96 64
AltUni2: 0002cb.ffffffff.0
Width: 880
VWidth: 2078
Flags: W
HStem: 1056 406
VStem: 150 398
LayerCount: 3
Fore
SplineSet
150 1393 m 0
 150 1432 176 1462 220 1462 c 0
 270 1462 309 1416 344 1368 c 2
 548 1085 l 1
 518 1056 l 1
 248 1267 l 2
 207 1299 150 1347 150 1393 c 0
EndSplineSet
Validated: 19457
Layer: 2
SplineSet
150 1393 m 0,0,1
 150 1423 150 1423 169 1442.5 c 128,-1,2
 188 1462 188 1462 220 1462 c 0,3,4
 254 1462 254 1462 283 1437 c 128,-1,5
 312 1412 312 1412 344 1368 c 2,6,-1
 548 1085 l 1,7,-1
 518 1056 l 1,8,-1
 248 1267 l 2,9,10
 150 1343 150 1343 150 1393 c 0,0,1
EndSplineSet
EndChar

StartChar: a
Encoding: 65 97 65
Width: 1032
VWidth: 2079
Flags: W
HStem: -16 88<787.472 901.62> -16 72<313.644 478.443> 517 42<559.835 640> 860 56<318.397 543.557>
VStem: 88 170<100.702 326.122> 136 146<644.5 807.656> 640 146<75.3282 156 178.713 517 549.263 749.48> 924 44<116.596 405>
AnchorPoint: "DotBelow" 468 -20 basechar 0
AnchorPoint: "Bottom" 468 0 basechar 0
AnchorPoint: "Grave" 468 980 basechar 0
AnchorPoint: "Acute" 468 980 basechar 0
AnchorPoint: "Dotaccent" 468 1020 basechar 0
AnchorPoint: "Top" 468 1000 basechar 0
LayerCount: 3
Fore
SplineSet
88 190 m 0x7b
 88 343 226 428 367 480 c 0
 473 519 532 535 640 559 c 1
 640 636 l 2
 640 724 594 860 448 860 c 0
 408 860 364 858 333 842 c 0
 303 827 282 811 282 782 c 0
 282 762 295 735 306 721 c 0
 328 694 343 662 343 639 c 0
 343 598 324 552 256 552 c 0
 184 552 136 609 136 680 c 0
 136 798 238 916 438 916 c 0
 684 916 786 750 786 562 c 2
 786 127 l 2
 786 90 814 72 834 72 c 0
 915 72 924 162 924 269 c 0
 924 313 921 360 918 405 c 1
 962 405 l 1
 966 364 968 318 968 269 c 0
 968 132 951 -16 806 -16 c 0xb7
 708 -16 640 38 640 156 c 1
 634 159 l 1
 565 71 475 -16 340 -16 c 0
 202 -16 88 44 88 190 c 0x7b
258 212 m 0x7b
 258 129 321 56 404 56 c 0
 499 56 588 161 640 233 c 1
 640 517 l 1
 543 496 474 472 388 424 c 0
 304 377 258 310 258 212 c 0x7b
EndSplineSet
Validated: 19457
Layer: 2
SplineSet
88 190 m 0,0,1
 88 377 88 377 367 480 c 0,2,3
 493 526 493 526 640 559 c 1,4,-1
 640 636 l 2,5,6
 640 672 640 672 630 708.5 c 128,-1,7
 620 745 620 745 599 780.5 c 128,-1,8
 578 816 578 816 539 838 c 128,-1,9
 500 860 500 860 448 860 c 0,10,11
 368 860 368 860 333 842 c 0,12,13
 282 816 282 816 282 782 c 0,14,15
 282 752 282 752 306 721 c 1,16,17
 343 676 343 676 343 639 c 0,18,19
 343 603 343 603 323 577.5 c 128,-1,20
 303 552 303 552 256 552 c 0,21,22
 203 552 203 552 169.5 589 c 128,-1,23
 136 626 136 626 136 680 c 0,24,25
 136 776 136 776 216 846 c 128,-1,26
 296 916 296 916 438 916 c 0,27,28
 527 916 527 916 595.5 887.5 c 128,-1,29
 664 859 664 859 704.5 809 c 128,-1,30
 745 759 745 759 765.5 697 c 128,-1,31
 786 635 786 635 786 562 c 2,32,-1
 786 127 l 2,33,34
 786 101 786 101 801.5 86.5 c 128,-1,35
 817 72 817 72 834 72 c 0,36,37
 863 72 863 72 882 86.5 c 128,-1,38
 901 101 901 101 909.5 131 c 128,-1,39
 918 161 918 161 921 192 c 128,-1,40
 924 223 924 223 924 269 c 128,-1,41
 924 315 924 315 918 405 c 1,42,-1
 962 405 l 1,43,44
 968 344 968 344 968 269 c 0,45,46
 968 209 968 209 962.5 165.5 c 128,-1,47
 957 122 957 122 941.5 77 c 128,-1,48
 926 32 926 32 892 8 c 128,-1,49
 858 -16 858 -16 806 -16 c 0,50,51
 729 -16 729 -16 684.5 27 c 128,-1,52
 640 70 640 70 640 156 c 1,53,-1
 634 159 l 1,54,55
 571 79 571 79 501.5 31.5 c 128,-1,56
 432 -16 432 -16 340 -16 c 0,57,58
 229 -16 229 -16 158.5 35 c 128,-1,59
 88 86 88 86 88 190 c 0,0,1
258 212 m 0,60,61
 258 149 258 149 300.5 102.5 c 128,-1,62
 343 56 343 56 404 56 c 0,63,64
 512 56 512 56 640 233 c 1,65,-1
 640 517 l 1,66,67
 501 487 501 487 388 424 c 0,68,69
 258 351 258 351 258 212 c 0,60,61
EndSplineSet
EndChar

StartChar: b
Encoding: 66 98 66
Width: 1094
VWidth: 2079
Flags: W
HStem: -16 56<517.36 715.242> 0 21G<186 228.733> 860 56<517.179 715.242> 1404 56<12 182.969>
VStem: 186 146<229.6 670.4 736 1403.81> 840 170<228.985 671.015>
AnchorPoint: "DotBelow" 580 -20 basechar 0
AnchorPoint: "Acute" 258 1480 basechar 0
AnchorPoint: "Top" 528 1500 basechar 0
AnchorPoint: "Dotaccent" 616 1000 basechar 0
AnchorPoint: "Bottom" 580 0 basechar 0
LayerCount: 3
Fore
SplineSet
12 1404 m 1x7c
 12 1460 l 1
 100 1460 332 1472 332 1472 c 1
 332 736 l 1
 340 734 l 1
 394 830 499 916 617 916 c 0
 837 916 1010 722 1010 450 c 0
 1010 178 837 -16 617 -16 c 0xbc
 462 -16 360 82 307 202 c 1
 290 202 l 1
 222 0 l 1
 186 0 l 1
 186 1354 l 2
 186 1388 170 1404 136 1404 c 2
 12 1404 l 1x7c
332 450 m 0
 332 206 473 40 617 40 c 0
 765 40 840 180 840 450 c 0
 840 720 765 860 617 860 c 0
 473 860 332 694 332 450 c 0
EndSplineSet
Validated: 19457
Layer: 2
SplineSet
12 1404 m 1,0,-1
 12 1460 l 1,1,-1
 332 1472 l 1,2,-1
 332 736 l 1,3,-1
 340 734 l 1,4,5
 383 811 383 811 458 863.5 c 128,-1,6
 533 916 533 916 617 916 c 0,7,8
 784 916 784 916 897 784 c 128,-1,9
 1010 652 1010 652 1010 450 c 128,-1,10
 1010 248 1010 248 897 116 c 128,-1,11
 784 -16 784 -16 617 -16 c 0,12,13
 507 -16 507 -16 428.5 44.5 c 128,-1,14
 350 105 350 105 307 202 c 1,15,-1
 290 202 l 1,16,-1
 222 0 l 1,17,-1
 186 0 l 1,18,-1
 186 1354 l 2,19,20
 186 1404 186 1404 136 1404 c 2,21,-1
 12 1404 l 1,0,-1
332 450 m 128,-1,23
 332 273 332 273 418 156.5 c 128,-1,24
 504 40 504 40 617 40 c 0,25,26
 840 40 840 40 840 450 c 128,-1,27
 840 860 840 860 617 860 c 0,28,29
 504 860 504 860 418 743.5 c 128,-1,22
 332 627 332 627 332 450 c 128,-1,23
EndSplineSet
EndChar

StartChar: c
Encoding: 67 99 67
Width: 940
VWidth: 2079
Flags: W
HStem: -16 56<394.613 636.086> 860 56<424.031 669.632>
VStem: 84 170<230.58 660.414> 696 134<643 805.47> 806 58<234.172 351>
AnchorPoint: "DotBelow" 508 -20 basechar 0
AnchorPoint: "Bottom" 508 0 basechar 0
AnchorPoint: "Acute" 548 980 basechar 0
AnchorPoint: "Grave" 548 980 basechar 0
AnchorPoint: "Dotaccent" 548 1020 basechar 0
AnchorPoint: "Top" 548 1000 basechar 0
LayerCount: 3
Fore
SplineSet
84 450 m 0xe8
 84 717 264 916 548 916 c 0
 762 916 830 759 830 679 c 0
 830 607 787 548 713 548 c 0
 661 548 621 583 621 634 c 0
 621 676 643 712 664 733 c 0
 688 758 696 772 696 794 c 0xf0
 696 813 674 860 546 860 c 0
 334 860 254 662 254 450 c 0
 254 238 304 40 508 40 c 0
 718 40 790 214 806 351 c 9
 864 351 l 17
 856 210 772 -16 508 -16 c 0
 250 -16 84 184 84 450 c 0xe8
EndSplineSet
Validated: 19457
Layer: 2
SplineSet
84 450 m 0,0,1
 84 654 84 654 211 785 c 128,-1,2
 338 916 338 916 548 916 c 0,3,4
 609 916 609 916 659 899 c 128,-1,5
 709 882 709 882 740 856 c 128,-1,6
 771 830 771 830 792 797 c 128,-1,7
 813 764 813 764 821.5 734.5 c 128,-1,8
 830 705 830 705 830 679 c 0,9,10
 830 623 830 623 798.5 585.5 c 128,-1,11
 767 548 767 548 713 548 c 0,12,13
 674 548 674 548 647.5 572 c 128,-1,14
 621 596 621 596 621 634 c 0,15,16
 621 690 621 690 664 733 c 0,17,18
 696 766 696 766 696 794 c 0,19,20
 696 801 696 801 693 808.5 c 128,-1,21
 690 816 690 816 680 825.5 c 128,-1,22
 670 835 670 835 654.5 842.5 c 128,-1,23
 639 850 639 850 610.5 855 c 128,-1,24
 582 860 582 860 546 860 c 0,25,26
 484 860 484 860 434.5 837.5 c 128,-1,27
 385 815 385 815 351.5 777 c 128,-1,28
 318 739 318 739 296 686 c 128,-1,29
 274 633 274 633 264 574.5 c 128,-1,30
 254 516 254 516 254 450 c 0,31,32
 254 40 254 40 508 40 c 0,33,34
 583 40 583 40 640 68.5 c 128,-1,35
 697 97 697 97 730.5 145 c 128,-1,36
 764 193 764 193 781.5 243.5 c 128,-1,37
 799 294 799 294 806 351 c 1,38,-1
 864 351 l 1,39,40
 861 305 861 305 849.5 258.5 c 128,-1,41
 838 212 838 212 811 161.5 c 128,-1,42
 784 111 784 111 745.5 72.5 c 128,-1,43
 707 34 707 34 645.5 9 c 128,-1,44
 584 -16 584 -16 508 -16 c 0,45,46
 317 -16 317 -16 200.5 115.5 c 128,-1,47
 84 247 84 247 84 450 c 0,0,1
EndSplineSet
EndChar

StartChar: d
Encoding: 68 100 68
Width: 1126
VWidth: 2079
Flags: W
HStem: -16 56<378.758 575.075> 0 56<911.58 1082> 860 56<378.758 575.23> 1404 56<455 740.989>
VStem: 84 170<228.985 671.015> 762 146<56.199 162 229.6 670.4 736 1393.89>
AnchorPoint: "Grave" 834 1480 basechar 0
AnchorPoint: "Acute" 834 1480 basechar 0
AnchorPoint: "Top" 640 1500 basechar 0
AnchorPoint: "Dotaccent" 308 1020 basechar 0
AnchorPoint: "DotBelow" 592 -20 basechar 0
AnchorPoint: "Bottom" 592 0 basechar 0
LayerCount: 3
Fore
SplineSet
84 450 m 0xbc
 84 722 257 916 477 916 c 0
 611 916 700 839 756 734 c 1
 762 736 l 1
 762 1302 l 2
 762 1374 732 1404 660 1404 c 2
 455 1404 l 1
 455 1460 l 1
 567 1460 908 1472 908 1472 c 1
 908 106 l 2
 908 73 925 56 958 56 c 2
 1082 56 l 1
 1082 0 l 1
 762 0 l 1x7c
 762 162 l 1
 756 164 l 1
 698 66 611 -16 477 -16 c 0
 257 -16 84 178 84 450 c 0xbc
254 450 m 0
 254 180 329 40 477 40 c 0xbc
 621 40 762 206 762 450 c 0
 762 694 621 860 477 860 c 0
 329 860 254 720 254 450 c 0
EndSplineSet
Validated: 19457
Layer: 2
SplineSet
84 450 m 128,-1,1
 84 652 84 652 197 784 c 128,-1,2
 310 916 310 916 477 916 c 0,3,4
 659 916 659 916 756 734 c 1,5,-1
 762 736 l 1,6,-1
 762 1302 l 2,7,8
 762 1356 762 1356 738 1380 c 128,-1,9
 714 1404 714 1404 660 1404 c 2,10,-1
 455 1404 l 1,11,-1
 455 1460 l 1,12,-1
 908 1472 l 1,13,-1
 908 106 l 2,14,15
 908 56 908 56 958 56 c 2,16,-1
 1082 56 l 1,17,-1
 1082 0 l 1,18,-1
 762 0 l 1,19,-1
 762 162 l 1,20,-1
 756 164 l 1,21,22
 649 -16 649 -16 477 -16 c 0,23,24
 310 -16 310 -16 197 116 c 128,-1,0
 84 248 84 248 84 450 c 128,-1,1
254 450 m 128,-1,26
 254 40 254 40 477 40 c 0,27,28
 590 40 590 40 676 156.5 c 128,-1,29
 762 273 762 273 762 450 c 128,-1,30
 762 627 762 627 676 743.5 c 128,-1,31
 590 860 590 860 477 860 c 0,32,25
 254 860 254 860 254 450 c 128,-1,26
EndSplineSet
EndChar

StartChar: e
Encoding: 69 101 69
Width: 940
VWidth: 2079
Flags: W
HStem: -16 56<394.613 636.086> 468 56<256 669.105> 860 56<394.229 591.074>
VStem: 84 170<234.051 468 524 666.39> 682 170<529.243 706.705> 806 58<234.172 351>
AnchorPoint: "DotBelow" 508 -20 basechar 0
AnchorPoint: "Bottom" 508 0 basechar 0
AnchorPoint: "Dotaccent" 508 1020 basechar 0
AnchorPoint: "Grave" 508 980 basechar 0
AnchorPoint: "Acute" 508 980 basechar 0
AnchorPoint: "Top" 508 1000 basechar 0
LayerCount: 3
Fore
SplineSet
84 450 m 0xf4
 84 717 250 916 508 916 c 0
 771 916 852 668 852 468 c 1xf8
 254 468 l 1
 254 450 l 2
 254 238 304 40 508 40 c 0
 718 40 790 214 806 351 c 9
 864 351 l 17
 856 210 772 -16 508 -16 c 0
 250 -16 84 184 84 450 c 0xf4
256 524 m 1
 601 524 l 2
 669 524 682 563 682 607 c 0
 682 703 648 860 508 860 c 0
 328 860 268 706 256 524 c 1
EndSplineSet
Validated: 19457
Layer: 2
SplineSet
84 450 m 128,-1,1
 84 653 84 653 200.5 784.5 c 128,-1,2
 317 916 317 916 508 916 c 0,3,4
 584 916 584 916 644.5 888.5 c 128,-1,5
 705 861 705 861 743 816.5 c 128,-1,6
 781 772 781 772 806.5 712 c 128,-1,7
 832 652 832 652 842 591.5 c 128,-1,8
 852 531 852 531 852 468 c 1,9,-1
 254 468 l 1,10,-1
 254 450 l 2,11,12
 254 40 254 40 508 40 c 0,13,14
 583 40 583 40 640 68.5 c 128,-1,15
 697 97 697 97 730.5 145 c 128,-1,16
 764 193 764 193 781.5 243.5 c 128,-1,17
 799 294 799 294 806 351 c 1,18,-1
 864 351 l 1,19,20
 861 305 861 305 849.5 258.5 c 128,-1,21
 838 212 838 212 811 161.5 c 128,-1,22
 784 111 784 111 745.5 72.5 c 128,-1,23
 707 34 707 34 645.5 9 c 128,-1,24
 584 -16 584 -16 508 -16 c 0,25,26
 317 -16 317 -16 200.5 115.5 c 128,-1,0
 84 247 84 247 84 450 c 128,-1,1
256 524 m 1,27,-1
 601 524 l 2,28,29
 648 524 648 524 665 546 c 128,-1,30
 682 568 682 568 682 607 c 0,31,32
 682 648 682 648 674 688 c 128,-1,33
 666 728 666 728 648 768.5 c 128,-1,34
 630 809 630 809 594 834.5 c 128,-1,35
 558 860 558 860 508 860 c 0,36,37
 278 860 278 860 256 524 c 1,27,-1
EndSplineSet
EndChar

StartChar: f
Encoding: 70 102 70
Width: 736
VWidth: 2079
Flags: W
HStem: 0 56<62 232.42 385.58 556> 844 56<62 236 382 600> 1432 56<488.523 663.972>
VStem: 236 146<56.21 844 900 1286.64> 678 146<1240 1398.37>
AnchorPoint: "Grave" 540 1480 basechar 0
AnchorPoint: "Acute" 540 1480 basechar 0
AnchorPoint: "Dotaccent" 566 1520 basechar 0
AnchorPoint: "Top" 540 1500 basechar 0
AnchorPoint: "DotBelow" 300 -20 basechar 0
AnchorPoint: "Bottom" 300 0 basechar 0
LayerCount: 3
Fore
SplineSet
62 0 m 1
 62 56 l 1
 186 56 l 2
 219 56 236 73 236 106 c 2
 236 844 l 1
 62 844 l 1
 62 900 l 1
 236 900 l 1
 236 1088 l 2
 236 1294 362 1488 602 1488 c 0
 714 1488 824 1390 824 1278 c 0
 824 1202 770 1140 702 1140 c 0
 646 1140 610 1182 610 1230 c 0
 610 1270 629 1295 651 1316 c 0
 668 1332 678 1347 678 1367 c 0
 678 1405 642 1432 590 1432 c 0
 480 1432 382 1366 382 1118 c 2
 382 900 l 1
 600 900 l 1
 600 844 l 1
 382 844 l 1
 382 106 l 2
 382 74 399 56 432 56 c 2
 556 56 l 1
 556 0 l 1
 62 0 l 1
EndSplineSet
Validated: 19457
Layer: 2
SplineSet
62 0 m 1,0,-1
 62 56 l 1,1,-1
 186 56 l 2,2,3
 236 56 236 56 236 106 c 2,4,-1
 236 844 l 1,5,-1
 62 844 l 1,6,-1
 62 900 l 1,7,-1
 236 900 l 1,8,-1
 236 1088 l 2,9,10
 236 1166 236 1166 260 1237.5 c 128,-1,11
 284 1309 284 1309 328.5 1365 c 128,-1,12
 373 1421 373 1421 444 1454.5 c 128,-1,13
 515 1488 515 1488 602 1488 c 0,14,15
 687 1488 687 1488 755.5 1424.5 c 128,-1,16
 824 1361 824 1361 824 1278 c 0,17,18
 824 1221 824 1221 788.5 1180.5 c 128,-1,19
 753 1140 753 1140 702 1140 c 0,20,21
 661 1140 661 1140 635.5 1166.5 c 128,-1,22
 610 1193 610 1193 610 1230 c 0,23,24
 610 1277 610 1277 651 1316 c 0,25,26
 678 1341 678 1341 678 1367 c 0,27,28
 678 1396 678 1396 653.5 1414 c 128,-1,29
 629 1432 629 1432 590 1432 c 0,30,31
 382 1432 382 1432 382 1118 c 2,32,-1
 382 900 l 1,33,-1
 600 900 l 1,34,-1
 600 844 l 1,35,-1
 382 844 l 1,36,-1
 382 106 l 2,37,38
 382 56 382 56 432 56 c 2,39,-1
 556 56 l 1,40,-1
 556 0 l 1,41,-1
 62 0 l 1,0,-1
EndSplineSet
EndChar

StartChar: g
Encoding: 71 103 71
Width: 1240
Flags: W
HStem: -552 56<340.465 726.362> -90 134<304.937 889.98> 222 56<251.195 338 446.99 661.796> 860 56<450.204 664.646 959.085 1054.56>
VStem: 80 124<-413.705 -216.788> 128 60<66.6258 178.665> 168 152<394.609 742.691> 792 152<395.309 736.895> 951 84<-354.054 -145.87> 1055 127<740.5 859.508>
AnchorPoint: "Grave" 568 980 basechar 0
AnchorPoint: "Acute" 568 980 basechar 0
AnchorPoint: "Dotaccent" 568 1020 basechar 0
AnchorPoint: "Top" 568 1000 basechar 0
LayerCount: 3
Fore
SplineSet
80 -321 m 0xf9c0
 80 -216 209 -133 306 -85 c 1
 306 -79 l 1
 218 -61 128 -11 128 109 c 0xf5c0
 128 209 242 262 338 272 c 1
 338 280 l 1
 230 337 168 432 168 569 c 0xf3c0
 168 795 352 916 556 916 c 0
 688 916 811 866 882 769 c 1
 902 834 947 916 1027 916 c 0
 1064 916 1098 909 1126 889 c 0
 1162 863 1182 822 1182 779 c 0
 1182 702 1147 632 1074 632 c 0
 1021 632 984 669 984 717 c 0
 984 751 1001 775 1020 790 c 0
 1038 804 1055 820 1055 835 c 0
 1055 853 1034 860 1011 860 c 0
 955 860 927 788 911 727 c 1
 932 684 944 618 944 569 c 0
 944 343 760 222 556 222 c 0
 539 222 514 223 489 227 c 0
 464 231 438 232 419 232 c 0
 327 232 188 203 188 122 c 0xf5c0
 188 44 279 44 348 44 c 2
 711 44 l 2
 885 44 1035 -57 1035 -226 c 0
 1035 -445 768 -552 549 -552 c 0
 345 -552 80 -513 80 -321 c 0xf9c0
204 -311 m 0xf9c0
 204 -465 400 -496 554 -496 c 0
 732 -496 951 -408 951 -234 c 0
 951 -126 826 -90 682 -90 c 2
 393 -90 l 1
 311 -124 204 -179 204 -311 c 0xf9c0
320 569 m 0xf3c0
 320 421 398 278 556 278 c 0
 714 278 792 421 792 569 c 0
 792 717 714 860 556 860 c 0
 398 860 320 717 320 569 c 0xf3c0
EndSplineSet
Validated: 19457
Layer: 2
SplineSet
80 -321 m 0,0,1
 80 -197 80 -197 306 -85 c 1,2,-1
 306 -79 l 1,3,4
 229 -63 229 -63 178.5 -18.5 c 128,-1,5
 128 26 128 26 128 109 c 0,6,7
 128 178 128 178 192 220.5 c 128,-1,8
 256 263 256 263 338 272 c 1,9,-1
 338 280 l 1,10,11
 168 370 168 370 168 569 c 0,12,13
 168 678 168 678 223 758.5 c 128,-1,14
 278 839 278 839 365 877.5 c 128,-1,15
 452 916 452 916 556 916 c 0,16,17
 657 916 657 916 743.5 878 c 128,-1,18
 830 840 830 840 882 769 c 1,19,20
 900 829 900 829 936.5 872.5 c 128,-1,21
 973 916 973 916 1027 916 c 0,22,23
 1088 916 1088 916 1126 889 c 0,24,25
 1182 849 1182 849 1182 779 c 0,26,27
 1182 717 1182 717 1154 674.5 c 128,-1,28
 1126 632 1126 632 1074 632 c 0,29,30
 1035 632 1035 632 1009.5 656.5 c 128,-1,31
 984 681 984 681 984 717 c 0,32,33
 984 762 984 762 1020 790 c 0,34,35
 1055 817 1055 817 1055 835 c 0,36,37
 1055 860 1055 860 1011 860 c 0,38,39
 946 860 946 860 911 727 c 1,40,41
 944 659 944 659 944 569 c 0,42,43
 944 460 944 460 889 379.5 c 128,-1,44
 834 299 834 299 747 260.5 c 128,-1,45
 660 222 660 222 556 222 c 0,46,47
 520 222 520 222 489 227 c 128,-1,48
 458 232 458 232 419 232 c 0,49,50
 368 232 368 232 318 222 c 128,-1,51
 268 212 268 212 228 186 c 128,-1,52
 188 160 188 160 188 122 c 0,53,54
 188 103 188 103 194.5 89 c 128,-1,55
 201 75 201 75 215 67 c 128,-1,56
 229 59 229 59 241.5 54 c 128,-1,57
 254 49 254 49 276.5 47 c 128,-1,58
 299 45 299 45 311.5 44.5 c 128,-1,59
 324 44 324 44 348 44 c 2,60,-1
 711 44 l 2,61,62
 847 44 847 44 941 -29.5 c 128,-1,63
 1035 -103 1035 -103 1035 -226 c 0,64,65
 1035 -289 1035 -289 1005.5 -343.5 c 128,-1,66
 976 -398 976 -398 927 -435.5 c 128,-1,67
 878 -473 878 -473 814.5 -500 c 128,-1,68
 751 -527 751 -527 683.5 -539.5 c 128,-1,69
 616 -552 616 -552 549 -552 c 128,-1,70
 482 -552 482 -552 421.5 -546.5 c 128,-1,71
 361 -541 361 -541 296.5 -525.5 c 128,-1,72
 232 -510 232 -510 186 -485.5 c 128,-1,73
 140 -461 140 -461 110 -418.5 c 128,-1,74
 80 -376 80 -376 80 -321 c 0,0,1
204 -311 m 0,75,76
 204 -366 204 -366 236 -404.5 c 128,-1,77
 268 -443 268 -443 322.5 -462 c 128,-1,78
 377 -481 377 -481 433 -488.5 c 128,-1,79
 489 -496 489 -496 554 -496 c 0,80,81
 648 -496 648 -496 736 -468 c 128,-1,82
 824 -440 824 -440 887.5 -378 c 128,-1,83
 951 -316 951 -316 951 -234 c 0,84,85
 951 -182 951 -182 912.5 -149 c 128,-1,86
 874 -116 874 -116 816.5 -103 c 128,-1,87
 759 -90 759 -90 682 -90 c 2,88,-1
 393 -90 l 1,89,90
 355 -106 355 -106 327.5 -121.5 c 128,-1,91
 300 -137 300 -137 269 -163 c 128,-1,92
 238 -189 238 -189 221 -226.5 c 128,-1,93
 204 -264 204 -264 204 -311 c 0,75,76
320 569 m 128,-1,95
 320 449 320 449 382 363.5 c 128,-1,96
 444 278 444 278 556 278 c 128,-1,97
 668 278 668 278 730 363.5 c 128,-1,98
 792 449 792 449 792 569 c 128,-1,99
 792 689 792 689 730 774.5 c 128,-1,100
 668 860 668 860 556 860 c 128,-1,101
 444 860 444 860 382 774.5 c 128,-1,94
 320 689 320 689 320 569 c 128,-1,95
EndSplineSet
EndChar

StartChar: h
Encoding: 72 104 72
Width: 1154
VWidth: 2079
Flags: W
HStem: 0 56<48 218.42 371.58 542 616 786.42 939.58 1110> 852 64<552.99 736.074> 1404 56<48 218.969>
VStem: 222 146<56.199 665.217 710 1403.81> 790 146<56.199 799.925>
AnchorPoint: "Acute" 294 1480 basechar 0
AnchorPoint: "Dotaccent" 624 1020 basechar 0
AnchorPoint: "DotBelow" 574 -20 basechar 0
AnchorPoint: "Bottom" 574 0 basechar 0
AnchorPoint: "Top" 564 1500 basechar 0
LayerCount: 3
Fore
SplineSet
48 0 m 1
 48 56 l 1
 172 56 l 2
 205 56 222 73 222 106 c 2
 222 1354 l 2
 222 1388 206 1404 172 1404 c 2
 48 1404 l 1
 48 1460 l 1
 136 1460 368 1472 368 1472 c 1
 368 710 l 1
 376 705 l 1
 447 817 545 916 663 916 c 0
 711 916 759 910 794 892 c 0
 894 842 936 735 936 646 c 2
 936 106 l 2
 936 73 953 56 986 56 c 2
 1110 56 l 1
 1110 0 l 1
 616 0 l 1
 616 56 l 1
 740 56 l 2
 773 56 790 73 790 106 c 2
 790 672 l 2
 790 768 752 852 640 852 c 0
 581 852 516 801 466 740 c 0
 428 694 398 645 368 584 c 1
 368 106 l 2
 368 73 385 56 418 56 c 2
 542 56 l 1
 542 0 l 1
 48 0 l 1
EndSplineSet
Validated: 19457
Layer: 2
SplineSet
48 0 m 1,0,-1
 48 56 l 1,1,-1
 172 56 l 2,2,3
 222 56 222 56 222 106 c 2,4,-1
 222 1354 l 2,5,6
 222 1404 222 1404 172 1404 c 2,7,-1
 48 1404 l 1,8,-1
 48 1460 l 1,9,-1
 368 1472 l 1,10,-1
 368 710 l 1,11,-1
 376 705 l 1,12,13
 510 916 510 916 663 916 c 0,14,15
 747 916 747 916 794 892 c 0,16,17
 864 857 864 857 900 788 c 128,-1,18
 936 719 936 719 936 646 c 2,19,-1
 936 106 l 2,20,21
 936 56 936 56 986 56 c 2,22,-1
 1110 56 l 1,23,-1
 1110 0 l 1,24,-1
 616 0 l 1,25,-1
 616 56 l 1,26,-1
 740 56 l 2,27,28
 790 56 790 56 790 106 c 2,29,-1
 790 672 l 2,30,31
 790 752 790 752 754.5 802 c 128,-1,32
 719 852 719 852 640 852 c 0,33,34
 558 852 558 852 466 740 c 0,35,36
 413 676 413 676 368 584 c 1,37,-1
 368 106 l 2,38,39
 368 56 368 56 418 56 c 2,40,-1
 542 56 l 1,41,-1
 542 0 l 1,42,-1
 48 0 l 1,0,-1
EndSplineSet
EndChar

StartChar: k
Encoding: 75 107 75
Width: 1190
VWidth: 2079
Flags: W
HStem: 0 56<48 218.42 371.58 542 630 739.538 981.501 1110> 846 54<564 749.171 982.48 1108> 1404 56<48 218.969>
VStem: 222 146<56.199 348 416 1403.81>
DStem2: 368 416 368 348 0.78637 0.617756<0 108.404 246.796 525.02> 597 524 487 440 0.624418 -0.78109<0 429.031>
AnchorPoint: "Top" 564 1500 basechar 0
AnchorPoint: "Bottom" 574 0 basechar 0
AnchorPoint: "DotBelow" 574 -20 basechar 0
AnchorPoint: "Dotaccent" 624 1020 basechar 0
AnchorPoint: "Acute" 294 1480 basechar 0
LayerCount: 3
Fore
SplineSet
48 0 m 1
 48 56 l 1
 172 56 l 2
 205 56 222 73 222 106 c 2
 222 1354 l 2
 222 1388 206 1404 172 1404 c 2
 48 1404 l 1
 48 1460 l 1
 136 1460 368 1472 368 1472 c 1
 368 416 l 1
 730 700 l 2
 756 721 766 750 766 778 c 0
 766 817 727 846 686 846 c 2
 564 846 l 1
 564 900 l 1
 1108 900 l 1
 1108 846 l 1
 1064 846 1041 842 1005 829 c 0
 962 813 937 795 895 762 c 2
 597 524 l 1
 872 180 l 2
 899 147 926 119 964 94 c 0
 1017 59 1074 56 1110 56 c 1
 1110 0 l 1
 630 0 l 1
 630 56 l 1
 692 56 l 2
 714 56 740 66 740 88 c 0
 740 110 722 137 704 160 c 2
 487 440 l 1
 368 348 l 1
 368 106 l 2
 368 73 385 56 418 56 c 2
 542 56 l 1
 542 0 l 1
 48 0 l 1
EndSplineSet
Validated: 19457
Layer: 2
SplineSet
48 0 m 1,0,-1
 48 56 l 1,1,-1
 172 56 l 2,2,3
 222 56 222 56 222 106 c 2,4,-1
 222 1354 l 2,5,6
 222 1404 222 1404 172 1404 c 2,7,-1
 48 1404 l 1,8,-1
 48 1460 l 1,9,-1
 368 1472 l 1,10,-1
 368 416 l 1,11,-1
 730 700 l 2,12,13
 766 729 766 729 766 778 c 0,14,15
 766 807 766 807 742 826.5 c 128,-1,16
 718 846 718 846 686 846 c 2,17,-1
 564 846 l 1,18,-1
 564 900 l 1,19,-1
 1108 900 l 1,20,-1
 1108 846 l 1,21,22
 1052 846 1052 846 1005 829 c 128,-1,23
 958 812 958 812 895 762 c 2,24,-1
 597 524 l 1,25,-1
 872 180 l 2,26,27
 917 125 917 125 964 94 c 0,28,29
 1022 56 1022 56 1110 56 c 1,30,-1
 1110 0 l 1,31,-1
 630 0 l 1,32,-1
 630 56 l 1,33,-1
 692 56 l 2,34,35
 711 56 711 56 725.5 64.5 c 128,-1,36
 740 73 740 73 740 88 c 0,37,38
 740 114 740 114 704 160 c 2,39,-1
 487 440 l 1,40,-1
 368 348 l 1,41,-1
 368 106 l 2,42,43
 368 56 368 56 418 56 c 2,44,-1
 542 56 l 1,45,-1
 542 0 l 1,46,-1
 48 0 l 1,0,-1
EndSplineSet
EndChar

StartChar: l
Encoding: 76 108 76
Width: 586
VWidth: 2079
Flags: W
HStem: 0 56<48 218.42 371.58 542> 1404 56<48 218.969>
VStem: 222 146<56.199 1403.81>
AnchorPoint: "DotBelow" 294 -20 basechar 0
AnchorPoint: "Bottom" 294 0 basechar 0
AnchorPoint: "Dotaccent" 256 1520 basechar 0
AnchorPoint: "Grave" 268 1480 basechar 0
AnchorPoint: "Top" 256 1500 basechar 0
LayerCount: 3
Fore
SplineSet
48 0 m 9
 48 56 l 25
 172 56 l 18
 205 56 222 73 222 106 c 10
 222 1354 l 18
 222 1388 206 1404 172 1404 c 2
 48 1404 l 1
 48 1460 l 1
 136 1460 368 1472 368 1472 c 9
 368 106 l 18
 368 73 385 56 418 56 c 10
 542 56 l 25
 542 0 l 17
 48 0 l 9
EndSplineSet
Validated: 19457
Layer: 2
SplineSet
48 0 m 1,0,-1
 48 56 l 1,1,-1
 172 56 l 2,2,3
 222 56 222 56 222 106 c 2,4,-1
 222 1354 l 2,5,6
 222 1404 222 1404 172 1404 c 2,7,-1
 48 1404 l 1,8,-1
 48 1460 l 1,9,-1
 368 1472 l 1,10,-1
 368 106 l 2,11,12
 368 56 368 56 418 56 c 2,13,-1
 542 56 l 1,14,-1
 542 0 l 1,15,-1
 48 0 l 1,0,-1
EndSplineSet
EndChar

StartChar: m
Encoding: 77 109 77
Width: 1716
VWidth: 2079
Flags: W
HStem: 0 56<62 232.42 385.58 556 620 790.42 943.172 1114 1178 1348.42 1501.58 1672> 844 56<62 232.969> 852 64<582.746 749.511 1133.72 1306.98>
VStem: 236 146<56.199 622.457 687 843.812> 794 146<56.199 617.203> 1352 146<56.199 811.23>
CounterMasks: 1 1c
AnchorPoint: "DotBelow" 848 -20 basechar 0
AnchorPoint: "Dotaccent" 848 1020 basechar 0
AnchorPoint: "Grave" 848 980 basechar 0
AnchorPoint: "Acute" 848 980 basechar 0
AnchorPoint: "Top" 848 1000 basechar 0
AnchorPoint: "Bottom" 848 0 basechar 0
LayerCount: 3
Fore
SplineSet
62 0 m 1xbc
 62 56 l 1
 186 56 l 2
 219 56 236 73 236 106 c 2
 236 794 l 2
 236 828 220 844 186 844 c 2
 62 844 l 1
 62 900 l 1xdc
 150 900 382 912 382 912 c 1
 382 687 l 1
 390 683 l 1
 452 790 555 916 689 916 c 0
 856 916 932 810 940 682 c 1
 948 679 l 1
 1024 814 1113 916 1245 916 c 0
 1421 916 1498 788 1498 654 c 2
 1498 106 l 2
 1498 73 1515 56 1548 56 c 2
 1672 56 l 1
 1672 0 l 1
 1178 0 l 1
 1178 56 l 1
 1302 56 l 2
 1335 56 1352 73 1352 106 c 2
 1352 672 l 2
 1352 768 1327 852 1215 852 c 0
 1146 852 1076 778 1019 687 c 0
 974 615 940 497 940 417 c 2
 940 106 l 2
 940 72 957 56 990 56 c 2
 1114 56 l 1
 1114 0 l 1
 620 0 l 1
 620 56 l 1
 744 56 l 2
 777 56 794 73 794 106 c 2
 794 672 l 2
 794 768 772 852 660 852 c 0
 595 852 524 780 462 687 c 0
 402 597 382 497 382 417 c 2
 382 106 l 2
 382 73 399 56 432 56 c 2
 556 56 l 1
 556 0 l 1
 62 0 l 1xbc
EndSplineSet
Validated: 19457
Layer: 2
SplineSet
62 0 m 1,0,-1
 62 56 l 1,1,-1
 186 56 l 2,2,3
 236 56 236 56 236 106 c 2,4,-1
 236 794 l 2,5,6
 236 844 236 844 186 844 c 2,7,-1
 62 844 l 1,8,-1
 62 900 l 1,9,-1
 382 912 l 1,10,-1
 382 687 l 1,11,-1
 390 683 l 1,12,13
 447 781 447 781 522.5 848.5 c 128,-1,14
 598 916 598 916 689 916 c 0,15,16
 808 916 808 916 871 850.5 c 128,-1,17
 934 785 934 785 940 682 c 1,18,-1
 948 679 l 1,19,20
 1012 792 1012 792 1082.5 854 c 128,-1,21
 1153 916 1153 916 1245 916 c 0,22,23
 1369 916 1369 916 1433.5 840 c 128,-1,24
 1498 764 1498 764 1498 654 c 2,25,-1
 1498 106 l 2,26,27
 1498 56 1498 56 1548 56 c 2,28,-1
 1672 56 l 1,29,-1
 1672 0 l 1,30,-1
 1178 0 l 1,31,-1
 1178 56 l 1,32,-1
 1302 56 l 2,33,34
 1352 56 1352 56 1352 106 c 2,35,-1
 1352 672 l 2,36,37
 1352 755 1352 755 1322 803.5 c 128,-1,38
 1292 852 1292 852 1215 852 c 0,39,40
 1122 852 1122 852 1019 687 c 0,41,42
 985 633 985 633 962.5 555 c 128,-1,43
 940 477 940 477 940 417 c 2,44,-1
 940 106 l 2,45,46
 940 56 940 56 990 56 c 2,47,-1
 1114 56 l 1,48,-1
 1114 0 l 1,49,-1
 620 0 l 1,50,-1
 620 56 l 1,51,-1
 744 56 l 2,52,53
 794 56 794 56 794 106 c 2,54,-1
 794 672 l 2,55,56
 794 756 794 756 765.5 804 c 128,-1,57
 737 852 737 852 660 852 c 0,58,59
 572 852 572 852 462 687 c 0,60,61
 382 567 382 567 382 417 c 2,62,-1
 382 106 l 2,63,64
 382 56 382 56 432 56 c 2,65,-1
 556 56 l 1,66,-1
 556 0 l 1,67,-1
 62 0 l 1,0,-1
EndSplineSet
EndChar

StartChar: n
Encoding: 78 110 78
Width: 1168
VWidth: 2079
Flags: W
HStem: 0 56<62 232.42 385.58 556 630 800.42 953.58 1124> 844 56<62 232.969> 852 64<566.99 750.074>
VStem: 236 146<56.199 665.217 710 843.812> 804 146<56.199 799.925>
AnchorPoint: "Dotaccent" 566 1020 basechar 0
AnchorPoint: "Grave" 566 980 basechar 0
AnchorPoint: "Acute" 566 980 basechar 0
AnchorPoint: "Top" 566 1000 basechar 0
AnchorPoint: "DotBelow" 588 -20 basechar 0
AnchorPoint: "Bottom" 588 0 basechar 0
LayerCount: 3
Fore
SplineSet
62 0 m 1xb8
 62 56 l 1
 186 56 l 2
 219 56 236 73 236 106 c 2
 236 794 l 2
 236 828 220 844 186 844 c 2
 62 844 l 1
 62 900 l 1xd8
 150 900 382 912 382 912 c 1
 382 710 l 1
 390 705 l 1
 461 817 559 916 677 916 c 0
 725 916 773 910 808 892 c 0
 908 842 950 735 950 646 c 2
 950 106 l 2
 950 73 967 56 1000 56 c 2
 1124 56 l 1
 1124 0 l 1
 630 0 l 1
 630 56 l 1
 754 56 l 2
 787 56 804 73 804 106 c 2
 804 672 l 2
 804 768 766 852 654 852 c 0
 595 852 530 801 480 740 c 0
 442 694 412 645 382 584 c 1
 382 106 l 2
 382 73 399 56 432 56 c 2
 556 56 l 1
 556 0 l 1
 62 0 l 1xb8
EndSplineSet
Layer: 2
SplineSet
62 0 m 1,0,-1
 62 56 l 1,1,-1
 186 56 l 2,2,3
 236 56 236 56 236 106 c 2,4,-1
 236 794 l 2,5,6
 236 844 236 844 186 844 c 2,7,-1
 62 844 l 1,8,-1
 62 900 l 1,9,-1
 382 912 l 1,10,-1
 382 710 l 1,11,-1
 390 705 l 1,12,13
 524 916 524 916 677 916 c 0,14,15
 761 916 761 916 808 892 c 0,16,17
 878 857 878 857 914 788 c 128,-1,18
 950 719 950 719 950 646 c 2,19,-1
 950 106 l 2,20,21
 950 56 950 56 1000 56 c 2,22,-1
 1124 56 l 1,23,-1
 1124 0 l 1,24,-1
 630 0 l 1,25,-1
 630 56 l 1,26,-1
 754 56 l 2,27,28
 804 56 804 56 804 106 c 2,29,-1
 804 672 l 2,30,31
 804 752 804 752 768.5 802 c 128,-1,32
 733 852 733 852 654 852 c 0,33,34
 572 852 572 852 480 740 c 0,35,36
 427 676 427 676 382 584 c 1,37,-1
 382 106 l 2,38,39
 382 56 382 56 432 56 c 2,40,-1
 556 56 l 1,41,-1
 556 0 l 1,42,-1
 62 0 l 1,0,-1
EndSplineSet
EndChar

StartChar: o
Encoding: 79 111 79
Width: 1016
VWidth: 2079
Flags: W
HStem: -16 56<394.613 621.387> 860 56<394.613 621.387>
VStem: 84 170<230.58 669.64> 762 170<230.58 669.64>
AnchorPoint: "Top" 508 1000 basechar 0
AnchorPoint: "Acute" 508 980 basechar 0
AnchorPoint: "Grave" 508 980 basechar 0
AnchorPoint: "Dotaccent" 508 1020 basechar 0
AnchorPoint: "Bottom" 508 0 basechar 0
AnchorPoint: "DotBelow" 508 -20 basechar 0
LayerCount: 3
Fore
SplineSet
84 450 m 0
 84 717 250 916 508 916 c 0
 766 916 932 717 932 450 c 0
 932 184 766 -16 508 -16 c 0
 250 -16 84 184 84 450 c 0
254 450 m 0
 254 238 304 40 508 40 c 0
 712 40 762 238 762 450 c 0
 762 662 712 860 508 860 c 0
 304 860 254 662 254 450 c 0
EndSplineSet
Validated: 19457
Layer: 2
SplineSet
84 450 m 128,-1,1
 84 653 84 653 200.5 784.5 c 128,-1,2
 317 916 317 916 508 916 c 128,-1,3
 699 916 699 916 815.5 784.5 c 128,-1,4
 932 653 932 653 932 450 c 128,-1,5
 932 247 932 247 815.5 115.5 c 128,-1,6
 699 -16 699 -16 508 -16 c 128,-1,7
 317 -16 317 -16 200.5 115.5 c 128,-1,0
 84 247 84 247 84 450 c 128,-1,1
254 450 m 128,-1,9
 254 40 254 40 508 40 c 128,-1,10
 762 40 762 40 762 450 c 128,-1,11
 762 860 762 860 508 860 c 128,-1,8
 254 860 254 860 254 450 c 128,-1,9
EndSplineSet
EndChar

StartChar: p
Encoding: 80 112 80
Width: 1130
VWidth: 2079
Flags: W
HStem: -536 56<48 218.42 371.58 542> -16 56<554.925 751.242> 844 56<48 218.969> 860 56<553.179 751.242>
VStem: 222 146<-479.801 162 229.6 670.4 736 843.812> 876 170<228.985 671.015>
AnchorPoint: "DotBelow" 652 -20 basechar 0
AnchorPoint: "Dotaccent" 592 1020 basechar 0
AnchorPoint: "Grave" 592 980 basechar 0
AnchorPoint: "Acute" 592 980 basechar 0
AnchorPoint: "Top" 592 1000 basechar 0
LayerCount: 3
Fore
SplineSet
48 -480 m 25xdc
 172 -480 l 18
 205 -480 222 -463 222 -430 c 10
 222 794 l 18
 222 828 206 844 172 844 c 2
 48 844 l 1
 48 900 l 1xec
 136 900 368 912 368 912 c 1
 368 736 l 1
 376 734 l 1
 430 830 535 916 653 916 c 0
 873 916 1046 722 1046 450 c 0
 1046 178 873 -16 653 -16 c 0
 519 -16 432 66 374 164 c 1
 368 162 l 1
 368 -430 l 2
 368 -463 385 -480 418 -480 c 10
 542 -480 l 25
 542 -536 l 17
 48 -536 l 9
 48 -480 l 25xdc
368 450 m 0
 368 206 509 40 653 40 c 0
 801 40 876 180 876 450 c 0
 876 720 801 860 653 860 c 0xdc
 509 860 368 694 368 450 c 0
EndSplineSet
Validated: 19457
Layer: 2
SplineSet
48 -480 m 1,0,-1
 172 -480 l 2,1,2
 222 -480 222 -480 222 -430 c 2,3,-1
 222 794 l 2,4,5
 222 844 222 844 172 844 c 2,6,-1
 48 844 l 1,7,-1
 48 900 l 1,8,-1
 368 912 l 1,9,-1
 368 736 l 1,10,-1
 376 734 l 1,11,12
 419 811 419 811 494 863.5 c 128,-1,13
 569 916 569 916 653 916 c 0,14,15
 820 916 820 916 933 784 c 128,-1,16
 1046 652 1046 652 1046 450 c 128,-1,17
 1046 248 1046 248 933 116 c 128,-1,18
 820 -16 820 -16 653 -16 c 0,19,20
 481 -16 481 -16 374 164 c 1,21,-1
 368 162 l 1,22,-1
 368 -430 l 2,23,24
 368 -480 368 -480 418 -480 c 2,25,-1
 542 -480 l 1,26,-1
 542 -536 l 1,27,-1
 48 -536 l 1,28,-1
 48 -480 l 1,0,-1
368 450 m 128,-1,30
 368 273 368 273 454 156.5 c 128,-1,31
 540 40 540 40 653 40 c 0,32,33
 876 40 876 40 876 450 c 128,-1,34
 876 860 876 860 653 860 c 0,35,36
 540 860 540 860 454 743.5 c 128,-1,29
 368 627 368 627 368 450 c 128,-1,30
EndSplineSet
EndChar

StartChar: q
Encoding: 81 113 81
Width: 1094
VWidth: 2079
Flags: W
HStem: -536 56<588 758.42 911.58 1082> -16 56<378.758 575.075> 860 56<378.758 576.286> 880 20G<864.673 908>
VStem: 84 170<228.985 671.015> 762 146<-479.801 162 229.6 670.4>
AnchorPoint: "Dotaccent" 496 1020 basechar 0
AnchorPoint: "Grave" 496 980 basechar 0
AnchorPoint: "Acute" 496 980 basechar 0
AnchorPoint: "Top" 496 1000 basechar 0
AnchorPoint: "DotBelow" 478 -20 basechar 0
LayerCount: 3
Fore
SplineSet
84 450 m 0xdc
 84 722 257 916 477 916 c 0xec
 632 916 729 819 781 698 c 1
 798 698 l 1
 872 900 l 1
 908 900 l 1
 908 -430 l 2
 908 -463 925 -480 958 -480 c 2
 1082 -480 l 1
 1082 -536 l 1
 588 -536 l 1
 588 -480 l 1
 712 -480 l 2
 745 -480 762 -463 762 -430 c 2
 762 162 l 1
 756 164 l 1
 698 66 611 -16 477 -16 c 0
 257 -16 84 178 84 450 c 0xdc
254 450 m 0
 254 180 329 40 477 40 c 0
 621 40 762 206 762 450 c 0
 762 694 621 860 477 860 c 0
 329 860 254 720 254 450 c 0
EndSplineSet
Validated: 19457
Layer: 2
SplineSet
84 450 m 128,-1,1
 84 652 84 652 197 784 c 128,-1,2
 310 916 310 916 477 916 c 0,3,4
 587 916 587 916 663 856.5 c 128,-1,5
 739 797 739 797 781 698 c 1,6,-1
 798 698 l 1,7,-1
 872 900 l 1,8,-1
 908 900 l 1,9,-1
 908 -430 l 2,10,11
 908 -480 908 -480 958 -480 c 2,12,-1
 1082 -480 l 1,13,-1
 1082 -536 l 1,14,-1
 588 -536 l 1,15,-1
 588 -480 l 1,16,-1
 712 -480 l 2,17,18
 762 -480 762 -480 762 -430 c 2,19,-1
 762 162 l 1,20,-1
 756 164 l 1,21,22
 649 -16 649 -16 477 -16 c 0,23,24
 310 -16 310 -16 197 116 c 128,-1,0
 84 248 84 248 84 450 c 128,-1,1
254 450 m 128,-1,26
 254 40 254 40 477 40 c 0,27,28
 590 40 590 40 676 156.5 c 128,-1,29
 762 273 762 273 762 450 c 128,-1,30
 762 627 762 627 676 743.5 c 128,-1,31
 590 860 590 860 477 860 c 0,32,25
 254 860 254 860 254 450 c 128,-1,26
EndSplineSet
EndChar

StartChar: r
Encoding: 82 114 82
Width: 886
VWidth: 2079
Flags: W
HStem: 0 56<62 232.42 385.58 556> 844 56<62 232.969> 852 64<533.319 647.225>
VStem: 236 146<56.199 646.186 699 843.812> 648 158<680.898 851.432>
AnchorPoint: "Top" 476 1000 basechar 0
AnchorPoint: "Dotaccent" 476 1020 basechar 0
AnchorPoint: "Grave" 476 980 basechar 0
AnchorPoint: "Acute" 476 980 basechar 0
AnchorPoint: "DotBelow" 308 -20 basechar 0
AnchorPoint: "Bottom" 308 0 basechar 0
LayerCount: 3
Fore
SplineSet
62 0 m 1xb8
 62 56 l 1
 186 56 l 2
 219 56 236 73 236 106 c 2
 236 794 l 2
 236 828 220 844 186 844 c 2
 62 844 l 1
 62 900 l 1xd8
 150 900 382 912 382 912 c 1
 382 699 l 1
 392 695 l 1
 442 817 517 916 640 916 c 0
 780 916 806 801 806 740 c 0
 806 674 761 603 696 603 c 0
 633 603 599 646 599 699 c 0
 599 731 608 748 626 770 c 0
 640 786 648 804 648 819 c 0
 648 837 638 852 608 852 c 0
 490 852 382 612 382 404 c 2
 382 106 l 2
 382 73 399 56 432 56 c 2
 556 56 l 1
 556 0 l 1
 62 0 l 1xb8
EndSplineSet
Validated: 19457
Layer: 2
SplineSet
62 0 m 1,0,-1
 62 56 l 1,1,-1
 186 56 l 2,2,3
 236 56 236 56 236 106 c 2,4,-1
 236 794 l 2,5,6
 236 844 236 844 186 844 c 2,7,-1
 62 844 l 1,8,-1
 62 900 l 1,9,-1
 382 912 l 1,10,-1
 382 699 l 1,11,-1
 392 695 l 1,12,13
 483 916 483 916 640 916 c 0,14,15
 680 916 680 916 711 903.5 c 128,-1,16
 742 891 742 891 759.5 872 c 128,-1,17
 777 853 777 853 788 828 c 128,-1,18
 799 803 799 803 802.5 782 c 128,-1,19
 806 761 806 761 806 740 c 0,20,21
 806 688 806 688 774.5 645.5 c 128,-1,22
 743 603 743 603 696 603 c 0,23,24
 650 603 650 603 624.5 630.5 c 128,-1,25
 599 658 599 658 599 699 c 0,26,27
 599 737 599 737 626 770 c 1,28,29
 648 795 648 795 648 819 c 0,30,31
 648 852 648 852 608 852 c 0,32,33
 551 852 551 852 498 783.5 c 128,-1,34
 445 715 445 715 413.5 611 c 128,-1,35
 382 507 382 507 382 404 c 2,36,-1
 382 106 l 2,37,38
 382 56 382 56 432 56 c 2,39,-1
 556 56 l 1,40,-1
 556 0 l 1,41,-1
 62 0 l 1,0,-1
EndSplineSet
EndChar

StartChar: s
Encoding: 83 115 83
Width: 838
Flags: W
HStem: -16 56<359.128 595.101> 860 56<230.608 469.368>
VStem: 96 84<647.343 822.535> 96 33<345.416 405> 655 40<564 632.31> 678 72<104.53 277.767>
AnchorPoint: "DotBelow" 412 -20 basechar 0
AnchorPoint: "Bottom" 412 0 basechar 0
AnchorPoint: "Dotaccent" 412 1020 basechar 0
AnchorPoint: "Top" 412 1000 basechar 0
AnchorPoint: "Grave" 412 980 basechar 0
AnchorPoint: "Acute" 412 980 basechar 0
LayerCount: 3
Fore
SplineSet
96 -16 m 25xd4
 96 405 l 25
 132 405 l 17
 145 330 169 254 209 198 c 0
 271 111 363 40 483 40 c 0
 584 40 678 95 678 200 c 0xd4
 678 308 524 363 389 408 c 0
 235 459 96 516 96 706 c 0
 96 828 212 916 334 916 c 0
 400 916 445 907 504 873 c 0
 535 855 572 827 596 806 c 9
 606 806 l 25
 667 916 l 25
 695 916 l 25
 695 564 l 25
 655 564 l 17
 645 623 608 712 569 753 c 0
 502 824 447 860 338 860 c 0
 257 860 180 825 180 735 c 0xe8
 180 628 324 578 442 538 c 0
 648 468 750 410 750 228 c 0
 750 80 628 -16 487 -16 c 0
 407 -16 350 0 293 35 c 0
 258 57 224 80 196 108 c 9
 186 108 l 25
 129 -16 l 25
 96 -16 l 25xd4
EndSplineSet
Validated: 19457
Layer: 2
SplineSet
96 -16 m 1,0,-1
 96 405 l 1,1,-1
 132 405 l 1,2,3
 155 274 155 274 209 198 c 0,4,5
 322 40 322 40 483 40 c 0,6,7
 564 40 564 40 621 82.5 c 128,-1,8
 678 125 678 125 678 200 c 0,9,10
 678 231 678 231 659.5 259 c 128,-1,11
 641 287 641 287 616 306.5 c 128,-1,12
 591 326 591 326 547.5 346.5 c 128,-1,13
 504 367 504 367 472 379 c 128,-1,14
 440 391 440 391 389 408 c 0,15,16
 343 423 343 423 313 435 c 128,-1,17
 283 447 283 447 245.5 465.5 c 128,-1,18
 208 484 208 484 184 505.5 c 128,-1,19
 160 527 160 527 138.5 555.5 c 128,-1,20
 117 584 117 584 106.5 622 c 128,-1,21
 96 660 96 660 96 706 c 0,22,23
 96 795 96 795 168 855.5 c 128,-1,24
 240 916 240 916 334 916 c 0,25,26
 429 916 429 916 504 873 c 0,27,28
 550 846 550 846 596 806 c 1,29,-1
 606 806 l 1,30,-1
 667 916 l 1,31,-1
 695 916 l 1,32,-1
 695 564 l 1,33,-1
 655 564 l 1,34,35
 647 610 647 610 622 666.5 c 128,-1,36
 597 723 597 723 569 753 c 0,37,38
 515 810 515 810 465.5 835 c 128,-1,39
 416 860 416 860 338 860 c 0,40,41
 271 860 271 860 225.5 829 c 128,-1,42
 180 798 180 798 180 735 c 0,43,44
 180 709 180 709 190.5 686.5 c 128,-1,45
 201 664 201 664 223 645 c 128,-1,46
 245 626 245 626 266 612 c 128,-1,47
 287 598 287 598 322.5 583 c 128,-1,48
 358 568 358 568 380.5 559.5 c 128,-1,49
 403 551 403 551 442 538 c 0,50,51
 527 509 527 509 578 485 c 128,-1,52
 629 461 629 461 671.5 425.5 c 128,-1,53
 714 390 714 390 732 342.5 c 128,-1,54
 750 295 750 295 750 228 c 0,55,56
 750 120 750 120 673 52 c 128,-1,57
 596 -16 596 -16 487 -16 c 0,58,59
 376 -16 376 -16 293 35 c 0,60,61
 228 76 228 76 196 108 c 1,62,-1
 186 108 l 1,63,-1
 129 -16 l 1,64,-1
 96 -16 l 1,0,-1
EndSplineSet
EndChar

StartChar: t
Encoding: 84 116 84
Width: 810
VWidth: 2079
Flags: W
HStem: -16 64<405.102 601.44> 844 56<56 139.976 376 662>
VStem: 230 146<69.1324 844> 288 88<1044.33 1320> 690 48<162.719 500>
AnchorPoint: "Grave" 312 1356 basechar 0
AnchorPoint: "Acute" 312 1356 basechar 0
AnchorPoint: "Dotaccent" 312 1396 basechar 0
AnchorPoint: "Top" 312 1376 basechar 0
AnchorPoint: "DotBelow" 436 -20 basechar 0
AnchorPoint: "Bottom" 436 0 basechar 0
LayerCount: 3
Fore
SplineSet
56 844 m 1xe8
 56 900 l 1
 242 924 288 1102 288 1320 c 1
 376 1320 l 1
 376 900 l 1xd8
 662 900 l 1
 662 844 l 1
 376 844 l 1
 376 190 l 2
 376 102 396 48 500 48 c 0
 624 48 690 153 690 275 c 2
 690 500 l 1
 738 500 l 1
 738 258 l 2
 738 104 650 -16 452 -16 c 0
 342 -16 230 54 230 190 c 2
 230 844 l 1
 56 844 l 1xe8
EndSplineSet
Validated: 19457
Layer: 2
SplineSet
56 844 m 1,0,-1
 56 900 l 1,1,2
 123 909 123 909 170 944 c 128,-1,3
 217 979 217 979 242 1038 c 128,-1,4
 267 1097 267 1097 277.5 1165 c 128,-1,5
 288 1233 288 1233 288 1320 c 1,6,-1
 376 1320 l 1,7,-1
 376 900 l 1,8,-1
 662 900 l 1,9,-1
 662 844 l 1,10,-1
 376 844 l 1,11,-1
 376 190 l 2,12,13
 376 117 376 117 401.5 82.5 c 128,-1,14
 427 48 427 48 500 48 c 0,15,16
 589 48 589 48 639.5 113.5 c 128,-1,17
 690 179 690 179 690 275 c 2,18,-1
 690 500 l 1,19,-1
 738 500 l 1,20,-1
 738 258 l 2,21,22
 738 136 738 136 666 60 c 128,-1,23
 594 -16 594 -16 452 -16 c 0,24,25
 363 -16 363 -16 296.5 39 c 128,-1,26
 230 94 230 94 230 190 c 2,27,-1
 230 844 l 1,28,-1
 56 844 l 1,0,-1
EndSplineSet
EndChar

StartChar: u
Encoding: 85 117 85
Width: 1136
VWidth: 2079
Flags: W
HStem: -16 64<402.957 584.785> 0 56<921.031 1092> 844 56<40 210.42 598 768.42>
VStem: 214 146<88.2159 843.801> 772 146<56.188 201 245.32 843.801>
AnchorPoint: "DotBelow" 566 -20 basechar 0
AnchorPoint: "Bottom" 566 0 basechar 0
AnchorPoint: "Dotaccent" 520 1020 basechar 0
AnchorPoint: "Grave" 520 980 basechar 0
AnchorPoint: "Acute" 520 980 basechar 0
AnchorPoint: "Top" 520 1000 basechar 0
LayerCount: 3
Fore
SplineSet
40 844 m 1xb8
 40 900 l 1
 128 900 360 912 360 912 c 1
 360 228 l 2
 360 132 382 48 494 48 c 0xb8
 576 48 634 110 684 171 c 0
 722 217 772 328 772 412 c 2
 772 794 l 2
 772 827 755 844 722 844 c 2
 598 844 l 1
 598 900 l 1
 686 900 918 912 918 912 c 1
 918 106 l 2
 918 72 934 56 968 56 c 2
 1092 56 l 1
 1092 0 l 1
 772 0 l 1x78
 772 201 l 1
 764 206 l 1
 706 96 594 -16 476 -16 c 0
 428 -16 380 -10 345 8 c 0
 245 58 214 165 214 254 c 2
 214 794 l 2
 214 827 197 844 164 844 c 2
 40 844 l 1xb8
EndSplineSet
Validated: 19457
Layer: 2
SplineSet
40 844 m 1,0,-1
 40 900 l 1,1,-1
 360 912 l 1,2,-1
 360 228 l 2,3,4
 360 144 360 144 388.5 96 c 128,-1,5
 417 48 417 48 494 48 c 0,6,7
 549 48 549 48 593 80.5 c 128,-1,8
 637 113 637 113 684 171 c 0,9,10
 716 209 716 209 744 281 c 128,-1,11
 772 353 772 353 772 412 c 2,12,-1
 772 794 l 2,13,14
 772 844 772 844 722 844 c 2,15,-1
 598 844 l 1,16,-1
 598 900 l 1,17,-1
 918 912 l 1,18,-1
 918 106 l 2,19,20
 918 56 918 56 968 56 c 2,21,-1
 1092 56 l 1,22,-1
 1092 0 l 1,23,-1
 772 0 l 1,24,-1
 772 201 l 1,25,-1
 764 206 l 1,26,27
 716 115 716 115 637.5 49.5 c 128,-1,28
 559 -16 559 -16 476 -16 c 0,29,30
 392 -16 392 -16 345 8 c 0,31,32
 276 43 276 43 245 110 c 128,-1,33
 214 177 214 177 214 254 c 2,34,-1
 214 794 l 2,35,36
 214 844 214 844 164 844 c 2,37,-1
 40 844 l 1,0,-1
EndSplineSet
EndChar

StartChar: v
Encoding: 86 118 86
Width: 1020
Flags: W
HStem: -18 21G<457.392 516.962> 844 56<16 121.365 312.243 456 564 731.861 874.638 984>
DStem2: 529 191 182 726 0.355525 -0.934667<-648.335 0> 529 191 509 -18 0.369877 0.929081<0 621.558>
AnchorPoint: "Dotaccent" 496 1020 basechar 0
AnchorPoint: "Grave" 496 980 basechar 0
AnchorPoint: "Acute" 496 980 basechar 0
AnchorPoint: "Top" 496 1000 basechar 0
AnchorPoint: "Bottom" 480 0 basechar 0
LayerCount: 3
Fore
SplineSet
16 844 m 9
 16 900 l 25
 456 900 l 25
 456 844 l 25
 372 844 l 26
 342 844 309 830 309 802 c 0
 309 780 314 763 320 747 c 10
 529 191 l 25
 726 687 l 18
 737 715 744 742 744 776 c 0
 744 810 720 844 681 844 c 10
 564 844 l 25
 564 900 l 25
 984 900 l 25
 984 844 l 17
 939 844 908 843 873 816 c 0
 837 788 816 753 804 723 c 10
 509 -18 l 25
 465 -18 l 25
 182 726 l 18
 167 764 155 793 123 817 c 0
 88 843 61 844 16 844 c 9
EndSplineSet
Validated: 19457
Layer: 2
SplineSet
16 844 m 1,0,-1
 16 900 l 1,1,-1
 456 900 l 1,2,-1
 456 844 l 1,3,-1
 372 844 l 2,4,5
 347 844 347 844 328 833 c 128,-1,6
 309 822 309 822 309 802 c 0,7,8
 309 776 309 776 320 747 c 2,9,-1
 529 191 l 1,10,-1
 726 687 l 2,11,12
 744 733 744 733 744 776 c 0,13,14
 744 803 744 803 726.5 823.5 c 128,-1,15
 709 844 709 844 681 844 c 2,16,-1
 564 844 l 1,17,-1
 564 900 l 1,18,-1
 984 900 l 1,19,-1
 984 844 l 1,20,21
 944 844 944 844 920.5 839 c 128,-1,22
 897 834 897 834 873 816 c 0,23,24
 827 780 827 780 804 723 c 2,25,-1
 509 -18 l 1,26,-1
 465 -18 l 1,27,-1
 182 726 l 2,28,29
 173 750 173 750 167 762.5 c 128,-1,30
 161 775 161 775 149.5 790.5 c 128,-1,31
 138 806 138 806 123 817 c 0,32,33
 99 835 99 835 77 839.5 c 128,-1,34
 55 844 55 844 16 844 c 1,0,-1
EndSplineSet
EndChar

StartChar: w
Encoding: 87 119 87
Width: 1478
Flags: W
HStem: -18 21G<437.065 500.955 935.107 998.91> 844 56<16 125.362 324.243 456 514 627.405 822.243 954 1022 1174.86 1318.65 1442>
VStem: 679 140<655.906 810.685>
DStem2: 332 747 186 726 0.327634 -0.944805<-54.5962 560.376> 514 217 494 -18 0.328464 0.944516<0 456.476> 830 747 719 629 0.325856 -0.94542<75.3895 560.378> 1012 217 992 -18 0.326541 0.945183<0 584>
AnchorPoint: "DotBelow" 734 -20 basechar 0
AnchorPoint: "Bottom" 734 0 basechar 0
AnchorPoint: "Dotaccent" 734 1020 basechar 0
AnchorPoint: "Grave" 734 980 basechar 0
AnchorPoint: "Acute" 734 980 basechar 0
AnchorPoint: "Top" 734 1000 basechar 0
LayerCount: 3
Fore
SplineSet
16 844 m 1
 16 900 l 1
 456 900 l 1
 456 844 l 1
 384 844 l 2
 354 844 321 830 321 802 c 0
 321 780 326 763 332 747 c 2
 514 217 l 1
 674 687 l 2
 677 696 679 709 679 722 c 0
 679 759 655 795 629 816 c 0
 595 843 559 844 514 844 c 1
 514 900 l 1
 954 900 l 1
 954 844 l 1
 882 844 l 2
 852 844 819 830 819 802 c 0
 819 780 824 763 830 747 c 2
 1012 217 l 1
 1172 687 l 2
 1182 716 1187 742 1187 776 c 0
 1187 810 1163 844 1124 844 c 2
 1022 844 l 1
 1022 900 l 1
 1442 900 l 1
 1442 844 l 1
 1397 844 1352 843 1317 816 c 0
 1281 788 1260 753 1248 723 c 2
 992 -18 l 1
 942 -18 l 1
 719 629 l 1
 494 -18 l 1
 444 -18 l 1
 186 726 l 2
 171 764 159 793 127 817 c 0
 92 843 61 844 16 844 c 1
EndSplineSet
Validated: 19457
Layer: 2
SplineSet
16 844 m 1,0,-1
 16 900 l 1,1,-1
 456 900 l 1,2,-1
 456 844 l 1,3,-1
 384 844 l 2,4,5
 359 844 359 844 340 833 c 128,-1,6
 321 822 321 822 321 802 c 0,7,8
 321 776 321 776 332 747 c 2,9,-1
 514 217 l 1,10,-1
 674 687 l 2,11,12
 679 702 679 702 679 722 c 0,13,14
 679 776 679 776 629 816 c 0,15,16
 606 834 606 834 580.5 839 c 128,-1,17
 555 844 555 844 514 844 c 1,18,-1
 514 900 l 1,19,-1
 954 900 l 1,20,-1
 954 844 l 1,21,-1
 882 844 l 2,22,23
 857 844 857 844 838 833 c 128,-1,24
 819 822 819 822 819 802 c 0,25,26
 819 776 819 776 830 747 c 2,27,-1
 1012 217 l 1,28,-1
 1172 687 l 2,29,30
 1187 730 1187 730 1187 776 c 0,31,32
 1187 803 1187 803 1169.5 823.5 c 128,-1,33
 1152 844 1152 844 1124 844 c 2,34,-1
 1022 844 l 1,35,-1
 1022 900 l 1,36,-1
 1442 900 l 1,37,-1
 1442 844 l 1,38,39
 1353 844 1353 844 1317 816 c 0,40,41
 1271 780 1271 780 1248 723 c 1,42,-1
 992 -18 l 1,43,-1
 942 -18 l 1,44,-1
 719 629 l 1,45,-1
 494 -18 l 1,46,-1
 444 -18 l 1,47,-1
 186 726 l 2,48,49
 177 750 177 750 171 762.5 c 128,-1,50
 165 775 165 775 153.5 790.5 c 128,-1,51
 142 806 142 806 127 817 c 0,52,53
 103 835 103 835 79.5 839.5 c 128,-1,54
 56 844 56 844 16 844 c 1,0,-1
EndSplineSet
EndChar

StartChar: x
Encoding: 88 120 88
Width: 1152
Flags: W
HStem: 0 56<56 186.922 375.334 496 592 746.591 958.544 1090> 844 56<70 223.062 455.467 552 640 760.791 962.347 1080>
DStem2: 301 168 408 207 0.65343 0.756987<5.90252 329.273 488.529 756.183> 620 538 525 427 0.582187 -0.813055<-314.056 0 90.1587 438.033>
AnchorPoint: "DotBelow" 556 -20 basechar 0
AnchorPoint: "Bottom" 556 0 basechar 0
AnchorPoint: "Dotaccent" 590 1020 basechar 0
AnchorPoint: "Grave" 590 980 basechar 0
AnchorPoint: "Acute" 590 980 basechar 0
AnchorPoint: "Top" 590 1000 basechar 0
LayerCount: 3
Fore
SplineSet
56 0 m 1
 56 56 l 1
 105 60 155 66 206 93 c 0
 249 116 270 132 301 168 c 2
 525 427 l 1
 298 744 l 2
 272 780 255 798 216 821 c 0
 188 838 168 844 135 844 c 2
 70 844 l 1
 70 900 l 1
 552 900 l 1
 552 844 l 1
 505 844 l 2
 480 844 454 832 454 807 c 0
 454 773 470 746 493 714 c 2
 620 538 l 1
 749 687 l 2
 768 709 776 736 776 772 c 0
 776 811 744 844 705 844 c 2
 640 844 l 1
 640 900 l 1
 1080 900 l 1
 1080 844 l 1
 1049 844 l 2
 1013 844 975 827 934 798 c 0
 894 770 871 749 838 711 c 2
 652 493 l 1
 898 153 l 2
 915 129 927 113 946 95 c 0
 971 71 991 56 1025 56 c 2
 1090 56 l 1
 1090 0 l 1
 592 0 l 1
 592 56 l 1
 703 56 l 2
 724 56 747 63 747 89 c 0
 747 114 726 146 704 177 c 2
 557 382 l 1
 408 207 l 2
 383 178 366 154 366 118 c 0
 366 84 390 56 423 56 c 2
 496 56 l 1
 496 0 l 1
 56 0 l 1
EndSplineSet
Validated: 19457
Layer: 2
SplineSet
56 0 m 1,0,-1
 56 56 l 1,1,2
 151 64 151 64 206 93 c 0,3,4
 262 123 262 123 301 168 c 2,5,-1
 525 427 l 1,6,-1
 298 744 l 2,7,8
 262 794 262 794 216 821 c 0,9,10
 178 844 178 844 135 844 c 2,11,-1
 70 844 l 1,12,-1
 70 900 l 1,13,-1
 552 900 l 1,14,-1
 552 844 l 1,15,-1
 505 844 l 2,16,17
 484 844 484 844 469 834.5 c 128,-1,18
 454 825 454 825 454 807 c 0,19,20
 454 768 454 768 493 714 c 2,21,-1
 620 538 l 1,22,-1
 749 687 l 2,23,24
 776 718 776 718 776 772 c 0,25,26
 776 801 776 801 755 822.5 c 128,-1,27
 734 844 734 844 705 844 c 2,28,-1
 640 844 l 1,29,-1
 640 900 l 1,30,-1
 1080 900 l 1,31,-1
 1080 844 l 1,32,-1
 1049 844 l 2,33,34
 999 844 999 844 934 798 c 0,35,36
 882 761 882 761 838 711 c 1,37,-1
 652 493 l 1,38,-1
 898 153 l 2,39,40
 925 115 925 115 946 95 c 0,41,42
 987 56 987 56 1025 56 c 2,43,-1
 1090 56 l 1,44,-1
 1090 0 l 1,45,-1
 592 0 l 1,46,-1
 592 56 l 1,47,-1
 703 56 l 2,48,49
 747 56 747 56 747 89 c 0,50,51
 747 116 747 116 704 177 c 2,52,-1
 557 382 l 1,53,-1
 408 207 l 2,54,55
 366 158 366 158 366 118 c 0,56,57
 366 92 366 92 382.5 74 c 128,-1,58
 399 56 399 56 423 56 c 2,59,-1
 496 56 l 1,60,-1
 496 0 l 1,61,-1
 56 0 l 1,0,-1
EndSplineSet
EndChar

StartChar: y
Encoding: 89 121 89
Width: 1040
Flags: W
HStem: -552 56<150.838 283.55> 844 56<16 121.365 322.243 466 576 740.861 894.638 1004>
VStem: 6 136<-485.69 -353.523>
DStem2: 555 176 182 726 0.370964 -0.928647<-667.925 0> 356 -373 418 -381 0.345154 0.938546<-106.746 370.103 583.947 1213.92>
AnchorPoint: "DotBelow" 732 -20 basechar 0
AnchorPoint: "Dotaccent" 492 1020 basechar 0
AnchorPoint: "Grave" 492 980 basechar 0
AnchorPoint: "Acute" 492 980 basechar 0
AnchorPoint: "Top" 492 1000 basechar 0
LayerCount: 3
Fore
SplineSet
6 -374 m 0
 6 -292 59 -232 134 -232 c 0
 196 -232 228 -281 228 -332 c 0
 228 -385 192 -416 167 -425 c 0
 153 -430 142 -438 142 -446 c 0
 142 -459 144 -470 154 -479 c 0
 167 -490 191 -496 205 -496 c 0
 268 -496 330 -444 356 -373 c 10
 482 -25 l 9
 182 726 l 18
 167 764 155 793 123 817 c 0
 88 843 61 844 16 844 c 9
 16 900 l 25
 466 900 l 25
 466 844 l 25
 382 844 l 26
 352 844 319 830 319 802 c 0
 319 780 324 763 330 747 c 10
 555 176 l 25
 740 687 l 18
 751 715 753 742 753 776 c 0
 753 810 729 844 690 844 c 10
 576 844 l 25
 576 900 l 25
 1004 900 l 25
 1004 844 l 17
 959 844 928 843 893 816 c 0
 857 788 836 753 824 723 c 10
 418 -381 l 18
 378 -490 300 -552 188 -552 c 0
 88 -552 6 -478 6 -374 c 0
EndSplineSet
Validated: 19457
Layer: 2
SplineSet
6 -374 m 0,0,1
 6 -312 6 -312 42 -272 c 128,-1,2
 78 -232 78 -232 134 -232 c 0,3,4
 178 -232 178 -232 203 -261.5 c 128,-1,5
 228 -291 228 -291 228 -332 c 0,6,7
 228 -368 228 -368 209 -392.5 c 128,-1,8
 190 -417 190 -417 167 -425 c 0,9,10
 142 -434 142 -434 142 -446 c 0,11,12
 142 -468 142 -468 154 -479 c 0,13,14
 174 -496 174 -496 205 -496 c 0,15,16
 252 -496 252 -496 294 -461.5 c 128,-1,17
 336 -427 336 -427 356 -373 c 2,18,-1
 482 -25 l 1,19,-1
 182 726 l 2,20,21
 173 750 173 750 167 762.5 c 128,-1,22
 161 775 161 775 149.5 790.5 c 128,-1,23
 138 806 138 806 123 817 c 0,24,25
 99 835 99 835 77 839.5 c 128,-1,26
 55 844 55 844 16 844 c 1,27,-1
 16 900 l 1,28,-1
 466 900 l 1,29,-1
 466 844 l 1,30,-1
 382 844 l 2,31,32
 357 844 357 844 338 833 c 128,-1,33
 319 822 319 822 319 802 c 0,34,35
 319 776 319 776 330 747 c 2,36,-1
 555 176 l 1,37,-1
 740 687 l 2,38,39
 753 720 753 720 753 776 c 0,40,41
 753 803 753 803 735.5 823.5 c 128,-1,42
 718 844 718 844 690 844 c 2,43,-1
 576 844 l 1,44,-1
 576 900 l 1,45,-1
 1004 900 l 1,46,-1
 1004 844 l 1,47,48
 964 844 964 844 940.5 839 c 128,-1,49
 917 834 917 834 893 816 c 0,50,51
 847 780 847 780 824 723 c 1,52,-1
 418 -381 l 2,53,54
 355 -552 355 -552 188 -552 c 0,55,56
 112 -552 112 -552 59 -501.5 c 128,-1,57
 6 -451 6 -451 6 -374 c 0,0,1
EndSplineSet
EndChar

StartChar: z
Encoding: 90 122 90
Width: 920
Flags: W
HStem: 0 56<244 618.718> 844 56<303.805 626>
VStem: 132 44<525 657.039> 796 44<327.335 468>
DStem2: 64 56 244 56 0.578304 0.815821<104.095 967.874>
AnchorPoint: "DotBelow" 428 -20 basechar 0
AnchorPoint: "Bottom" 428 0 basechar 0
AnchorPoint: "Dotaccent" 474 1020 basechar 0
AnchorPoint: "Grave" 474 980 basechar 0
AnchorPoint: "Acute" 474 980 basechar 0
AnchorPoint: "Top" 474 1000 basechar 0
LayerCount: 3
Fore
SplineSet
64 0 m 25
 64 56 l 25
 626 844 l 25
 412 844 l 26
 342 844 287 818 250 766 c 0
 195 689 183 613 176 525 c 9
 132 525 l 25
 144 900 l 25
 804 900 l 25
 804 846 l 25
 244 56 l 25
 504 56 l 18
 598 56 672 102 718 172 c 0
 764 242 789 377 796 468 c 9
 840 468 l 25
 826 0 l 25
 64 0 l 25
EndSplineSet
Validated: 19457
Layer: 2
SplineSet
64 0 m 1,0,-1
 64 56 l 1,1,-1
 626 844 l 1,2,-1
 412 844 l 2,3,4
 306 844 306 844 250 766 c 0,5,6
 212 713 212 713 197 657.5 c 128,-1,7
 182 602 182 602 176 525 c 1,8,-1
 132 525 l 1,9,-1
 144 900 l 1,10,-1
 804 900 l 1,11,-1
 804 846 l 1,12,-1
 244 56 l 1,13,-1
 504 56 l 2,14,15
 642 56 642 56 718 172 c 0,16,17
 750 220 750 220 770 304.5 c 128,-1,18
 790 389 790 389 796 468 c 1,19,-1
 840 468 l 1,20,-1
 826 0 l 1,21,-1
 64 0 l 1,0,-1
EndSplineSet
EndChar

StartChar: braceleft
Encoding: 91 123 91
Width: 780
VWidth: 1000
Flags: W
HStem: -560 54<583.421 684.655> 442 44<182 303.451> 1434 54<583.421 684.655>
VStem: 336 132<-410.17 -74.0754 1001.58 1337.76> 415 132<-33.9206 326.637 601.032 961.421>
CounterMasks: 1 e0
LayerCount: 3
Fore
SplineSet
182 442 m 9xe8
 182 486 l 17
 323 486 415 549 415 709 c 0xe8
 415 781 397 855 377 934 c 0
 356 1018 336 1105 336 1185 c 0
 336 1369 480 1464 682 1488 c 9
 692 1434 l 17
 562 1412 468 1375 468 1263 c 0xf0
 468 1183 485 1107 506 1027 c 0
 526 951 547 866 547 792 c 0
 547 588 442 494 320 466 c 1
 320 462 l 1
 442 434 547 339 547 135 c 0xe8
 547 61 526 -24 506 -100 c 0
 485 -180 468 -256 468 -336 c 0
 468 -448 562 -484 692 -506 c 9
 682 -560 l 17
 480 -536 336 -441 336 -257 c 0xf0
 336 -177 356 -90 377 -6 c 0
 397 73 415 147 415 219 c 0
 415 379 323 442 182 442 c 9xe8
EndSplineSet
Validated: 19457
Layer: 2
SplineSet
182 442 m 1,0,-1
 182 486 l 1,1,2
 415 486 415 486 415 709 c 0,3,4
 415 784 415 784 377 934 c 0,5,6
 336 1098 336 1098 336 1185 c 0,7,8
 336 1318 336 1318 429.5 1393.5 c 128,-1,9
 523 1469 523 1469 682 1488 c 1,10,-1
 692 1434 l 1,11,12
 582 1415 582 1415 525 1378 c 128,-1,13
 468 1341 468 1341 468 1263 c 0,14,15
 468 1172 468 1172 506 1027 c 0,16,17
 547 871 547 871 547 792 c 0,18,19
 547 649 547 649 484 569 c 128,-1,20
 421 489 421 489 320 466 c 1,21,-1
 320 462 l 1,22,23
 421 439 421 439 484 358.5 c 128,-1,24
 547 278 547 278 547 135 c 0,25,26
 547 56 547 56 506 -100 c 0,27,28
 468 -245 468 -245 468 -336 c 0,29,30
 468 -414 468 -414 524.5 -450.5 c 128,-1,31
 581 -487 581 -487 692 -506 c 1,32,-1
 682 -560 l 1,33,34
 523 -541 523 -541 429.5 -465.5 c 128,-1,35
 336 -390 336 -390 336 -257 c 0,36,37
 336 -170 336 -170 377 -6 c 0,38,39
 415 144 415 144 415 219 c 0,40,41
 415 442 415 442 182 442 c 1,0,-1
EndSplineSet
EndChar

StartChar: bar
Encoding: 92 124 92
Width: 512
VWidth: 2078
Flags: W
HStem: -468 21G<202 310> 1440 20G<202 310>
VStem: 202 108<-468 1460>
LayerCount: 3
Fore
SplineSet
202 -468 m 1
 202 1460 l 1
 310 1460 l 1
 310 -468 l 1
 202 -468 l 1
EndSplineSet
Validated: 19457
Layer: 2
SplineSet
202 -468 m 1,0,-1
 202 1460 l 1,1,-1
 310 1460 l 1,2,-1
 310 -468 l 1,3,-1
 202 -468 l 1,0,-1
EndSplineSet
EndChar

StartChar: braceright
Encoding: 93 125 93
Width: 780
VWidth: 1000
Flags: W
HStem: -560 54<95.3452 196.579> 442 44<476.549 598> 1434 54<95.3452 196.579>
VStem: 233 132<-33.4206 326.968 601.363 961.921> 312 132<-409.757 -73.5754 1002.08 1338.17>
CounterMasks: 1 e0
LayerCount: 3
Fore
SplineSet
88 -506 m 17xe8
 218 -484 312 -447 312 -335 c 0xe8
 312 -255 295 -179 274 -99 c 0
 254 -23 233 62 233 136 c 0
 233 340 338 434 460 462 c 1
 460 466 l 1
 338 494 233 589 233 793 c 0xf0
 233 867 254 952 274 1028 c 0
 295 1108 312 1184 312 1264 c 0
 312 1376 218 1412 88 1434 c 9
 98 1488 l 17
 300 1464 444 1369 444 1185 c 0xe8
 444 1105 424 1018 403 934 c 0
 383 855 365 781 365 709 c 0
 365 549 457 486 598 486 c 9
 598 442 l 17
 457 442 365 379 365 219 c 0xf0
 365 147 383 73 403 -6 c 0
 424 -90 444 -177 444 -257 c 0
 444 -441 300 -536 98 -560 c 9
 88 -506 l 17xe8
EndSplineSet
Validated: 19457
Layer: 2
SplineSet
88 -506 m 1,0,1
 198 -487 198 -487 255 -450 c 128,-1,2
 312 -413 312 -413 312 -335 c 0,3,4
 312 -244 312 -244 274 -99 c 0,5,6
 233 57 233 57 233 136 c 0,7,8
 233 279 233 279 296 359 c 128,-1,9
 359 439 359 439 460 462 c 1,10,-1
 460 466 l 1,11,12
 359 489 359 489 296 569.5 c 128,-1,13
 233 650 233 650 233 793 c 0,14,15
 233 872 233 872 274 1028 c 0,16,17
 312 1173 312 1173 312 1264 c 0,18,19
 312 1342 312 1342 255.5 1378.5 c 128,-1,20
 199 1415 199 1415 88 1434 c 1,21,-1
 98 1488 l 1,22,23
 257 1469 257 1469 350.5 1393.5 c 128,-1,24
 444 1318 444 1318 444 1185 c 0,25,26
 444 1098 444 1098 403 934 c 0,27,28
 365 784 365 784 365 709 c 0,29,30
 365 486 365 486 598 486 c 1,31,-1
 598 442 l 1,32,33
 365 442 365 442 365 219 c 0,34,35
 365 144 365 144 403 -6 c 0,36,37
 444 -170 444 -170 444 -257 c 0,38,39
 444 -390 444 -390 350.5 -465.5 c 128,-1,40
 257 -541 257 -541 98 -560 c 1,41,-1
 88 -506 l 1,0,1
EndSplineSet
EndChar

StartChar: asciitilde
Encoding: 94 126 94
Width: 1152
VWidth: 2078
Flags: W
HStem: 398 108<654.647 885.75> 522 108<266.25 497.85>
LayerCount: 3
Fore
SplineSet
112 422 m 17
 182 534 276 630 420 630 c 0
 505 630 569 596 628 564 c 0
 684 534 737 506 802 506 c 0
 904 506 952 562 1004 634 c 9
 1040 606 l 17
 970 494 876 398 732 398 c 0
 648 398 584 431 524 464 c 0
 469 494 415 522 350 522 c 0
 248 522 200 466 148 394 c 9
 112 422 l 17
EndSplineSet
Validated: 19457
Layer: 2
SplineSet
112 422 m 1,0,1
 242 630 242 630 420 630 c 0,2,3
 460 630 460 630 500.5 619 c 128,-1,4
 541 608 541 608 565 596.5 c 128,-1,5
 589 585 589 585 628 564 c 0,6,7
 664 545 664 545 685 535 c 128,-1,8
 706 525 706 525 739 515.5 c 128,-1,9
 772 506 772 506 802 506 c 0,10,11
 871 506 871 506 914 537.5 c 128,-1,12
 957 569 957 569 1004 634 c 1,13,-1
 1040 606 l 1,14,15
 910 398 910 398 732 398 c 0,16,17
 676 398 676 398 629 415 c 128,-1,18
 582 432 582 432 524 464 c 0,19,20
 418 522 418 522 350 522 c 0,21,22
 281 522 281 522 238 490.5 c 128,-1,23
 195 459 195 459 148 394 c 1,24,-1
 112 422 l 1,0,1
EndSplineSet
EndChar

StartChar: exclamdown
Encoding: 96 161 96
Width: 528
VWidth: 2078
Flags: W
HStem: -560 21G<216 312> 696 256<166.773 361.227>
VStem: 118 292<-521.29 -87.8125> 136 256<726.773 921.227>
LayerCount: 3
Fore
SplineSet
118 -401 m 0xe0
 118 -346 132 -234 150 -152 c 0
 172 -50 183 30 193 127 c 10
 236 532 l 25
 292 532 l 25
 335 127 l 18
 345 30 356 -50 378 -152 c 0
 396 -234 410 -346 410 -401 c 0
 410 -489 360 -560 264 -560 c 0
 168 -560 118 -489 118 -401 c 0xe0
136 824 m 0xd0
 136 896 192 952 264 952 c 0
 336 952 392 896 392 824 c 0
 392 752 336 696 264 696 c 0
 192 696 136 752 136 824 c 0xd0
EndSplineSet
Validated: 19457
Layer: 2
SplineSet
118 -401 m 0,0,1
 118 -298 118 -298 150 -152 c 0,2,3
 177 -26 177 -26 193 127 c 2,4,-1
 236 532 l 1,5,-1
 292 532 l 1,6,-1
 335 127 l 2,7,8
 351 -26 351 -26 378 -152 c 0,9,10
 410 -298 410 -298 410 -401 c 0,11,12
 410 -470 410 -470 371.5 -515 c 128,-1,13
 333 -560 333 -560 264 -560 c 128,-1,14
 195 -560 195 -560 156.5 -515 c 128,-1,15
 118 -470 118 -470 118 -401 c 0,0,1
136 824 m 128,-1,17
 136 878 136 878 173 915 c 128,-1,18
 210 952 210 952 264 952 c 128,-1,19
 318 952 318 952 355 915 c 128,-1,20
 392 878 392 878 392 824 c 128,-1,21
 392 770 392 770 355 733 c 128,-1,22
 318 696 318 696 264 696 c 128,-1,23
 210 696 210 696 173 733 c 128,-1,16
 136 770 136 770 136 824 c 128,-1,17
EndSplineSet
EndChar

StartChar: cent
Encoding: 97 162 97
Width: 1152
VWidth: 2079
Flags: W
HStem: -558 21G<210 278.972> -16 56<507.269 750.086> 860 56<538.031 705> 1442 20G<909.031 978>
VStem: 198 170<228.674 660.414> 810 134<643 806.668> 920 58<234.172 351>
DStem2: 210 -558 272 -558 0.329934 0.944004<20.4559 622.462 718.229 1500.03 1559.52 2139.82>
LayerCount: 3
Fore
SplineSet
198 450 m 0xfa
 198 717 378 916 662 916 c 0
 684 916 705 914 724 911 c 1
 916 1462 l 1
 978 1462 l 1xfa
 780 897 l 1
 902 852 944 742 944 679 c 0
 944 607 901 548 827 548 c 0
 775 548 735 583 735 634 c 0
 735 676 757 712 778 733 c 0
 802 758 810 772 810 794 c 0xfc
 810 806 801 829 762 845 c 1
 494 76 l 1
 527 53 570 40 622 40 c 0
 832 40 904 214 920 351 c 1
 978 351 l 1
 970 210 886 -16 622 -16 c 0
 567 -16 516 -7 470 10 c 1
 272 -558 l 1
 210 -558 l 1
 417 34 l 1
 279 110 198 264 198 450 c 0xfa
368 450 m 0
 368 321 387 197 447 120 c 1
 705 858 l 1
 692 859 677 860 660 860 c 0
 448 860 368 662 368 450 c 0
EndSplineSet
Validated: 19457
Layer: 2
SplineSet
198 450 m 0,0,1
 198 654 198 654 325 785 c 128,-1,2
 452 916 452 916 662 916 c 0,3,4
 692 916 692 916 724 911 c 1,5,-1
 916 1462 l 1,6,-1
 978 1462 l 1,7,-1
 780 897 l 1,8,9
 837 876 837 876 876 834.5 c 128,-1,10
 915 793 915 793 929.5 753.5 c 128,-1,11
 944 714 944 714 944 679 c 0,12,13
 944 623 944 623 912.5 585.5 c 128,-1,14
 881 548 881 548 827 548 c 0,15,16
 788 548 788 548 761.5 572 c 128,-1,17
 735 596 735 596 735 634 c 0,18,19
 735 690 735 690 778 733 c 0,20,21
 810 766 810 766 810 794 c 0,22,23
 810 825 810 825 762 845 c 1,24,-1
 494 76 l 1,25,26
 546 40 546 40 622 40 c 0,27,28
 697 40 697 40 754 68.5 c 128,-1,29
 811 97 811 97 844.5 145 c 128,-1,30
 878 193 878 193 895.5 243.5 c 128,-1,31
 913 294 913 294 920 351 c 1,32,-1
 978 351 l 1,33,34
 975 305 975 305 963.5 258.5 c 128,-1,35
 952 212 952 212 925 161.5 c 128,-1,36
 898 111 898 111 859.5 72.5 c 128,-1,37
 821 34 821 34 759.5 9 c 128,-1,38
 698 -16 698 -16 622 -16 c 0,39,40
 540 -16 540 -16 470 10 c 1,41,-1
 272 -558 l 1,42,-1
 210 -558 l 1,43,-1
 417 34 l 1,44,45
 314 91 314 91 256 200.5 c 128,-1,46
 198 310 198 310 198 450 c 0,0,1
368 450 m 0,47,48
 368 221 368 221 447 120 c 1,49,-1
 705 858 l 1,50,51
 679 860 679 860 660 860 c 0,52,53
 598 860 598 860 548.5 837.5 c 128,-1,54
 499 815 499 815 465.5 777 c 128,-1,55
 432 739 432 739 410 686 c 128,-1,56
 388 633 388 633 378 574.5 c 128,-1,57
 368 516 368 516 368 450 c 0,47,48
EndSplineSet
EndChar

StartChar: sterling
Encoding: 98 163 98
Width: 1152
Flags: W
HStem: -28 176<594.19 898.931> 168 72<258.821 441.454> 662 64<90 314 483 810> 1424 64<685.698 907.23>
VStem: 66 138<-20.4137 133.661> 314 162<499.291 662 726 1028.13> 936 122<1231 1396.19> 1016 40<282.144 313.734>
LayerCount: 3
Fore
SplineSet
66 37 m 0xfd
 66 86 104 129 135 162 c 0
 167 197 194 229 219 276 c 0
 269 371 302 498 314 662 c 1
 84 662 l 1
 90 726 l 1
 319 726 l 1
 324 838 339 1062 434 1240 c 0
 518 1398 651 1488 821 1488 c 0
 949 1488 1058 1391 1058 1269 c 0
 1058 1193 1012 1110 924 1110 c 0
 874 1110 836 1145 836 1194 c 0
 836 1231 863 1263 892 1284 c 0
 918 1303 936 1319 936 1342 c 0xfe
 936 1381 885 1424 817 1424 c 0
 703 1424 627 1372 582 1278 c 0
 518 1146 492 848 483 726 c 1
 816 726 l 1
 810 662 l 1
 476 662 l 1
 466 596 448 523 416 461 c 0
 373 376 311 285 254 221 c 1
 260 214 l 1
 305 231 348 240 390 240 c 0
 464 240 536 218 598 190 c 0
 652 166 728 148 788 148 c 0
 918 148 980 224 1016 324 c 1
 1056 308 l 1
 1030 174 958 -28 758 -28 c 0
 646 -28 590 12 520 74 c 0
 480 110 404 168 334 168 c 0
 292 168 258 155 227 142 c 1
 216 119 209 92 204 62 c 0
 196 15 177 -28 128 -28 c 0
 89 -28 66 8 66 37 c 0xfd
EndSplineSet
Validated: 19457
Layer: 2
SplineSet
66 37 m 0,0,1
 66 89 66 89 135 162 c 1,2,3
 191 223 191 223 219 276 c 0,4,5
 297 423 297 423 314 662 c 1,6,-1
 84 662 l 1,7,-1
 90 726 l 1,8,-1
 319 726 l 1,9,10
 334 1052 334 1052 434 1240 c 0,11,12
 498 1360 498 1360 596.5 1424 c 128,-1,13
 695 1488 695 1488 821 1488 c 0,14,15
 918 1488 918 1488 988 1424 c 128,-1,16
 1058 1360 1058 1360 1058 1269 c 0,17,18
 1058 1207 1058 1207 1022 1158.5 c 128,-1,19
 986 1110 986 1110 924 1110 c 0,20,21
 886 1110 886 1110 861 1133.5 c 128,-1,22
 836 1157 836 1157 836 1194 c 0,23,24
 836 1243 836 1243 892 1284 c 0,25,26
 936 1316 936 1316 936 1342 c 0,27,28
 936 1373 936 1373 901 1398.5 c 128,-1,29
 866 1424 866 1424 817 1424 c 0,30,31
 652 1424 652 1424 582 1278 c 0,32,33
 513 1136 513 1136 483 726 c 1,34,-1
 816 726 l 1,35,-1
 810 662 l 1,36,-1
 476 662 l 1,37,38
 458 542 458 542 416 461 c 1,39,40
 348 326 348 326 254 221 c 1,41,-1
 260 214 l 1,42,43
 329 240 329 240 390 240 c 0,44,45
 487 240 487 240 598 190 c 0,46,47
 692 148 692 148 788 148 c 0,48,49
 879 148 879 148 932.5 194.5 c 128,-1,50
 986 241 986 241 1016 324 c 1,51,-1
 1056 308 l 1,52,53
 1047 262 1047 262 1034.5 221 c 128,-1,54
 1022 180 1022 180 997.5 132.5 c 128,-1,55
 973 85 973 85 942 51 c 128,-1,56
 911 17 911 17 863 -5.5 c 128,-1,57
 815 -28 815 -28 758 -28 c 0,58,59
 681 -28 681 -28 631 -4 c 128,-1,60
 581 20 581 20 520 74 c 0,61,62
 416 168 416 168 334 168 c 0,63,64
 289 168 289 168 227 142 c 1,65,66
 212 111 212 111 204 62 c 0,67,68
 189 -28 189 -28 128 -28 c 0,69,70
 101 -28 101 -28 83.5 -7.5 c 128,-1,71
 66 13 66 13 66 37 c 0,0,1
EndSplineSet
EndChar

StartChar: currency
Encoding: 99 164 99
Width: 1152
Flags: W
HStem: 108 88<409.421 742.579> 828 88<407.987 742.579>
VStem: 172 88<345.421 678.579> 892 88<343.987 678.579>
DStem2: 202 956 134 887 0.706674 -0.70754<0.76643 181.309 975.63 1154.71> 255 259 323 191 0.706674 0.70754<-170.412 7.40456 803.575 982.819>
LayerCount: 3
Fore
SplineSet
134 139 m 1
 255 259 l 1
 203 327 172 414 172 512 c 0
 172 610 203 697 256 765 c 1
 134 887 l 1
 202 956 l 1
 324 833 l 1
 392 886 479 916 576 916 c 0
 674 916 761 885 829 833 c 1
 950 956 l 1
 1018 886 l 1
 897 765 l 1
 950 697 980 610 980 512 c 0
 980 415 950 328 897 260 c 1
 1018 139 l 1
 950 70 l 1
 829 192 l 1
 761 139 674 108 576 108 c 0
 478 108 391 138 323 191 c 1
 203 70 l 1
 134 139 l 1
260 512 m 0
 260 328 392 196 576 196 c 0
 760 196 892 328 892 512 c 0
 892 696 760 828 576 828 c 0
 392 828 260 696 260 512 c 0
EndSplineSet
Validated: 19457
Layer: 2
SplineSet
134 139 m 1,0,-1
 255 259 l 1,1,2
 172 368 172 368 172 512 c 0,3,4
 172 657 172 657 256 765 c 1,5,-1
 134 887 l 1,6,-1
 202 956 l 1,7,-1
 324 833 l 1,8,9
 430 916 430 916 576 916 c 0,10,11
 720 916 720 916 829 833 c 1,12,-1
 950 956 l 1,13,-1
 1018 886 l 1,14,-1
 897 765 l 1,15,16
 980 659 980 659 980 512 c 0,17,18
 980 366 980 366 897 260 c 1,19,-1
 1018 139 l 1,20,-1
 950 70 l 1,21,-1
 829 192 l 1,22,23
 721 108 721 108 576 108 c 0,24,25
 429 108 429 108 323 191 c 1,26,-1
 203 70 l 1,27,-1
 134 139 l 1,0,-1
260 512 m 128,-1,29
 260 374 260 374 349 285 c 128,-1,30
 438 196 438 196 576 196 c 128,-1,31
 714 196 714 196 803 285 c 128,-1,32
 892 374 892 374 892 512 c 128,-1,33
 892 650 892 650 803 739 c 128,-1,34
 714 828 714 828 576 828 c 128,-1,35
 438 828 438 828 349 739 c 128,-1,28
 260 650 260 650 260 512 c 128,-1,29
EndSplineSet
EndChar

StartChar: yen
Encoding: 100 165 100
Width: 1152
VWidth: 2078
Flags: W
HStem: 0 56<330 500.42 653.58 824> 456 96<172 504 650 978> 744 96<172 421 703 978> 1402 56<29 129.99 341.36 488 698 863.786 1021.01 1132>
VStem: 504 146<56.199 456 552 677>
DStem2: 604 783 195 1284 0.453662 -0.891174<-632.637 -133.817 -26.0349 0> 604 783 703 840 0.469993 0.88267<96.8415 611.018>
LayerCount: 3
Fore
SplineSet
29 1402 m 1
 29 1458 l 1
 488 1458 l 1
 488 1402 l 1
 400 1402 l 2
 370 1402 337 1386 337 1358 c 0
 337 1336 342 1321 348 1305 c 2
 604 783 l 1
 850 1245 l 2
 864 1272 876 1298 876 1332 c 0
 876 1366 854 1402 815 1402 c 2
 698 1402 l 1
 698 1458 l 1
 1132 1458 l 1
 1132 1402 l 1
 1087 1402 1056 1401 1021 1374 c 0
 985 1346 958 1310 942 1281 c 2
 703 840 l 1
 978 840 l 1
 978 744 l 1
 651 744 l 1
 650 743 l 1
 650 552 l 1
 978 552 l 1
 978 456 l 1
 650 456 l 1
 650 106 l 2
 650 73 667 56 700 56 c 2
 824 56 l 1
 824 0 l 1
 330 0 l 1
 330 56 l 1
 454 56 l 2
 487 56 504 73 504 106 c 2
 504 456 l 1
 172 456 l 1
 172 552 l 1
 504 552 l 1
 504 677 l 1
 470 744 l 1
 172 744 l 1
 172 840 l 1
 421 840 l 1
 195 1284 l 2
 175 1324 160 1353 130 1375 c 0
 95 1401 74 1402 29 1402 c 1
EndSplineSet
Validated: 19457
Layer: 2
SplineSet
29 1402 m 1,0,-1
 29 1458 l 1,1,-1
 488 1458 l 1,2,-1
 488 1402 l 1,3,-1
 400 1402 l 2,4,5
 376 1402 376 1402 356.5 1390 c 128,-1,6
 337 1378 337 1378 337 1358 c 0,7,8
 337 1334 337 1334 348 1305 c 1,9,-1
 604 783 l 1,10,-1
 850 1245 l 2,11,12
 876 1295 876 1295 876 1332 c 0,13,14
 876 1359 876 1359 859.5 1380.5 c 128,-1,15
 843 1402 843 1402 815 1402 c 2,16,-1
 698 1402 l 1,17,-1
 698 1458 l 1,18,-1
 1132 1458 l 1,19,-1
 1132 1402 l 1,20,21
 1092 1402 1092 1402 1068.5 1397 c 128,-1,22
 1045 1392 1045 1392 1021 1374 c 0,23,24
 972 1336 972 1336 942 1281 c 2,25,-1
 703 840 l 1,26,-1
 978 840 l 1,27,-1
 978 744 l 1,28,-1
 651 744 l 1,29,-1
 650 743 l 1,30,-1
 650 552 l 1,31,-1
 978 552 l 1,32,-1
 978 456 l 1,33,-1
 650 456 l 1,34,-1
 650 106 l 2,35,36
 650 56 650 56 700 56 c 2,37,-1
 824 56 l 1,38,-1
 824 0 l 1,39,-1
 330 0 l 1,40,-1
 330 56 l 1,41,-1
 454 56 l 2,42,43
 504 56 504 56 504 106 c 2,44,-1
 504 456 l 1,45,-1
 172 456 l 1,46,-1
 172 552 l 1,47,-1
 504 552 l 1,48,-1
 504 677 l 1,49,-1
 470 744 l 1,50,-1
 172 744 l 1,51,-1
 172 840 l 1,52,-1
 421 840 l 1,53,-1
 195 1284 l 2,54,55
 161 1352 161 1352 130 1375 c 0,56,57
 106 1393 106 1393 86.5 1397.5 c 128,-1,58
 67 1402 67 1402 29 1402 c 1,0,-1
EndSplineSet
EndChar

StartChar: brokenbar
Encoding: 101 166 101
Width: 512
VWidth: 2078
Flags: W
HStem: -468 21G<202 310> 1440 20G<202 310>
VStem: 202 108<-468 300 692 1460>
LayerCount: 3
Fore
SplineSet
202 300 m 1
 310 300 l 1
 310 -468 l 1
 202 -468 l 1
 202 300 l 1
202 692 m 1
 202 1460 l 1
 310 1460 l 1
 310 692 l 1
 202 692 l 1
EndSplineSet
Validated: 19457
Layer: 2
SplineSet
202 300 m 1,0,-1
 310 300 l 1,1,-1
 310 -468 l 1,2,-1
 202 -468 l 1,3,-1
 202 300 l 1,0,-1
202 692 m 1,4,-1
 202 1460 l 1,5,-1
 310 1460 l 1,6,-1
 310 692 l 1,7,-1
 202 692 l 1,4,-1
EndSplineSet
EndChar

StartChar: section
Encoding: 102 167 102
Width: 1042
VWidth: 2078
Flags: W
HStem: -468 64<368.373 518.574> 1396 64<419.426 569.627>
VStem: 152 92<476.94 771.452> 224 140<-400.221 -218.196> 268 96<1067.79 1325.4> 574 140<1210.2 1392.22> 574 96<-333.398 -75.7895> 694 92<220.548 515.06>
LayerCount: 3
Fore
SplineSet
152 561 m 0xe2
 152 662 174 830 338 923 c 1
 295 993 268 1067 268 1150 c 0
 268 1296 359 1460 523 1460 c 0
 650 1460 714 1363 714 1279 c 0
 714 1200 666 1151 612 1151 c 0
 565 1151 528 1183 528 1233 c 0
 528 1263 540 1289 553 1307 c 0
 564 1322 574 1339 574 1352 c 0
 574 1370 559 1396 504 1396 c 0
 392 1396 364 1288 364 1216 c 0xec
 364 1097 452 989 578 851 c 0
 734 680 786 572 786 431 c 0
 786 330 764 162 600 69 c 1
 643 -1 670 -75 670 -158 c 0
 670 -304 579 -468 415 -468 c 0
 288 -468 224 -371 224 -287 c 0
 224 -208 272 -159 326 -159 c 0
 373 -159 410 -191 410 -241 c 0
 410 -271 398 -297 385 -315 c 0
 374 -330 364 -347 364 -360 c 0xd3
 364 -378 379 -404 434 -404 c 0
 546 -404 574 -296 574 -224 c 0
 574 -105 486 3 360 141 c 0
 204 312 152 420 152 561 c 0xe2
244 655 m 0
 244 497 345 368 456 249 c 0
 497 205 536 161 569 115 c 1
 629 150 694 207 694 337 c 0xe1
 694 495 593 624 482 743 c 0
 441 787 402 831 369 877 c 1
 309 842 244 785 244 655 c 0
EndSplineSet
Validated: 19457
Layer: 2
SplineSet
152 561 m 0,0,1
 152 818 152 818 338 923 c 1,2,3
 268 1037 268 1037 268 1150 c 0,4,5
 268 1226 268 1226 296.5 1295.5 c 128,-1,6
 325 1365 325 1365 385 1412.5 c 128,-1,7
 445 1460 445 1460 523 1460 c 0,8,9
 612 1460 612 1460 663 1404.5 c 128,-1,10
 714 1349 714 1349 714 1279 c 0,11,12
 714 1222 714 1222 684 1186.5 c 128,-1,13
 654 1151 654 1151 612 1151 c 0,14,15
 576 1151 576 1151 552 1173.5 c 128,-1,16
 528 1196 528 1196 528 1233 c 0,17,18
 528 1272 528 1272 553 1307 c 0,19,20
 574 1336 574 1336 574 1352 c 0,21,22
 574 1369 574 1369 557.5 1382.5 c 128,-1,23
 541 1396 541 1396 504 1396 c 0,24,25
 464 1396 464 1396 435 1378.5 c 128,-1,26
 406 1361 406 1361 391.5 1332.5 c 128,-1,27
 377 1304 377 1304 370.5 1275 c 128,-1,28
 364 1246 364 1246 364 1216 c 0,29,30
 364 1134 364 1134 416 1053 c 128,-1,31
 468 972 468 972 578 851 c 0,32,33
 694 723 694 723 740 630 c 128,-1,34
 786 537 786 537 786 431 c 0,35,36
 786 174 786 174 600 69 c 1,37,38
 670 -45 670 -45 670 -158 c 0,39,40
 670 -234 670 -234 641.5 -303.5 c 128,-1,41
 613 -373 613 -373 553 -420.5 c 128,-1,42
 493 -468 493 -468 415 -468 c 0,43,44
 326 -468 326 -468 275 -412.5 c 128,-1,45
 224 -357 224 -357 224 -287 c 0,46,47
 224 -230 224 -230 254 -194.5 c 128,-1,48
 284 -159 284 -159 326 -159 c 0,49,50
 362 -159 362 -159 386 -181.5 c 128,-1,51
 410 -204 410 -204 410 -241 c 0,52,53
 410 -280 410 -280 385 -315 c 0,54,55
 364 -344 364 -344 364 -360 c 0,56,57
 364 -377 364 -377 380.5 -390.5 c 128,-1,58
 397 -404 397 -404 434 -404 c 0,59,60
 474 -404 474 -404 503 -386.5 c 128,-1,61
 532 -369 532 -369 546.5 -340.5 c 128,-1,62
 561 -312 561 -312 567.5 -283 c 128,-1,63
 574 -254 574 -254 574 -224 c 0,64,65
 574 -142 574 -142 522 -61 c 128,-1,66
 470 20 470 20 360 141 c 0,67,68
 244 269 244 269 198 362 c 128,-1,69
 152 455 152 455 152 561 c 0,0,1
244 655 m 0,70,71
 244 580 244 580 276 504.5 c 128,-1,72
 308 429 308 429 349.5 373.5 c 128,-1,73
 391 318 391 318 456 249 c 0,74,75
 529 170 529 170 569 115 c 1,76,77
 625 148 625 148 659.5 198.5 c 128,-1,78
 694 249 694 249 694 337 c 0,79,80
 694 412 694 412 662 487.5 c 128,-1,81
 630 563 630 563 588.5 618.5 c 128,-1,82
 547 674 547 674 482 743 c 0,83,84
 409 822 409 822 369 877 c 1,85,86
 313 844 313 844 278.5 793.5 c 128,-1,87
 244 743 244 743 244 655 c 0,70,71
EndSplineSet
EndChar

StartChar: dieresis
Encoding: 103 168 103
Width: 880
VWidth: 2078
Flags: W
HStem: 1112 192<148.205 313.795 566.205 731.795>
VStem: 135 192<1125.2 1290.8> 553 192<1125.2 1290.8>
LayerCount: 3
Fore
SplineSet
135 1208 m 0
 135 1264 175 1304 231 1304 c 0
 287 1304 327 1264 327 1208 c 0
 327 1152 287 1112 231 1112 c 0
 175 1112 135 1152 135 1208 c 0
553 1208 m 0
 553 1264 593 1304 649 1304 c 0
 705 1304 745 1264 745 1208 c 0
 745 1152 705 1112 649 1112 c 0
 593 1112 553 1152 553 1208 c 0
EndSplineSet
Validated: 19457
Layer: 2
SplineSet
135 1208 m 128,-1,1
 135 1250 135 1250 162 1277 c 128,-1,2
 189 1304 189 1304 231 1304 c 128,-1,3
 273 1304 273 1304 300 1277 c 128,-1,4
 327 1250 327 1250 327 1208 c 128,-1,5
 327 1166 327 1166 300 1139 c 128,-1,6
 273 1112 273 1112 231 1112 c 128,-1,7
 189 1112 189 1112 162 1139 c 128,-1,0
 135 1166 135 1166 135 1208 c 128,-1,1
553 1208 m 128,-1,9
 553 1250 553 1250 580 1277 c 128,-1,10
 607 1304 607 1304 649 1304 c 128,-1,11
 691 1304 691 1304 718 1277 c 128,-1,12
 745 1250 745 1250 745 1208 c 128,-1,13
 745 1166 745 1166 718 1139 c 128,-1,14
 691 1112 691 1112 649 1112 c 128,-1,15
 607 1112 607 1112 580 1139 c 128,-1,8
 553 1166 553 1166 553 1208 c 128,-1,9
EndSplineSet
EndChar

StartChar: copyright
Encoding: 104 169 104
Width: 1636
VWidth: 2079
Flags: W
HStem: -28 64<617.729 1018.27> 264 56<700.613 942.086> 1140 56<730.031 952.83> 1424 64<617.729 1018.27>
VStem: 60 72<512.062 947.938> 390 170<510.58 940.414> 1118 50<544.773 631 772 898.839> 1504 72<512.062 947.938>
LayerCount: 3
Fore
SplineSet
60 730 m 0
 60 1162 386 1488 818 1488 c 0
 1250 1488 1576 1162 1576 730 c 0
 1576 298 1250 -28 818 -28 c 0
 386 -28 60 298 60 730 c 0
132 730 m 0
 132 344 432 36 818 36 c 0
 1204 36 1504 344 1504 730 c 0
 1504 1116 1204 1424 818 1424 c 0
 432 1424 132 1116 132 730 c 0
390 730 m 0
 390 997 570 1196 854 1196 c 0
 946 1196 1010 1149 1052 1110 c 9
 1124 1196 l 25
 1168 1196 l 25
 1168 772 l 25
 1118 772 l 1
 1110 856 1084 959 1025 1044 c 0
 982 1106 919 1140 852 1140 c 0
 640 1140 560 942 560 730 c 0
 560 518 610 320 814 320 c 0
 1024 320 1096 494 1112 631 c 9
 1170 631 l 17
 1162 490 1078 264 814 264 c 0
 556 264 390 464 390 730 c 0
EndSplineSet
Validated: 19457
Layer: 2
SplineSet
60 730 m 128,-1,1
 60 890 60 890 118 1030.5 c 128,-1,2
 176 1171 176 1171 276.5 1271.5 c 128,-1,3
 377 1372 377 1372 517.5 1430 c 128,-1,4
 658 1488 658 1488 818 1488 c 128,-1,5
 978 1488 978 1488 1118.5 1430 c 128,-1,6
 1259 1372 1259 1372 1359.5 1271.5 c 128,-1,7
 1460 1171 1460 1171 1518 1030.5 c 128,-1,8
 1576 890 1576 890 1576 730 c 128,-1,9
 1576 570 1576 570 1518 429.5 c 128,-1,10
 1460 289 1460 289 1359.5 188.5 c 128,-1,11
 1259 88 1259 88 1118.5 30 c 128,-1,12
 978 -28 978 -28 818 -28 c 128,-1,13
 658 -28 658 -28 517.5 30 c 128,-1,14
 377 88 377 88 276.5 188.5 c 128,-1,15
 176 289 176 289 118 429.5 c 128,-1,0
 60 570 60 570 60 730 c 128,-1,1
132 730 m 128,-1,17
 132 540 132 540 222.5 380.5 c 128,-1,18
 313 221 313 221 470.5 128.5 c 128,-1,19
 628 36 628 36 818 36 c 128,-1,20
 1008 36 1008 36 1165.5 128.5 c 128,-1,21
 1323 221 1323 221 1413.5 380.5 c 128,-1,22
 1504 540 1504 540 1504 730 c 128,-1,23
 1504 920 1504 920 1413.5 1079.5 c 128,-1,24
 1323 1239 1323 1239 1165.5 1331.5 c 128,-1,25
 1008 1424 1008 1424 818 1424 c 128,-1,26
 628 1424 628 1424 470.5 1331.5 c 128,-1,27
 313 1239 313 1239 222.5 1079.5 c 128,-1,16
 132 920 132 920 132 730 c 128,-1,17
390 730 m 0,28,29
 390 934 390 934 517 1065 c 128,-1,30
 644 1196 644 1196 854 1196 c 0,31,32
 959 1196 959 1196 1052 1110 c 1,33,-1
 1124 1196 l 1,34,-1
 1168 1196 l 1,35,-1
 1168 772 l 1,36,-1
 1118 772 l 1,37,38
 1103 932 1103 932 1025 1044 c 0,39,40
 958 1140 958 1140 852 1140 c 0,41,42
 790 1140 790 1140 740.5 1117.5 c 128,-1,43
 691 1095 691 1095 657.5 1057 c 128,-1,44
 624 1019 624 1019 602 966 c 128,-1,45
 580 913 580 913 570 854.5 c 128,-1,46
 560 796 560 796 560 730 c 0,47,48
 560 320 560 320 814 320 c 0,49,50
 889 320 889 320 946 348.5 c 128,-1,51
 1003 377 1003 377 1036.5 425 c 128,-1,52
 1070 473 1070 473 1087.5 523.5 c 128,-1,53
 1105 574 1105 574 1112 631 c 1,54,-1
 1170 631 l 1,55,56
 1167 585 1167 585 1155.5 538.5 c 128,-1,57
 1144 492 1144 492 1117 441.5 c 128,-1,58
 1090 391 1090 391 1051.5 352.5 c 128,-1,59
 1013 314 1013 314 951.5 289 c 128,-1,60
 890 264 890 264 814 264 c 0,61,62
 623 264 623 264 506.5 395.5 c 128,-1,63
 390 527 390 527 390 730 c 0,28,29
EndSplineSet
EndChar

StartChar: ordfeminine
Encoding: 105 170 105
Width: 780
VWidth: 1362
Flags: W
HStem: 904 48<260.788 376.969 541.969 627.808> 1203 27<424.287 471> 1382 44<281.16 430.217>
VStem: 132 112<957.779 1108.94> 164 96<1248.54 1375.08> 471 96<998.933 1203 1219.8 1359.4> 652 32<989.433 1116>
LayerCount: 3
Fore
SplineSet
132 1015 m 0xf6
 132 1101 223 1151 312 1183 c 0
 379 1207 412 1218 471 1230 c 1
 471 1269 l 2
 471 1318 450 1382 357 1382 c 0
 331 1382 310 1381 290 1373 c 0
 271 1364 260 1353 260 1337 c 0
 260 1326 262 1318 271 1307 c 0
 284 1292 291 1282 291 1269 c 0
 291 1248 278 1222 235 1222 c 0
 194 1222 164 1258 164 1294 c 0xee
 164 1360 222 1426 350 1426 c 0
 508 1426 567 1333 567 1228 c 2
 567 1006 l 2
 567 976 582 964 598 964 c 0
 649 964 652 1032 652 1116 c 1
 684 1116 l 1
 684 1051 l 2
 684 989 666 904 575 904 c 0
 509 904 478 944 471 993 c 9
 467 995 l 1
 434 958 362 904 283 904 c 0
 203 904 132 934 132 1015 c 0xf6
244 1028 m 0xf6
 244 981 269 952 322 952 c 0
 377 952 439 1004 471 1043 c 1
 471 1203 l 1
 417 1189 380 1177 325 1150 c 0
 272 1124 244 1083 244 1028 c 0xf6
EndSplineSet
Validated: 19457
Layer: 2
SplineSet
132 1015 m 0,0,1
 132 1118 132 1118 312 1183 c 0,2,3
 407 1217 407 1217 471 1230 c 1,4,-1
 471 1269 l 2,5,6
 471 1315 471 1315 445.5 1348.5 c 128,-1,7
 420 1382 420 1382 357 1382 c 0,8,9
 312 1382 312 1382 290 1373 c 1,10,11
 260 1359 260 1359 260 1337 c 0,12,13
 260 1320 260 1320 271 1307 c 0,14,15
 291 1284 291 1284 291 1269 c 0,16,17
 291 1250 291 1250 277.5 1236 c 128,-1,18
 264 1222 264 1222 235 1222 c 0,19,20
 205 1222 205 1222 184.5 1244 c 128,-1,21
 164 1266 164 1266 164 1294 c 0,22,23
 164 1348 164 1348 212 1387 c 128,-1,24
 260 1426 260 1426 350 1426 c 0,25,26
 461 1426 461 1426 514 1370 c 128,-1,27
 567 1314 567 1314 567 1228 c 2,28,-1
 567 1006 l 2,29,30
 567 964 567 964 598 964 c 0,31,32
 616 964 616 964 627.5 975 c 128,-1,33
 639 986 639 986 644 1009.5 c 128,-1,34
 649 1033 649 1033 650.5 1055.5 c 128,-1,35
 652 1078 652 1078 652 1116 c 1,36,-1
 684 1116 l 1,37,-1
 684 1051 l 2,38,39
 684 1025 684 1025 679.5 1001.5 c 128,-1,40
 675 978 675 978 664 954.5 c 128,-1,41
 653 931 653 931 630 917.5 c 128,-1,42
 607 904 607 904 575 904 c 0,43,44
 528 904 528 904 502.5 928.5 c 128,-1,45
 477 953 477 953 471 993 c 1,46,-1
 467 995 l 1,47,48
 436 961 436 961 386 932.5 c 128,-1,49
 336 904 336 904 283 904 c 0,50,51
 217 904 217 904 174.5 931 c 128,-1,52
 132 958 132 958 132 1015 c 0,0,1
244 1028 m 0,53,54
 244 952 244 952 322 952 c 0,55,56
 360 952 360 952 401 980 c 128,-1,57
 442 1008 442 1008 471 1043 c 1,58,-1
 471 1203 l 1,59,60
 390 1182 390 1182 325 1150 c 0,61,62
 244 1110 244 1110 244 1028 c 0,53,54
EndSplineSet
EndChar

StartChar: logicalnot
Encoding: 107 172 107
Width: 1152
VWidth: 2078
Flags: W
HStem: 650 96<62 978>
VStem: 978 112<274 650>
LayerCount: 3
Fore
SplineSet
62 650 m 1
 62 746 l 1
 1090 746 l 1
 1090 274 l 1
 978 274 l 1
 978 650 l 1
 62 650 l 1
EndSplineSet
Validated: 19457
Layer: 2
SplineSet
62 650 m 1,0,-1
 62 746 l 1,1,-1
 1090 746 l 1,2,-1
 1090 274 l 1,3,-1
 978 274 l 1,4,-1
 978 650 l 1,5,-1
 62 650 l 1,0,-1
EndSplineSet
EndChar

StartChar: registered
Encoding: 109 174 109
Width: 1636
VWidth: 2079
Flags: W
HStem: -28 64<617.729 1018.27> 260 68<384 556.214 705.786 878 1139.95 1225.63> 686 56<704 922.325> 1116 56<384 554.969 704 963.961> 1424 64<617.729 1018.27>
VStem: 60 72<512.062 947.938> 558 146<328.199 686 742 1115.81> 1045 146<804.099 1059.48> 1258 45<384.839 499> 1504 72<512.062 947.938>
LayerCount: 3
Fore
SplineSet
60 730 m 0
 60 1162 386 1488 818 1488 c 0
 1250 1488 1576 1162 1576 730 c 0
 1576 298 1250 -28 818 -28 c 0
 386 -28 60 298 60 730 c 0
132 730 m 0
 132 344 432 36 818 36 c 0
 1204 36 1504 344 1504 730 c 0
 1504 1116 1204 1424 818 1424 c 0
 432 1424 132 1116 132 730 c 0
384 272 m 1
 384 328 l 1
 508 328 l 2
 541 328 558 345 558 378 c 2
 558 1066 l 2
 558 1100 542 1116 508 1116 c 2
 384 1116 l 1
 384 1172 l 1
 902 1172 l 2
 1051 1172 1191 1098 1191 930 c 0
 1191 802 1100 725 955 704 c 1
 957 692 l 1
 1008 678 1048 648 1078 602 c 0
 1113 547 1122 479 1130 406 c 0
 1134 370 1145 328 1180 328 c 0
 1230 328 1258 424 1258 499 c 1
 1303 499 l 1
 1303 389 1254 260 1144 260 c 0
 1054 260 1016 298 994 366 c 0
 978 416 971 496 967 554 c 0
 963 607 938 686 852 686 c 2
 704 686 l 1
 704 378 l 2
 704 345 721 328 754 328 c 2
 878 328 l 1
 878 272 l 1
 384 272 l 1
704 742 m 1
 834 742 l 2
 954 742 1045 804 1045 930 c 0
 1045 1057 959 1116 868 1116 c 2
 704 1116 l 1
 704 742 l 1
EndSplineSet
Validated: 19457
Layer: 2
SplineSet
60 730 m 128,-1,1
 60 890 60 890 118 1030.5 c 128,-1,2
 176 1171 176 1171 276.5 1271.5 c 128,-1,3
 377 1372 377 1372 517.5 1430 c 128,-1,4
 658 1488 658 1488 818 1488 c 128,-1,5
 978 1488 978 1488 1118.5 1430 c 128,-1,6
 1259 1372 1259 1372 1359.5 1271.5 c 128,-1,7
 1460 1171 1460 1171 1518 1030.5 c 128,-1,8
 1576 890 1576 890 1576 730 c 128,-1,9
 1576 570 1576 570 1518 429.5 c 128,-1,10
 1460 289 1460 289 1359.5 188.5 c 128,-1,11
 1259 88 1259 88 1118.5 30 c 128,-1,12
 978 -28 978 -28 818 -28 c 128,-1,13
 658 -28 658 -28 517.5 30 c 128,-1,14
 377 88 377 88 276.5 188.5 c 128,-1,15
 176 289 176 289 118 429.5 c 128,-1,0
 60 570 60 570 60 730 c 128,-1,1
132 730 m 128,-1,17
 132 540 132 540 222.5 380.5 c 128,-1,18
 313 221 313 221 470.5 128.5 c 128,-1,19
 628 36 628 36 818 36 c 128,-1,20
 1008 36 1008 36 1165.5 128.5 c 128,-1,21
 1323 221 1323 221 1413.5 380.5 c 128,-1,22
 1504 540 1504 540 1504 730 c 128,-1,23
 1504 920 1504 920 1413.5 1079.5 c 128,-1,24
 1323 1239 1323 1239 1165.5 1331.5 c 128,-1,25
 1008 1424 1008 1424 818 1424 c 128,-1,26
 628 1424 628 1424 470.5 1331.5 c 128,-1,27
 313 1239 313 1239 222.5 1079.5 c 128,-1,16
 132 920 132 920 132 730 c 128,-1,17
384 272 m 1,28,-1
 384 328 l 1,29,-1
 508 328 l 2,30,31
 558 328 558 328 558 378 c 2,32,-1
 558 1066 l 2,33,34
 558 1116 558 1116 508 1116 c 2,35,-1
 384 1116 l 1,36,-1
 384 1172 l 1,37,-1
 902 1172 l 2,38,39
 980 1172 980 1172 1043.5 1147.5 c 128,-1,40
 1107 1123 1107 1123 1149 1066.5 c 128,-1,41
 1191 1010 1191 1010 1191 930 c 0,42,43
 1191 836 1191 836 1128.5 778 c 128,-1,44
 1066 720 1066 720 955 704 c 1,45,-1
 957 692 l 1,46,47
 1033 671 1033 671 1078 602 c 0,48,49
 1115 544 1115 544 1130 406 c 0,50,51
 1139 328 1139 328 1180 328 c 0,52,53
 1215 328 1215 328 1236.5 382 c 128,-1,54
 1258 436 1258 436 1258 499 c 1,55,-1
 1303 499 l 1,56,57
 1303 441 1303 441 1287 388 c 128,-1,58
 1271 335 1271 335 1233.5 297.5 c 128,-1,59
 1196 260 1196 260 1144 260 c 0,60,61
 1079 260 1079 260 1045 286 c 128,-1,62
 1011 312 1011 312 994 366 c 0,63,64
 976 422 976 422 967 554 c 0,65,66
 963 605 963 605 936.5 645.5 c 128,-1,67
 910 686 910 686 852 686 c 2,68,-1
 704 686 l 1,69,-1
 704 378 l 2,70,71
 704 328 704 328 754 328 c 2,72,-1
 878 328 l 1,73,-1
 878 272 l 1,74,-1
 384 272 l 1,28,-1
704 742 m 1,75,-1
 834 742 l 2,76,77
 928 742 928 742 986.5 790.5 c 128,-1,78
 1045 839 1045 839 1045 930 c 0,79,80
 1045 1020 1045 1020 993.5 1068 c 128,-1,81
 942 1116 942 1116 868 1116 c 2,82,-1
 704 1116 l 1,83,-1
 704 742 l 1,75,-1
EndSplineSet
EndChar

StartChar: macron
Encoding: 110 175 110
AltUni2: 0002c9.ffffffff.0
Width: 880
VWidth: 2078
Flags: W
HStem: 1134 88<152 728>
VStem: 152 576<1134 1222>
LayerCount: 3
Fore
SplineSet
152 1134 m 25
 152 1222 l 25
 728 1222 l 25
 728 1134 l 25
 152 1134 l 25
EndSplineSet
Validated: 19457
Layer: 2
SplineSet
152 1134 m 1,0,-1
 152 1222 l 1,1,-1
 728 1222 l 1,2,-1
 728 1134 l 1,3,-1
 152 1134 l 1,0,-1
EndSplineSet
EndChar

StartChar: degree
Encoding: 111 176 111
Width: 1152
Flags: W
HStem: 744 80<426.389 725.611> 1412 80<426.389 725.611>
VStem: 200 80<968.798 1267.2> 872 80<968.798 1267.2>
LayerCount: 3
Fore
SplineSet
200 1118 m 0
 200 1334 360 1492 576 1492 c 0
 792 1492 952 1334 952 1118 c 0
 952 902 792 744 576 744 c 0
 360 744 200 902 200 1118 c 0
280 1118 m 0
 280 950 408 824 576 824 c 0
 744 824 872 950 872 1118 c 0
 872 1286 744 1412 576 1412 c 0
 408 1412 280 1286 280 1118 c 0
EndSplineSet
Validated: 19457
Layer: 2
SplineSet
200 1118 m 128,-1,1
 200 1280 200 1280 307 1386 c 128,-1,2
 414 1492 414 1492 576 1492 c 128,-1,3
 738 1492 738 1492 845 1386 c 128,-1,4
 952 1280 952 1280 952 1118 c 128,-1,5
 952 956 952 956 845 850 c 128,-1,6
 738 744 738 744 576 744 c 128,-1,7
 414 744 414 744 307 850 c 128,-1,0
 200 956 200 956 200 1118 c 128,-1,1
280 1118 m 128,-1,9
 280 992 280 992 365 908 c 128,-1,10
 450 824 450 824 576 824 c 128,-1,11
 702 824 702 824 787 908 c 128,-1,12
 872 992 872 992 872 1118 c 128,-1,13
 872 1244 872 1244 787 1328 c 128,-1,14
 702 1412 702 1412 576 1412 c 128,-1,15
 450 1412 450 1412 365 1328 c 128,-1,8
 280 1244 280 1244 280 1118 c 128,-1,9
EndSplineSet
EndChar

